M48
; DRILL file {KiCad 8.0.1} date 2024-03-31T12:21:29+0300
; FORMAT={-:-/ absolute / inch / decimal}
; #@! TF.CreationDate,2024-03-31T12:21:29+03:00
; #@! TF.GenerationSoftware,Kicad,Pcbnew,8.0.1
; #@! TF.FileFunction,Plated,1,2,PTH
FMAT,2
INCH
; #@! TA.AperFunction,Plated,PTH,ViaDrill
T1C0.0118
; #@! TA.AperFunction,Plated,PTH,ComponentDrill
T2C0.0394
; #@! TA.AperFunction,Plated,PTH,ComponentDrill
T3C0.0400
%
G90
G05
T1
X4.059Y-1.966
X4.06Y-2.438
X4.06Y-2.911
X4.061Y-1.021
X4.061Y-1.493
X4.061Y-3.384
X4.252Y-3.4921
X4.252Y-1.021
X4.531Y-1.966
X4.532Y-1.494
X4.532Y-2.438
X4.532Y-2.911
X4.533Y-1.021
X4.533Y-3.384
X4.7264Y-3.4941
X5.004Y-1.494
X5.005Y-1.965
X5.005Y-2.91
X5.006Y-1.021
X5.006Y-2.438
X5.006Y-3.383
X5.1949Y-3.4902
X5.477Y-1.494
X5.477Y-1.965
X5.477Y-2.91
X5.478Y-1.02
X5.478Y-2.438
X5.478Y-3.383
X5.949Y-1.021
X5.949Y-1.491
X5.949Y-2.435
X5.949Y-2.911
X5.949Y-3.382
X5.95Y-1.965
X6.1398Y-3.4941
X6.421Y-1.491
X6.421Y-2.435
X6.421Y-2.911
X6.421Y-3.382
X6.422Y-1.02
X6.423Y-1.966
X6.6142Y-3.4941
X6.8898Y-1.9409
X6.8917Y-2.4134
X6.895Y-1.021
X6.895Y-1.494
X6.895Y-2.91
X6.896Y-3.382
X7.0118Y-2.1201
X7.0118Y-2.5453
X7.0177Y-1.6496
T2
X4.9059Y-1.3551
X4.9059Y-1.7551
X5.6059Y-1.3551
X5.6059Y-1.7551
T3
X5.804Y-1.285
X5.804Y-1.385
X5.804Y-1.485
X5.804Y-1.585
X5.804Y-1.685
X5.804Y-1.785
X5.804Y-1.885
X5.804Y-1.985
X5.804Y-2.085
X5.804Y-2.185
X5.804Y-2.285
X5.804Y-2.385
X5.804Y-2.485
X5.804Y-2.585
X5.804Y-2.685
X6.704Y-1.285
X6.704Y-1.385
X6.704Y-1.485
X6.704Y-1.585
X6.704Y-1.685
X6.704Y-1.785
X6.704Y-1.885
X6.704Y-1.985
X6.704Y-2.085
X6.704Y-2.185
X6.704Y-2.285
X6.704Y-2.385
X6.704Y-2.485
X6.704Y-2.585
X6.704Y-2.685
M30
