G04 #@! TF.GenerationSoftware,KiCad,Pcbnew,8.0.1*
G04 #@! TF.CreationDate,2024-03-31T12:21:25+03:00*
G04 #@! TF.ProjectId,EVER,45564552-2e6b-4696-9361-645f70636258,rev?*
G04 #@! TF.SameCoordinates,Original*
G04 #@! TF.FileFunction,Copper,L2,Bot*
G04 #@! TF.FilePolarity,Positive*
%FSLAX46Y46*%
G04 Gerber Fmt 4.6, Leading zero omitted, Abs format (unit mm)*
G04 Created by KiCad (PCBNEW 8.0.1) date 2024-03-31 12:21:25*
%MOMM*%
%LPD*%
G01*
G04 APERTURE LIST*
G04 #@! TA.AperFunction,ComponentPad*
%ADD10R,1.524000X1.524000*%
G04 #@! TD*
G04 #@! TA.AperFunction,ComponentPad*
%ADD11C,1.524000*%
G04 #@! TD*
G04 #@! TA.AperFunction,ComponentPad*
%ADD12R,2.540000X2.540000*%
G04 #@! TD*
G04 #@! TA.AperFunction,ComponentPad*
%ADD13C,2.540000*%
G04 #@! TD*
G04 #@! TA.AperFunction,ViaPad*
%ADD14C,0.600000*%
G04 #@! TD*
G04 #@! TA.AperFunction,Conductor*
%ADD15C,0.200000*%
G04 #@! TD*
G04 APERTURE END LIST*
D10*
X170281600Y-32639000D03*
D11*
X170281600Y-35179000D03*
X170281600Y-37719000D03*
X170281600Y-40259000D03*
X170281600Y-42799000D03*
X170281600Y-45339000D03*
X170281600Y-47879000D03*
X170281600Y-50419000D03*
X170281600Y-52959000D03*
X170281600Y-55499000D03*
X170281600Y-58039000D03*
X170281600Y-60579000D03*
X170281600Y-63119000D03*
X170281600Y-65659000D03*
X170281600Y-68199000D03*
X147421600Y-32639000D03*
X147421600Y-35179000D03*
X147421600Y-37719000D03*
X147421600Y-40259000D03*
X147421600Y-42799000D03*
X147421600Y-45339000D03*
X147421600Y-47879000D03*
X147421600Y-50419000D03*
X147421600Y-52959000D03*
X147421600Y-55499000D03*
X147421600Y-58039000D03*
X147421600Y-60579000D03*
X147421600Y-63119000D03*
X147421600Y-65659000D03*
X147421600Y-68199000D03*
D12*
X142390000Y-34420000D03*
D13*
X142390000Y-44580000D03*
X124610000Y-44580000D03*
X124610000Y-34420000D03*
D14*
X168000000Y-88750000D03*
X178100000Y-64650000D03*
X155950000Y-88750000D03*
X178250000Y-41900000D03*
X178100000Y-53850000D03*
X131950000Y-88650000D03*
X108000000Y-88700000D03*
X120050000Y-88750000D03*
X108000800Y-25933400D03*
X175133000Y-37947600D03*
X127152400Y-61925200D03*
X175000000Y-49300000D03*
X103124000Y-73939400D03*
X163093400Y-73939400D03*
X139141200Y-25908000D03*
X151104600Y-61849000D03*
X115138200Y-25933400D03*
X139115800Y-49911000D03*
X151130000Y-49911000D03*
X163093400Y-61849000D03*
X163093400Y-37871400D03*
X175133000Y-73914000D03*
X127152400Y-85928200D03*
X127152400Y-25933400D03*
X103098600Y-49936400D03*
X127127000Y-49911000D03*
X163144200Y-49936400D03*
X175133000Y-25933400D03*
X163118800Y-25908000D03*
X127127000Y-73914000D03*
X163093400Y-85902800D03*
X103149400Y-85953600D03*
X115138200Y-85953600D03*
X115112800Y-73939400D03*
X139115800Y-37947600D03*
X103149400Y-25933400D03*
X115112800Y-37947600D03*
X103149400Y-37922200D03*
X151104600Y-73939400D03*
X175158400Y-85902800D03*
X115087400Y-49936400D03*
X151104600Y-37871400D03*
X151104600Y-85902800D03*
X115112800Y-61925200D03*
X175050000Y-61300000D03*
X103124000Y-61925200D03*
X139141200Y-85928200D03*
X139141200Y-61925200D03*
X139115800Y-73914000D03*
X127101600Y-37947600D03*
X151104600Y-25933400D03*
D15*
X110388400Y-28321000D02*
X108000800Y-25933400D01*
X170281600Y-28321000D02*
X110388400Y-28321000D01*
X172350000Y-30389400D02*
X170281600Y-28321000D01*
X172350000Y-49550000D02*
X172350000Y-30389400D01*
X171481000Y-50419000D02*
X172350000Y-49550000D01*
X170281600Y-50419000D02*
X171481000Y-50419000D01*
X142400000Y-39500000D02*
X142390000Y-39510000D01*
X147421600Y-33328400D02*
X142400000Y-38350000D01*
X142400000Y-38350000D02*
X142400000Y-39500000D01*
X147421600Y-32639000D02*
X147421600Y-33328400D01*
X142390000Y-39510000D02*
X142390000Y-44580000D01*
X145910000Y-30900000D02*
X142390000Y-34420000D01*
X168542600Y-30900000D02*
X145910000Y-30900000D01*
X170281600Y-32639000D02*
X168542600Y-30900000D01*
X124610000Y-44710000D02*
X135399000Y-55499000D01*
X161775000Y-73375000D02*
X161775000Y-71275000D01*
X155450000Y-75813372D02*
X151986628Y-75813372D01*
X159425000Y-88750000D02*
X161725000Y-86450000D01*
X178250000Y-41900000D02*
X178500000Y-42150000D01*
X159336628Y-75813372D02*
X161775000Y-73375000D01*
X108000000Y-88700000D02*
X120000000Y-88700000D01*
X120100000Y-88700000D02*
X131900000Y-88700000D01*
X178100000Y-65750000D02*
X178100000Y-64650000D01*
X178500000Y-42150000D02*
X178500000Y-53450000D01*
X157063372Y-75813372D02*
X155450000Y-75813372D01*
X131900000Y-88700000D02*
X131950000Y-88650000D01*
X163150000Y-69900000D02*
X173950000Y-69900000D01*
X147421600Y-73178400D02*
X131950000Y-88650000D01*
X178100000Y-53850000D02*
X178100000Y-64650000D01*
X178500000Y-53450000D02*
X178100000Y-53850000D01*
X161725000Y-83150000D02*
X161725000Y-86450000D01*
X155450000Y-75813372D02*
X159336628Y-75813372D01*
X147421600Y-71248344D02*
X147421600Y-68199000D01*
X167325000Y-88750000D02*
X161725000Y-83150000D01*
X161725000Y-86450000D02*
X161725000Y-82475000D01*
X147421600Y-68199000D02*
X147421600Y-73178400D01*
X161725000Y-82475000D02*
X161725000Y-80475000D01*
X168000000Y-88750000D02*
X167325000Y-88750000D01*
X120000000Y-88700000D02*
X120050000Y-88750000D01*
X173950000Y-69900000D02*
X178100000Y-65750000D01*
X151986628Y-75813372D02*
X147421600Y-71248344D01*
X161775000Y-71275000D02*
X163150000Y-69900000D01*
X120050000Y-88750000D02*
X120100000Y-88700000D01*
X161725000Y-80475000D02*
X157063372Y-75813372D01*
X155950000Y-88750000D02*
X159425000Y-88750000D01*
X124610000Y-44580000D02*
X124610000Y-44710000D01*
X135399000Y-55499000D02*
X147421600Y-55499000D01*
X170281600Y-55626000D02*
X170281600Y-55499000D01*
G04 #@! TA.AperFunction,Conductor*
G36*
X107745359Y-25293985D02*
G01*
X107791114Y-25346789D01*
X107801058Y-25415947D01*
X107772033Y-25479503D01*
X107745359Y-25502615D01*
X107669676Y-25551253D01*
X107669674Y-25551255D01*
X107575423Y-25660026D01*
X107575422Y-25660028D01*
X107515634Y-25790943D01*
X107495153Y-25933400D01*
X107515634Y-26075856D01*
X107575422Y-26206771D01*
X107575423Y-26206773D01*
X107669672Y-26315543D01*
X107790747Y-26393353D01*
X107790750Y-26393354D01*
X107790749Y-26393354D01*
X107897907Y-26424817D01*
X107926080Y-26433090D01*
X107928836Y-26433899D01*
X107928838Y-26433900D01*
X108024967Y-26433900D01*
X108092006Y-26453585D01*
X108112648Y-26470219D01*
X110147940Y-28505511D01*
X110203889Y-28561460D01*
X110203891Y-28561461D01*
X110203895Y-28561464D01*
X110272404Y-28601017D01*
X110272411Y-28601021D01*
X110348838Y-28621500D01*
X170105767Y-28621500D01*
X170172806Y-28641185D01*
X170193448Y-28657819D01*
X172013181Y-30477552D01*
X172046666Y-30538875D01*
X172049500Y-30565233D01*
X172049500Y-49374167D01*
X172029815Y-49441206D01*
X172013181Y-49461848D01*
X171392848Y-50082181D01*
X171331525Y-50115666D01*
X171305167Y-50118500D01*
X171286670Y-50118500D01*
X171219631Y-50098815D01*
X171177312Y-50052953D01*
X171085765Y-49881681D01*
X171085761Y-49881674D01*
X170965483Y-49735116D01*
X170818925Y-49614838D01*
X170818918Y-49614834D01*
X170651722Y-49525466D01*
X170651719Y-49525465D01*
X170651718Y-49525464D01*
X170651715Y-49525463D01*
X170470283Y-49470427D01*
X170470281Y-49470426D01*
X170470283Y-49470426D01*
X170281600Y-49451843D01*
X170092918Y-49470426D01*
X169985794Y-49502921D01*
X169911485Y-49525463D01*
X169911482Y-49525464D01*
X169911480Y-49525465D01*
X169911477Y-49525466D01*
X169744281Y-49614834D01*
X169744274Y-49614838D01*
X169597716Y-49735116D01*
X169477438Y-49881674D01*
X169477434Y-49881681D01*
X169388066Y-50048877D01*
X169388065Y-50048880D01*
X169388064Y-50048882D01*
X169388063Y-50048885D01*
X169366946Y-50118500D01*
X169333026Y-50230318D01*
X169314443Y-50419000D01*
X169333026Y-50607681D01*
X169348733Y-50659460D01*
X169388063Y-50789115D01*
X169388064Y-50789118D01*
X169388065Y-50789119D01*
X169388066Y-50789122D01*
X169477434Y-50956318D01*
X169477438Y-50956325D01*
X169597716Y-51102883D01*
X169744274Y-51223161D01*
X169744281Y-51223165D01*
X169911477Y-51312533D01*
X169911478Y-51312533D01*
X169911485Y-51312537D01*
X170092917Y-51367573D01*
X170092916Y-51367573D01*
X170109833Y-51369239D01*
X170281600Y-51386157D01*
X170470283Y-51367573D01*
X170651715Y-51312537D01*
X170818924Y-51223162D01*
X170965483Y-51102883D01*
X171085762Y-50956324D01*
X171108952Y-50912938D01*
X171177312Y-50785047D01*
X171226274Y-50735203D01*
X171286670Y-50719500D01*
X171520560Y-50719500D01*
X171520562Y-50719500D01*
X171596989Y-50699021D01*
X171665511Y-50659460D01*
X171721460Y-50603511D01*
X172590460Y-49734511D01*
X172630022Y-49665988D01*
X172650500Y-49589562D01*
X172650500Y-49510438D01*
X172650500Y-30349838D01*
X172630021Y-30273411D01*
X172630017Y-30273404D01*
X172590464Y-30204895D01*
X172590458Y-30204887D01*
X170466112Y-28080541D01*
X170466104Y-28080535D01*
X170397595Y-28040982D01*
X170397590Y-28040979D01*
X170372113Y-28034152D01*
X170321162Y-28020500D01*
X170321160Y-28020500D01*
X110564233Y-28020500D01*
X110497194Y-28000815D01*
X110476552Y-27984181D01*
X108540195Y-26047824D01*
X108506710Y-25986501D01*
X108505139Y-25942494D01*
X108506447Y-25933400D01*
X108485965Y-25790943D01*
X108426177Y-25660027D01*
X108331928Y-25551257D01*
X108331925Y-25551255D01*
X108331923Y-25551253D01*
X108256241Y-25502615D01*
X108210486Y-25449811D01*
X108200542Y-25380653D01*
X108229567Y-25317097D01*
X108288345Y-25279323D01*
X108323280Y-25274300D01*
X179778958Y-25274300D01*
X179845997Y-25293985D01*
X179866639Y-25310619D01*
X179971781Y-25415761D01*
X180005266Y-25477084D01*
X180008100Y-25503442D01*
X180008100Y-89684758D01*
X179988415Y-89751797D01*
X179971781Y-89772439D01*
X179866639Y-89877581D01*
X179805316Y-89911066D01*
X179778958Y-89913900D01*
X101404842Y-89913900D01*
X101337803Y-89894215D01*
X101317161Y-89877581D01*
X101212019Y-89772439D01*
X101178534Y-89711116D01*
X101175700Y-89684758D01*
X101175700Y-88700000D01*
X107494353Y-88700000D01*
X107514834Y-88842456D01*
X107556875Y-88934511D01*
X107574623Y-88973373D01*
X107668872Y-89082143D01*
X107789947Y-89159953D01*
X107789950Y-89159954D01*
X107789949Y-89159954D01*
X107928036Y-89200499D01*
X107928038Y-89200500D01*
X107928039Y-89200500D01*
X108071962Y-89200500D01*
X108071962Y-89200499D01*
X108210053Y-89159953D01*
X108331128Y-89082143D01*
X108364788Y-89043296D01*
X108423567Y-89005523D01*
X108458501Y-89000500D01*
X119548174Y-89000500D01*
X119615213Y-89020185D01*
X119641887Y-89043297D01*
X119718872Y-89132143D01*
X119839947Y-89209953D01*
X119839950Y-89209954D01*
X119839949Y-89209954D01*
X119978036Y-89250499D01*
X119978038Y-89250500D01*
X119978039Y-89250500D01*
X120121962Y-89250500D01*
X120121962Y-89250499D01*
X120260053Y-89209953D01*
X120381128Y-89132143D01*
X120458113Y-89043297D01*
X120516891Y-89005523D01*
X120551826Y-89000500D01*
X131536105Y-89000500D01*
X131603144Y-89020185D01*
X131617312Y-89030790D01*
X131618866Y-89032137D01*
X131618872Y-89032143D01*
X131739947Y-89109953D01*
X131739950Y-89109954D01*
X131739949Y-89109954D01*
X131878036Y-89150499D01*
X131878038Y-89150500D01*
X131878039Y-89150500D01*
X132021962Y-89150500D01*
X132021962Y-89150499D01*
X132160053Y-89109953D01*
X132281128Y-89032143D01*
X132375377Y-88923373D01*
X132435165Y-88792457D01*
X132455647Y-88650000D01*
X132454339Y-88640905D01*
X132464279Y-88571749D01*
X132489392Y-88535577D01*
X147662060Y-73362911D01*
X147701622Y-73294388D01*
X147722100Y-73217962D01*
X147722100Y-73138838D01*
X147722100Y-72273177D01*
X147741785Y-72206138D01*
X147794589Y-72160383D01*
X147863747Y-72150439D01*
X147927303Y-72179464D01*
X147933781Y-72185496D01*
X151802117Y-76053832D01*
X151861457Y-76088092D01*
X151870636Y-76093392D01*
X151870640Y-76093394D01*
X151947066Y-76113872D01*
X152026190Y-76113872D01*
X155410438Y-76113872D01*
X156887539Y-76113872D01*
X156954578Y-76133557D01*
X156975220Y-76150191D01*
X161388181Y-80563152D01*
X161421666Y-80624475D01*
X161424500Y-80650833D01*
X161424500Y-86274167D01*
X161404815Y-86341206D01*
X161388181Y-86361848D01*
X159336848Y-88413181D01*
X159275525Y-88446666D01*
X159249167Y-88449500D01*
X156408501Y-88449500D01*
X156341462Y-88429815D01*
X156314788Y-88406703D01*
X156281128Y-88367857D01*
X156160053Y-88290047D01*
X156160051Y-88290046D01*
X156160049Y-88290045D01*
X156160050Y-88290045D01*
X156021963Y-88249500D01*
X156021961Y-88249500D01*
X155878039Y-88249500D01*
X155878036Y-88249500D01*
X155739949Y-88290045D01*
X155618873Y-88367856D01*
X155618872Y-88367856D01*
X155618872Y-88367857D01*
X155615218Y-88372074D01*
X155524623Y-88476626D01*
X155524622Y-88476628D01*
X155464834Y-88607543D01*
X155444353Y-88750000D01*
X155464834Y-88892456D01*
X155509591Y-88990458D01*
X155524623Y-89023373D01*
X155618872Y-89132143D01*
X155739947Y-89209953D01*
X155739950Y-89209954D01*
X155739949Y-89209954D01*
X155878036Y-89250499D01*
X155878038Y-89250500D01*
X155878039Y-89250500D01*
X156021962Y-89250500D01*
X156021962Y-89250499D01*
X156160053Y-89209953D01*
X156281128Y-89132143D01*
X156314788Y-89093296D01*
X156373567Y-89055523D01*
X156408501Y-89050500D01*
X159464560Y-89050500D01*
X159464562Y-89050500D01*
X159540989Y-89030021D01*
X159609511Y-88990460D01*
X159665460Y-88934511D01*
X161965460Y-86634511D01*
X162005021Y-86565989D01*
X162025500Y-86489562D01*
X162025500Y-84174833D01*
X162045185Y-84107794D01*
X162097989Y-84062039D01*
X162167147Y-84052095D01*
X162230703Y-84081120D01*
X162237181Y-84087152D01*
X167084540Y-88934511D01*
X167140489Y-88990460D01*
X167140491Y-88990461D01*
X167140495Y-88990464D01*
X167191974Y-89020185D01*
X167209011Y-89030021D01*
X167285438Y-89050500D01*
X167541499Y-89050500D01*
X167608538Y-89070185D01*
X167635211Y-89093296D01*
X167668872Y-89132143D01*
X167789947Y-89209953D01*
X167789950Y-89209954D01*
X167789949Y-89209954D01*
X167928036Y-89250499D01*
X167928038Y-89250500D01*
X167928039Y-89250500D01*
X168071962Y-89250500D01*
X168071962Y-89250499D01*
X168210053Y-89209953D01*
X168331128Y-89132143D01*
X168425377Y-89023373D01*
X168485165Y-88892457D01*
X168505647Y-88750000D01*
X168485165Y-88607543D01*
X168425377Y-88476627D01*
X168331128Y-88367857D01*
X168210053Y-88290047D01*
X168210051Y-88290046D01*
X168210049Y-88290045D01*
X168210050Y-88290045D01*
X168071963Y-88249500D01*
X168071961Y-88249500D01*
X167928039Y-88249500D01*
X167928036Y-88249500D01*
X167789949Y-88290045D01*
X167668873Y-88367856D01*
X167668872Y-88367856D01*
X167668872Y-88367857D01*
X167658511Y-88379815D01*
X167635212Y-88406703D01*
X167576433Y-88444477D01*
X167541499Y-88449500D01*
X167500833Y-88449500D01*
X167433794Y-88429815D01*
X167413152Y-88413181D01*
X162061819Y-83061848D01*
X162028334Y-83000525D01*
X162025500Y-82974167D01*
X162025500Y-80435440D01*
X162025500Y-80435438D01*
X162005022Y-80359012D01*
X161965460Y-80290489D01*
X158000524Y-76325553D01*
X157967039Y-76264230D01*
X157972023Y-76194538D01*
X158013895Y-76138605D01*
X158079359Y-76114188D01*
X158088205Y-76113872D01*
X159376188Y-76113872D01*
X159376190Y-76113872D01*
X159452617Y-76093393D01*
X159521139Y-76053832D01*
X159577088Y-75997883D01*
X162015460Y-73559511D01*
X162055022Y-73490988D01*
X162075500Y-73414562D01*
X162075500Y-73335438D01*
X162075500Y-71450833D01*
X162095185Y-71383794D01*
X162111819Y-71363152D01*
X163238152Y-70236819D01*
X163299475Y-70203334D01*
X163325833Y-70200500D01*
X173989560Y-70200500D01*
X173989562Y-70200500D01*
X174065989Y-70180021D01*
X174134511Y-70140460D01*
X174190460Y-70084511D01*
X178340460Y-65934511D01*
X178380021Y-65865989D01*
X178400500Y-65789562D01*
X178400500Y-65113738D01*
X178420185Y-65046699D01*
X178430787Y-65032535D01*
X178431124Y-65032144D01*
X178431128Y-65032143D01*
X178525377Y-64923373D01*
X178585165Y-64792457D01*
X178605647Y-64650000D01*
X178585165Y-64507543D01*
X178525377Y-64376627D01*
X178525375Y-64376625D01*
X178525374Y-64376622D01*
X178430787Y-64267462D01*
X178401762Y-64203906D01*
X178400500Y-64186260D01*
X178400500Y-54313738D01*
X178420185Y-54246699D01*
X178430787Y-54232535D01*
X178431124Y-54232144D01*
X178431128Y-54232143D01*
X178525377Y-54123373D01*
X178585165Y-53992457D01*
X178605647Y-53850000D01*
X178604339Y-53840906D01*
X178614279Y-53771750D01*
X178639392Y-53735578D01*
X178740460Y-53634511D01*
X178752879Y-53613000D01*
X178777713Y-53569987D01*
X178777716Y-53569981D01*
X178777988Y-53569508D01*
X178780021Y-53565989D01*
X178800500Y-53489562D01*
X178800500Y-42110438D01*
X178780021Y-42034011D01*
X178766539Y-42010660D01*
X178750065Y-41942763D01*
X178751188Y-41931009D01*
X178755647Y-41900001D01*
X178748519Y-41850427D01*
X178735165Y-41757543D01*
X178675377Y-41626627D01*
X178581128Y-41517857D01*
X178460053Y-41440047D01*
X178460051Y-41440046D01*
X178460049Y-41440045D01*
X178460050Y-41440045D01*
X178321963Y-41399500D01*
X178321961Y-41399500D01*
X178178039Y-41399500D01*
X178178036Y-41399500D01*
X178039949Y-41440045D01*
X177918873Y-41517856D01*
X177824623Y-41626626D01*
X177824622Y-41626628D01*
X177764834Y-41757543D01*
X177744353Y-41900000D01*
X177764834Y-42042456D01*
X177798018Y-42115117D01*
X177824623Y-42173373D01*
X177918872Y-42282143D01*
X178039947Y-42359953D01*
X178039950Y-42359954D01*
X178039949Y-42359954D01*
X178110434Y-42380650D01*
X178169212Y-42418424D01*
X178198238Y-42481979D01*
X178199500Y-42499627D01*
X178199500Y-53225500D01*
X178179815Y-53292539D01*
X178127011Y-53338294D01*
X178075500Y-53349500D01*
X178028036Y-53349500D01*
X177889949Y-53390045D01*
X177768873Y-53467856D01*
X177674623Y-53576626D01*
X177674622Y-53576628D01*
X177614834Y-53707543D01*
X177594353Y-53850000D01*
X177614834Y-53992456D01*
X177674622Y-54123371D01*
X177674623Y-54123373D01*
X177768872Y-54232143D01*
X177768875Y-54232144D01*
X177769213Y-54232535D01*
X177798238Y-54296091D01*
X177799500Y-54313738D01*
X177799500Y-64186260D01*
X177779815Y-64253299D01*
X177769213Y-64267462D01*
X177674625Y-64376622D01*
X177674622Y-64376628D01*
X177614834Y-64507543D01*
X177594353Y-64650000D01*
X177614834Y-64792456D01*
X177674622Y-64923371D01*
X177674623Y-64923373D01*
X177768872Y-65032143D01*
X177768875Y-65032144D01*
X177769213Y-65032535D01*
X177798238Y-65096091D01*
X177799500Y-65113738D01*
X177799500Y-65574167D01*
X177779815Y-65641206D01*
X177763181Y-65661848D01*
X173861848Y-69563181D01*
X173800525Y-69596666D01*
X173774167Y-69599500D01*
X163110438Y-69599500D01*
X163034010Y-69619978D01*
X162965489Y-69659540D01*
X162965486Y-69659542D01*
X161534541Y-71090487D01*
X161534535Y-71090495D01*
X161494982Y-71159004D01*
X161494979Y-71159009D01*
X161474500Y-71235439D01*
X161474500Y-73199167D01*
X161454815Y-73266206D01*
X161438181Y-73286848D01*
X159248476Y-75476553D01*
X159187153Y-75510038D01*
X159160795Y-75512872D01*
X152162461Y-75512872D01*
X152095422Y-75493187D01*
X152074780Y-75476553D01*
X147758419Y-71160192D01*
X147724934Y-71098869D01*
X147722100Y-71072511D01*
X147722100Y-69204070D01*
X147741785Y-69137031D01*
X147787647Y-69094712D01*
X147958918Y-69003165D01*
X147958924Y-69003162D01*
X148105483Y-68882883D01*
X148225762Y-68736324D01*
X148315137Y-68569115D01*
X148370173Y-68387683D01*
X148388757Y-68199000D01*
X169314443Y-68199000D01*
X169333026Y-68387681D01*
X169333027Y-68387683D01*
X169388063Y-68569115D01*
X169388064Y-68569118D01*
X169388065Y-68569119D01*
X169388066Y-68569122D01*
X169477434Y-68736318D01*
X169477438Y-68736325D01*
X169597716Y-68882883D01*
X169744274Y-69003161D01*
X169744281Y-69003165D01*
X169911477Y-69092533D01*
X169911478Y-69092533D01*
X169911485Y-69092537D01*
X170092917Y-69147573D01*
X170092916Y-69147573D01*
X170109833Y-69149239D01*
X170281600Y-69166157D01*
X170470283Y-69147573D01*
X170651715Y-69092537D01*
X170818924Y-69003162D01*
X170965483Y-68882883D01*
X171085762Y-68736324D01*
X171175137Y-68569115D01*
X171230173Y-68387683D01*
X171248757Y-68199000D01*
X171230173Y-68010317D01*
X171175137Y-67828885D01*
X171085762Y-67661676D01*
X171085761Y-67661674D01*
X170965483Y-67515116D01*
X170818925Y-67394838D01*
X170818918Y-67394834D01*
X170651722Y-67305466D01*
X170651719Y-67305465D01*
X170651718Y-67305464D01*
X170651715Y-67305463D01*
X170470283Y-67250427D01*
X170470281Y-67250426D01*
X170470283Y-67250426D01*
X170281600Y-67231843D01*
X170092918Y-67250426D01*
X169985794Y-67282921D01*
X169911485Y-67305463D01*
X169911482Y-67305464D01*
X169911480Y-67305465D01*
X169911477Y-67305466D01*
X169744281Y-67394834D01*
X169744274Y-67394838D01*
X169597716Y-67515116D01*
X169477438Y-67661674D01*
X169477434Y-67661681D01*
X169388066Y-67828877D01*
X169388065Y-67828880D01*
X169333026Y-68010318D01*
X169314443Y-68199000D01*
X148388757Y-68199000D01*
X148370173Y-68010317D01*
X148315137Y-67828885D01*
X148225762Y-67661676D01*
X148225761Y-67661674D01*
X148105483Y-67515116D01*
X147958925Y-67394838D01*
X147958918Y-67394834D01*
X147791722Y-67305466D01*
X147791719Y-67305465D01*
X147791718Y-67305464D01*
X147791715Y-67305463D01*
X147610283Y-67250427D01*
X147610281Y-67250426D01*
X147610283Y-67250426D01*
X147421600Y-67231843D01*
X147232918Y-67250426D01*
X147125794Y-67282921D01*
X147051485Y-67305463D01*
X147051482Y-67305464D01*
X147051480Y-67305465D01*
X147051477Y-67305466D01*
X146884281Y-67394834D01*
X146884274Y-67394838D01*
X146737716Y-67515116D01*
X146617438Y-67661674D01*
X146617434Y-67661681D01*
X146528066Y-67828877D01*
X146528065Y-67828880D01*
X146473026Y-68010318D01*
X146454443Y-68199000D01*
X146473026Y-68387681D01*
X146473027Y-68387683D01*
X146528063Y-68569115D01*
X146528064Y-68569118D01*
X146528065Y-68569119D01*
X146528066Y-68569122D01*
X146617434Y-68736318D01*
X146617438Y-68736325D01*
X146737716Y-68882883D01*
X146884274Y-69003161D01*
X146884281Y-69003165D01*
X147055553Y-69094712D01*
X147105397Y-69143674D01*
X147121100Y-69204070D01*
X147121100Y-73002566D01*
X147101415Y-73069605D01*
X147084781Y-73090247D01*
X132061847Y-88113181D01*
X132000524Y-88146666D01*
X131974166Y-88149500D01*
X131878036Y-88149500D01*
X131739949Y-88190045D01*
X131618873Y-88267856D01*
X131541887Y-88356703D01*
X131483109Y-88394477D01*
X131448174Y-88399500D01*
X120463895Y-88399500D01*
X120396856Y-88379815D01*
X120382688Y-88369210D01*
X120381132Y-88367862D01*
X120381128Y-88367857D01*
X120260053Y-88290047D01*
X120260051Y-88290046D01*
X120260049Y-88290045D01*
X120260050Y-88290045D01*
X120121963Y-88249500D01*
X120121961Y-88249500D01*
X119978039Y-88249500D01*
X119978036Y-88249500D01*
X119839949Y-88290045D01*
X119718876Y-88367854D01*
X119718874Y-88367855D01*
X119718872Y-88367857D01*
X119718870Y-88367858D01*
X119717312Y-88369210D01*
X119715427Y-88370070D01*
X119711411Y-88372652D01*
X119711039Y-88372074D01*
X119653757Y-88398237D01*
X119636105Y-88399500D01*
X108458501Y-88399500D01*
X108391462Y-88379815D01*
X108364788Y-88356703D01*
X108331128Y-88317857D01*
X108210053Y-88240047D01*
X108210051Y-88240046D01*
X108210049Y-88240045D01*
X108210050Y-88240045D01*
X108071963Y-88199500D01*
X108071961Y-88199500D01*
X107928039Y-88199500D01*
X107928036Y-88199500D01*
X107789949Y-88240045D01*
X107668873Y-88317856D01*
X107574623Y-88426626D01*
X107574622Y-88426628D01*
X107514834Y-88557543D01*
X107494353Y-88700000D01*
X101175700Y-88700000D01*
X101175700Y-65659000D01*
X146454443Y-65659000D01*
X146473026Y-65847681D01*
X146473027Y-65847683D01*
X146528063Y-66029115D01*
X146528064Y-66029118D01*
X146528065Y-66029119D01*
X146528066Y-66029122D01*
X146617434Y-66196318D01*
X146617438Y-66196325D01*
X146737716Y-66342883D01*
X146884274Y-66463161D01*
X146884281Y-66463165D01*
X147051477Y-66552533D01*
X147051478Y-66552533D01*
X147051485Y-66552537D01*
X147232917Y-66607573D01*
X147232916Y-66607573D01*
X147249833Y-66609239D01*
X147421600Y-66626157D01*
X147610283Y-66607573D01*
X147791715Y-66552537D01*
X147958924Y-66463162D01*
X148105483Y-66342883D01*
X148225762Y-66196324D01*
X148315137Y-66029115D01*
X148370173Y-65847683D01*
X148388757Y-65659000D01*
X169314443Y-65659000D01*
X169333026Y-65847681D01*
X169333027Y-65847683D01*
X169388063Y-66029115D01*
X169388064Y-66029118D01*
X169388065Y-66029119D01*
X169388066Y-66029122D01*
X169477434Y-66196318D01*
X169477438Y-66196325D01*
X169597716Y-66342883D01*
X169744274Y-66463161D01*
X169744281Y-66463165D01*
X169911477Y-66552533D01*
X169911478Y-66552533D01*
X169911485Y-66552537D01*
X170092917Y-66607573D01*
X170092916Y-66607573D01*
X170109833Y-66609239D01*
X170281600Y-66626157D01*
X170470283Y-66607573D01*
X170651715Y-66552537D01*
X170818924Y-66463162D01*
X170965483Y-66342883D01*
X171085762Y-66196324D01*
X171175137Y-66029115D01*
X171230173Y-65847683D01*
X171248757Y-65659000D01*
X171230173Y-65470317D01*
X171175137Y-65288885D01*
X171085762Y-65121676D01*
X171085761Y-65121674D01*
X170965483Y-64975116D01*
X170818925Y-64854838D01*
X170818918Y-64854834D01*
X170651722Y-64765466D01*
X170651719Y-64765465D01*
X170651718Y-64765464D01*
X170651715Y-64765463D01*
X170470283Y-64710427D01*
X170470281Y-64710426D01*
X170470283Y-64710426D01*
X170281600Y-64691843D01*
X170092918Y-64710426D01*
X169985794Y-64742921D01*
X169911485Y-64765463D01*
X169911482Y-64765464D01*
X169911480Y-64765465D01*
X169911477Y-64765466D01*
X169744281Y-64854834D01*
X169744274Y-64854838D01*
X169597716Y-64975116D01*
X169477438Y-65121674D01*
X169477434Y-65121681D01*
X169388066Y-65288877D01*
X169388065Y-65288880D01*
X169333026Y-65470318D01*
X169314443Y-65659000D01*
X148388757Y-65659000D01*
X148370173Y-65470317D01*
X148315137Y-65288885D01*
X148225762Y-65121676D01*
X148225761Y-65121674D01*
X148105483Y-64975116D01*
X147958925Y-64854838D01*
X147958918Y-64854834D01*
X147791722Y-64765466D01*
X147791719Y-64765465D01*
X147791718Y-64765464D01*
X147791715Y-64765463D01*
X147610283Y-64710427D01*
X147610281Y-64710426D01*
X147610283Y-64710426D01*
X147421600Y-64691843D01*
X147232918Y-64710426D01*
X147125794Y-64742921D01*
X147051485Y-64765463D01*
X147051482Y-64765464D01*
X147051480Y-64765465D01*
X147051477Y-64765466D01*
X146884281Y-64854834D01*
X146884274Y-64854838D01*
X146737716Y-64975116D01*
X146617438Y-65121674D01*
X146617434Y-65121681D01*
X146528066Y-65288877D01*
X146528065Y-65288880D01*
X146473026Y-65470318D01*
X146454443Y-65659000D01*
X101175700Y-65659000D01*
X101175700Y-63119000D01*
X146454443Y-63119000D01*
X146473026Y-63307681D01*
X146473027Y-63307683D01*
X146528063Y-63489115D01*
X146528064Y-63489118D01*
X146528065Y-63489119D01*
X146528066Y-63489122D01*
X146617434Y-63656318D01*
X146617438Y-63656325D01*
X146737716Y-63802883D01*
X146884274Y-63923161D01*
X146884281Y-63923165D01*
X147051477Y-64012533D01*
X147051478Y-64012533D01*
X147051485Y-64012537D01*
X147232917Y-64067573D01*
X147232916Y-64067573D01*
X147249833Y-64069239D01*
X147421600Y-64086157D01*
X147610283Y-64067573D01*
X147791715Y-64012537D01*
X147958924Y-63923162D01*
X148105483Y-63802883D01*
X148225762Y-63656324D01*
X148315137Y-63489115D01*
X148370173Y-63307683D01*
X148388757Y-63119000D01*
X169314443Y-63119000D01*
X169333026Y-63307681D01*
X169333027Y-63307683D01*
X169388063Y-63489115D01*
X169388064Y-63489118D01*
X169388065Y-63489119D01*
X169388066Y-63489122D01*
X169477434Y-63656318D01*
X169477438Y-63656325D01*
X169597716Y-63802883D01*
X169744274Y-63923161D01*
X169744281Y-63923165D01*
X169911477Y-64012533D01*
X169911478Y-64012533D01*
X169911485Y-64012537D01*
X170092917Y-64067573D01*
X170092916Y-64067573D01*
X170109833Y-64069239D01*
X170281600Y-64086157D01*
X170470283Y-64067573D01*
X170651715Y-64012537D01*
X170818924Y-63923162D01*
X170965483Y-63802883D01*
X171085762Y-63656324D01*
X171175137Y-63489115D01*
X171230173Y-63307683D01*
X171248757Y-63119000D01*
X171230173Y-62930317D01*
X171175137Y-62748885D01*
X171085762Y-62581676D01*
X171085761Y-62581674D01*
X170965483Y-62435116D01*
X170818925Y-62314838D01*
X170818918Y-62314834D01*
X170651722Y-62225466D01*
X170651719Y-62225465D01*
X170651718Y-62225464D01*
X170651715Y-62225463D01*
X170470283Y-62170427D01*
X170470281Y-62170426D01*
X170470283Y-62170426D01*
X170281600Y-62151843D01*
X170092918Y-62170426D01*
X169985794Y-62202921D01*
X169911485Y-62225463D01*
X169911482Y-62225464D01*
X169911480Y-62225465D01*
X169911477Y-62225466D01*
X169744281Y-62314834D01*
X169744274Y-62314838D01*
X169597716Y-62435116D01*
X169477438Y-62581674D01*
X169477434Y-62581681D01*
X169388066Y-62748877D01*
X169388065Y-62748880D01*
X169333026Y-62930318D01*
X169314443Y-63119000D01*
X148388757Y-63119000D01*
X148370173Y-62930317D01*
X148315137Y-62748885D01*
X148225762Y-62581676D01*
X148225761Y-62581674D01*
X148105483Y-62435116D01*
X147958925Y-62314838D01*
X147958918Y-62314834D01*
X147791722Y-62225466D01*
X147791719Y-62225465D01*
X147791718Y-62225464D01*
X147791715Y-62225463D01*
X147610283Y-62170427D01*
X147610281Y-62170426D01*
X147610283Y-62170426D01*
X147421600Y-62151843D01*
X147232918Y-62170426D01*
X147125794Y-62202921D01*
X147051485Y-62225463D01*
X147051482Y-62225464D01*
X147051480Y-62225465D01*
X147051477Y-62225466D01*
X146884281Y-62314834D01*
X146884274Y-62314838D01*
X146737716Y-62435116D01*
X146617438Y-62581674D01*
X146617434Y-62581681D01*
X146528066Y-62748877D01*
X146528065Y-62748880D01*
X146473026Y-62930318D01*
X146454443Y-63119000D01*
X101175700Y-63119000D01*
X101175700Y-60579000D01*
X146454443Y-60579000D01*
X146473026Y-60767681D01*
X146473027Y-60767683D01*
X146528063Y-60949115D01*
X146528064Y-60949118D01*
X146528065Y-60949119D01*
X146528066Y-60949122D01*
X146617434Y-61116318D01*
X146617438Y-61116325D01*
X146737716Y-61262883D01*
X146884274Y-61383161D01*
X146884281Y-61383165D01*
X147051477Y-61472533D01*
X147051478Y-61472533D01*
X147051485Y-61472537D01*
X147232917Y-61527573D01*
X147232916Y-61527573D01*
X147249833Y-61529239D01*
X147421600Y-61546157D01*
X147610283Y-61527573D01*
X147791715Y-61472537D01*
X147958924Y-61383162D01*
X148105483Y-61262883D01*
X148225762Y-61116324D01*
X148315137Y-60949115D01*
X148370173Y-60767683D01*
X148388757Y-60579000D01*
X169314443Y-60579000D01*
X169333026Y-60767681D01*
X169333027Y-60767683D01*
X169388063Y-60949115D01*
X169388064Y-60949118D01*
X169388065Y-60949119D01*
X169388066Y-60949122D01*
X169477434Y-61116318D01*
X169477438Y-61116325D01*
X169597716Y-61262883D01*
X169744274Y-61383161D01*
X169744281Y-61383165D01*
X169911477Y-61472533D01*
X169911478Y-61472533D01*
X169911485Y-61472537D01*
X170092917Y-61527573D01*
X170092916Y-61527573D01*
X170109833Y-61529239D01*
X170281600Y-61546157D01*
X170470283Y-61527573D01*
X170651715Y-61472537D01*
X170818924Y-61383162D01*
X170965483Y-61262883D01*
X171085762Y-61116324D01*
X171175137Y-60949115D01*
X171230173Y-60767683D01*
X171248757Y-60579000D01*
X171230173Y-60390317D01*
X171175137Y-60208885D01*
X171085762Y-60041676D01*
X171085761Y-60041674D01*
X170965483Y-59895116D01*
X170818925Y-59774838D01*
X170818918Y-59774834D01*
X170651722Y-59685466D01*
X170651719Y-59685465D01*
X170651718Y-59685464D01*
X170651715Y-59685463D01*
X170470283Y-59630427D01*
X170470281Y-59630426D01*
X170470283Y-59630426D01*
X170281600Y-59611843D01*
X170092918Y-59630426D01*
X169985794Y-59662921D01*
X169911485Y-59685463D01*
X169911482Y-59685464D01*
X169911480Y-59685465D01*
X169911477Y-59685466D01*
X169744281Y-59774834D01*
X169744274Y-59774838D01*
X169597716Y-59895116D01*
X169477438Y-60041674D01*
X169477434Y-60041681D01*
X169388066Y-60208877D01*
X169388065Y-60208880D01*
X169333026Y-60390318D01*
X169314443Y-60579000D01*
X148388757Y-60579000D01*
X148370173Y-60390317D01*
X148315137Y-60208885D01*
X148225762Y-60041676D01*
X148225761Y-60041674D01*
X148105483Y-59895116D01*
X147958925Y-59774838D01*
X147958918Y-59774834D01*
X147791722Y-59685466D01*
X147791719Y-59685465D01*
X147791718Y-59685464D01*
X147791715Y-59685463D01*
X147610283Y-59630427D01*
X147610281Y-59630426D01*
X147610283Y-59630426D01*
X147421600Y-59611843D01*
X147232918Y-59630426D01*
X147125794Y-59662921D01*
X147051485Y-59685463D01*
X147051482Y-59685464D01*
X147051480Y-59685465D01*
X147051477Y-59685466D01*
X146884281Y-59774834D01*
X146884274Y-59774838D01*
X146737716Y-59895116D01*
X146617438Y-60041674D01*
X146617434Y-60041681D01*
X146528066Y-60208877D01*
X146528065Y-60208880D01*
X146473026Y-60390318D01*
X146454443Y-60579000D01*
X101175700Y-60579000D01*
X101175700Y-58039000D01*
X146454443Y-58039000D01*
X146473026Y-58227681D01*
X146473027Y-58227683D01*
X146528063Y-58409115D01*
X146528064Y-58409118D01*
X146528065Y-58409119D01*
X146528066Y-58409122D01*
X146617434Y-58576318D01*
X146617438Y-58576325D01*
X146737716Y-58722883D01*
X146884274Y-58843161D01*
X146884281Y-58843165D01*
X147051477Y-58932533D01*
X147051478Y-58932533D01*
X147051485Y-58932537D01*
X147232917Y-58987573D01*
X147232916Y-58987573D01*
X147249833Y-58989239D01*
X147421600Y-59006157D01*
X147610283Y-58987573D01*
X147791715Y-58932537D01*
X147958924Y-58843162D01*
X148105483Y-58722883D01*
X148225762Y-58576324D01*
X148315137Y-58409115D01*
X148370173Y-58227683D01*
X148388757Y-58039000D01*
X169314443Y-58039000D01*
X169333026Y-58227681D01*
X169333027Y-58227683D01*
X169388063Y-58409115D01*
X169388064Y-58409118D01*
X169388065Y-58409119D01*
X169388066Y-58409122D01*
X169477434Y-58576318D01*
X169477438Y-58576325D01*
X169597716Y-58722883D01*
X169744274Y-58843161D01*
X169744281Y-58843165D01*
X169911477Y-58932533D01*
X169911478Y-58932533D01*
X169911485Y-58932537D01*
X170092917Y-58987573D01*
X170092916Y-58987573D01*
X170109833Y-58989239D01*
X170281600Y-59006157D01*
X170470283Y-58987573D01*
X170651715Y-58932537D01*
X170818924Y-58843162D01*
X170965483Y-58722883D01*
X171085762Y-58576324D01*
X171175137Y-58409115D01*
X171230173Y-58227683D01*
X171248757Y-58039000D01*
X171230173Y-57850317D01*
X171175137Y-57668885D01*
X171085762Y-57501676D01*
X171085761Y-57501674D01*
X170965483Y-57355116D01*
X170818925Y-57234838D01*
X170818918Y-57234834D01*
X170651722Y-57145466D01*
X170651719Y-57145465D01*
X170651718Y-57145464D01*
X170651715Y-57145463D01*
X170470283Y-57090427D01*
X170470281Y-57090426D01*
X170470283Y-57090426D01*
X170281600Y-57071843D01*
X170092918Y-57090426D01*
X169985794Y-57122921D01*
X169911485Y-57145463D01*
X169911482Y-57145464D01*
X169911480Y-57145465D01*
X169911477Y-57145466D01*
X169744281Y-57234834D01*
X169744274Y-57234838D01*
X169597716Y-57355116D01*
X169477438Y-57501674D01*
X169477434Y-57501681D01*
X169388066Y-57668877D01*
X169388065Y-57668880D01*
X169333026Y-57850318D01*
X169314443Y-58039000D01*
X148388757Y-58039000D01*
X148370173Y-57850317D01*
X148315137Y-57668885D01*
X148225762Y-57501676D01*
X148225761Y-57501674D01*
X148105483Y-57355116D01*
X147958925Y-57234838D01*
X147958918Y-57234834D01*
X147791722Y-57145466D01*
X147791719Y-57145465D01*
X147791718Y-57145464D01*
X147791715Y-57145463D01*
X147610283Y-57090427D01*
X147610281Y-57090426D01*
X147610283Y-57090426D01*
X147421600Y-57071843D01*
X147232918Y-57090426D01*
X147125794Y-57122921D01*
X147051485Y-57145463D01*
X147051482Y-57145464D01*
X147051480Y-57145465D01*
X147051477Y-57145466D01*
X146884281Y-57234834D01*
X146884274Y-57234838D01*
X146737716Y-57355116D01*
X146617438Y-57501674D01*
X146617434Y-57501681D01*
X146528066Y-57668877D01*
X146528065Y-57668880D01*
X146473026Y-57850318D01*
X146454443Y-58039000D01*
X101175700Y-58039000D01*
X101175700Y-44580006D01*
X123134460Y-44580006D01*
X123154582Y-44822858D01*
X123154584Y-44822866D01*
X123214408Y-45059106D01*
X123312301Y-45282280D01*
X123437481Y-45473881D01*
X123445592Y-45486295D01*
X123610644Y-45665590D01*
X123610647Y-45665592D01*
X123610650Y-45665595D01*
X123802952Y-45815270D01*
X123802956Y-45815273D01*
X123802958Y-45815274D01*
X123802961Y-45815276D01*
X123885192Y-45859777D01*
X124017282Y-45931260D01*
X124247776Y-46010389D01*
X124488151Y-46050500D01*
X124731849Y-46050500D01*
X124972224Y-46010389D01*
X125202718Y-45931260D01*
X125202725Y-45931256D01*
X125202728Y-45931255D01*
X125253488Y-45903785D01*
X125321816Y-45889189D01*
X125387188Y-45913851D01*
X125400187Y-45925158D01*
X135158540Y-55683511D01*
X135214489Y-55739460D01*
X135214491Y-55739461D01*
X135214495Y-55739464D01*
X135283004Y-55779017D01*
X135283011Y-55779021D01*
X135359438Y-55799500D01*
X146416530Y-55799500D01*
X146483569Y-55819185D01*
X146525888Y-55865047D01*
X146617434Y-56036318D01*
X146617438Y-56036325D01*
X146737716Y-56182883D01*
X146884274Y-56303161D01*
X146884281Y-56303165D01*
X147051477Y-56392533D01*
X147051478Y-56392533D01*
X147051485Y-56392537D01*
X147232917Y-56447573D01*
X147232916Y-56447573D01*
X147249833Y-56449239D01*
X147421600Y-56466157D01*
X147610283Y-56447573D01*
X147791715Y-56392537D01*
X147958924Y-56303162D01*
X148105483Y-56182883D01*
X148225762Y-56036324D01*
X148315137Y-55869115D01*
X148370173Y-55687683D01*
X148388757Y-55499000D01*
X169314443Y-55499000D01*
X169333026Y-55687681D01*
X169348733Y-55739460D01*
X169388063Y-55869115D01*
X169388064Y-55869118D01*
X169388065Y-55869119D01*
X169388066Y-55869122D01*
X169477434Y-56036318D01*
X169477438Y-56036325D01*
X169597716Y-56182883D01*
X169744274Y-56303161D01*
X169744281Y-56303165D01*
X169911477Y-56392533D01*
X169911478Y-56392533D01*
X169911485Y-56392537D01*
X170092917Y-56447573D01*
X170092916Y-56447573D01*
X170109833Y-56449239D01*
X170281600Y-56466157D01*
X170470283Y-56447573D01*
X170651715Y-56392537D01*
X170818924Y-56303162D01*
X170965483Y-56182883D01*
X171085762Y-56036324D01*
X171175137Y-55869115D01*
X171230173Y-55687683D01*
X171248757Y-55499000D01*
X171230173Y-55310317D01*
X171175137Y-55128885D01*
X171085762Y-54961676D01*
X171085761Y-54961674D01*
X170965483Y-54815116D01*
X170818925Y-54694838D01*
X170818918Y-54694834D01*
X170651722Y-54605466D01*
X170651719Y-54605465D01*
X170651718Y-54605464D01*
X170651715Y-54605463D01*
X170470283Y-54550427D01*
X170470281Y-54550426D01*
X170470283Y-54550426D01*
X170281600Y-54531843D01*
X170092918Y-54550426D01*
X169985794Y-54582921D01*
X169911485Y-54605463D01*
X169911482Y-54605464D01*
X169911480Y-54605465D01*
X169911477Y-54605466D01*
X169744281Y-54694834D01*
X169744274Y-54694838D01*
X169597716Y-54815116D01*
X169477438Y-54961674D01*
X169477434Y-54961681D01*
X169388066Y-55128877D01*
X169388065Y-55128880D01*
X169333026Y-55310318D01*
X169314443Y-55499000D01*
X148388757Y-55499000D01*
X148370173Y-55310317D01*
X148315137Y-55128885D01*
X148225762Y-54961676D01*
X148225761Y-54961674D01*
X148105483Y-54815116D01*
X147958925Y-54694838D01*
X147958918Y-54694834D01*
X147791722Y-54605466D01*
X147791719Y-54605465D01*
X147791718Y-54605464D01*
X147791715Y-54605463D01*
X147610283Y-54550427D01*
X147610281Y-54550426D01*
X147610283Y-54550426D01*
X147421600Y-54531843D01*
X147232918Y-54550426D01*
X147125794Y-54582921D01*
X147051485Y-54605463D01*
X147051482Y-54605464D01*
X147051480Y-54605465D01*
X147051477Y-54605466D01*
X146884281Y-54694834D01*
X146884274Y-54694838D01*
X146737716Y-54815116D01*
X146617438Y-54961674D01*
X146617434Y-54961681D01*
X146525888Y-55132953D01*
X146476926Y-55182797D01*
X146416530Y-55198500D01*
X135574833Y-55198500D01*
X135507794Y-55178815D01*
X135487152Y-55162181D01*
X133283971Y-52959000D01*
X146454443Y-52959000D01*
X146473026Y-53147681D01*
X146473027Y-53147683D01*
X146528063Y-53329115D01*
X146528064Y-53329118D01*
X146528065Y-53329119D01*
X146528066Y-53329122D01*
X146617434Y-53496318D01*
X146617438Y-53496325D01*
X146737716Y-53642883D01*
X146884274Y-53763161D01*
X146884281Y-53763165D01*
X147051477Y-53852533D01*
X147051478Y-53852533D01*
X147051485Y-53852537D01*
X147232917Y-53907573D01*
X147232916Y-53907573D01*
X147249833Y-53909239D01*
X147421600Y-53926157D01*
X147610283Y-53907573D01*
X147791715Y-53852537D01*
X147958924Y-53763162D01*
X148105483Y-53642883D01*
X148225762Y-53496324D01*
X148315137Y-53329115D01*
X148370173Y-53147683D01*
X148388757Y-52959000D01*
X169314443Y-52959000D01*
X169333026Y-53147681D01*
X169333027Y-53147683D01*
X169388063Y-53329115D01*
X169388064Y-53329118D01*
X169388065Y-53329119D01*
X169388066Y-53329122D01*
X169477434Y-53496318D01*
X169477438Y-53496325D01*
X169597716Y-53642883D01*
X169744274Y-53763161D01*
X169744281Y-53763165D01*
X169911477Y-53852533D01*
X169911478Y-53852533D01*
X169911485Y-53852537D01*
X170092917Y-53907573D01*
X170092916Y-53907573D01*
X170109833Y-53909239D01*
X170281600Y-53926157D01*
X170470283Y-53907573D01*
X170651715Y-53852537D01*
X170818924Y-53763162D01*
X170965483Y-53642883D01*
X171085762Y-53496324D01*
X171175137Y-53329115D01*
X171230173Y-53147683D01*
X171248757Y-52959000D01*
X171230173Y-52770317D01*
X171175137Y-52588885D01*
X171085762Y-52421676D01*
X171085761Y-52421674D01*
X170965483Y-52275116D01*
X170818925Y-52154838D01*
X170818918Y-52154834D01*
X170651722Y-52065466D01*
X170651719Y-52065465D01*
X170651718Y-52065464D01*
X170651715Y-52065463D01*
X170470283Y-52010427D01*
X170470281Y-52010426D01*
X170470283Y-52010426D01*
X170281600Y-51991843D01*
X170092918Y-52010426D01*
X169985794Y-52042921D01*
X169911485Y-52065463D01*
X169911482Y-52065464D01*
X169911480Y-52065465D01*
X169911477Y-52065466D01*
X169744281Y-52154834D01*
X169744274Y-52154838D01*
X169597716Y-52275116D01*
X169477438Y-52421674D01*
X169477434Y-52421681D01*
X169388066Y-52588877D01*
X169388065Y-52588880D01*
X169333026Y-52770318D01*
X169314443Y-52959000D01*
X148388757Y-52959000D01*
X148370173Y-52770317D01*
X148315137Y-52588885D01*
X148225762Y-52421676D01*
X148225761Y-52421674D01*
X148105483Y-52275116D01*
X147958925Y-52154838D01*
X147958918Y-52154834D01*
X147791722Y-52065466D01*
X147791719Y-52065465D01*
X147791718Y-52065464D01*
X147791715Y-52065463D01*
X147610283Y-52010427D01*
X147610281Y-52010426D01*
X147610283Y-52010426D01*
X147421600Y-51991843D01*
X147232918Y-52010426D01*
X147125794Y-52042921D01*
X147051485Y-52065463D01*
X147051482Y-52065464D01*
X147051480Y-52065465D01*
X147051477Y-52065466D01*
X146884281Y-52154834D01*
X146884274Y-52154838D01*
X146737716Y-52275116D01*
X146617438Y-52421674D01*
X146617434Y-52421681D01*
X146528066Y-52588877D01*
X146528065Y-52588880D01*
X146473026Y-52770318D01*
X146454443Y-52959000D01*
X133283971Y-52959000D01*
X130743971Y-50419000D01*
X146454443Y-50419000D01*
X146473026Y-50607681D01*
X146488733Y-50659460D01*
X146528063Y-50789115D01*
X146528064Y-50789118D01*
X146528065Y-50789119D01*
X146528066Y-50789122D01*
X146617434Y-50956318D01*
X146617438Y-50956325D01*
X146737716Y-51102883D01*
X146884274Y-51223161D01*
X146884281Y-51223165D01*
X147051477Y-51312533D01*
X147051478Y-51312533D01*
X147051485Y-51312537D01*
X147232917Y-51367573D01*
X147232916Y-51367573D01*
X147249833Y-51369239D01*
X147421600Y-51386157D01*
X147610283Y-51367573D01*
X147791715Y-51312537D01*
X147958924Y-51223162D01*
X148105483Y-51102883D01*
X148225762Y-50956324D01*
X148315137Y-50789115D01*
X148370173Y-50607683D01*
X148388757Y-50419000D01*
X148370173Y-50230317D01*
X148315137Y-50048885D01*
X148225762Y-49881676D01*
X148225761Y-49881674D01*
X148105483Y-49735116D01*
X147958925Y-49614838D01*
X147958918Y-49614834D01*
X147791722Y-49525466D01*
X147791719Y-49525465D01*
X147791718Y-49525464D01*
X147791715Y-49525463D01*
X147610283Y-49470427D01*
X147610281Y-49470426D01*
X147610283Y-49470426D01*
X147421600Y-49451843D01*
X147232918Y-49470426D01*
X147125794Y-49502921D01*
X147051485Y-49525463D01*
X147051482Y-49525464D01*
X147051480Y-49525465D01*
X147051477Y-49525466D01*
X146884281Y-49614834D01*
X146884274Y-49614838D01*
X146737716Y-49735116D01*
X146617438Y-49881674D01*
X146617434Y-49881681D01*
X146528066Y-50048877D01*
X146528065Y-50048880D01*
X146528064Y-50048882D01*
X146528063Y-50048885D01*
X146506946Y-50118500D01*
X146473026Y-50230318D01*
X146454443Y-50419000D01*
X130743971Y-50419000D01*
X128203971Y-47879000D01*
X146454443Y-47879000D01*
X146473026Y-48067681D01*
X146473027Y-48067683D01*
X146528063Y-48249115D01*
X146528064Y-48249118D01*
X146528065Y-48249119D01*
X146528066Y-48249122D01*
X146617434Y-48416318D01*
X146617438Y-48416325D01*
X146737716Y-48562883D01*
X146884274Y-48683161D01*
X146884281Y-48683165D01*
X147051477Y-48772533D01*
X147051478Y-48772533D01*
X147051485Y-48772537D01*
X147232917Y-48827573D01*
X147232916Y-48827573D01*
X147249833Y-48829239D01*
X147421600Y-48846157D01*
X147610283Y-48827573D01*
X147791715Y-48772537D01*
X147958924Y-48683162D01*
X148105483Y-48562883D01*
X148225762Y-48416324D01*
X148315137Y-48249115D01*
X148370173Y-48067683D01*
X148388757Y-47879000D01*
X169314443Y-47879000D01*
X169333026Y-48067681D01*
X169333027Y-48067683D01*
X169388063Y-48249115D01*
X169388064Y-48249118D01*
X169388065Y-48249119D01*
X169388066Y-48249122D01*
X169477434Y-48416318D01*
X169477438Y-48416325D01*
X169597716Y-48562883D01*
X169744274Y-48683161D01*
X169744281Y-48683165D01*
X169911477Y-48772533D01*
X169911478Y-48772533D01*
X169911485Y-48772537D01*
X170092917Y-48827573D01*
X170092916Y-48827573D01*
X170109833Y-48829239D01*
X170281600Y-48846157D01*
X170470283Y-48827573D01*
X170651715Y-48772537D01*
X170818924Y-48683162D01*
X170965483Y-48562883D01*
X171085762Y-48416324D01*
X171175137Y-48249115D01*
X171230173Y-48067683D01*
X171248757Y-47879000D01*
X171230173Y-47690317D01*
X171175137Y-47508885D01*
X171085762Y-47341676D01*
X171085761Y-47341674D01*
X170965483Y-47195116D01*
X170818925Y-47074838D01*
X170818918Y-47074834D01*
X170651722Y-46985466D01*
X170651719Y-46985465D01*
X170651718Y-46985464D01*
X170651715Y-46985463D01*
X170470283Y-46930427D01*
X170470281Y-46930426D01*
X170470283Y-46930426D01*
X170281600Y-46911843D01*
X170092918Y-46930426D01*
X169985794Y-46962921D01*
X169911485Y-46985463D01*
X169911482Y-46985464D01*
X169911480Y-46985465D01*
X169911477Y-46985466D01*
X169744281Y-47074834D01*
X169744274Y-47074838D01*
X169597716Y-47195116D01*
X169477438Y-47341674D01*
X169477434Y-47341681D01*
X169388066Y-47508877D01*
X169388065Y-47508880D01*
X169333026Y-47690318D01*
X169314443Y-47879000D01*
X148388757Y-47879000D01*
X148370173Y-47690317D01*
X148315137Y-47508885D01*
X148225762Y-47341676D01*
X148225761Y-47341674D01*
X148105483Y-47195116D01*
X147958925Y-47074838D01*
X147958918Y-47074834D01*
X147791722Y-46985466D01*
X147791719Y-46985465D01*
X147791718Y-46985464D01*
X147791715Y-46985463D01*
X147610283Y-46930427D01*
X147610281Y-46930426D01*
X147610283Y-46930426D01*
X147421600Y-46911843D01*
X147232918Y-46930426D01*
X147125794Y-46962921D01*
X147051485Y-46985463D01*
X147051482Y-46985464D01*
X147051480Y-46985465D01*
X147051477Y-46985466D01*
X146884281Y-47074834D01*
X146884274Y-47074838D01*
X146737716Y-47195116D01*
X146617438Y-47341674D01*
X146617434Y-47341681D01*
X146528066Y-47508877D01*
X146528065Y-47508880D01*
X146473026Y-47690318D01*
X146454443Y-47879000D01*
X128203971Y-47879000D01*
X125860175Y-45535204D01*
X125826690Y-45473881D01*
X125831674Y-45404189D01*
X125844042Y-45379710D01*
X125907699Y-45282279D01*
X126005591Y-45059107D01*
X126065416Y-44822866D01*
X126065417Y-44822858D01*
X126085540Y-44580006D01*
X140914460Y-44580006D01*
X140934582Y-44822858D01*
X140934584Y-44822866D01*
X140994408Y-45059106D01*
X141092301Y-45282280D01*
X141217481Y-45473881D01*
X141225592Y-45486295D01*
X141390644Y-45665590D01*
X141390647Y-45665592D01*
X141390650Y-45665595D01*
X141582952Y-45815270D01*
X141582956Y-45815273D01*
X141582958Y-45815274D01*
X141582961Y-45815276D01*
X141665192Y-45859777D01*
X141797282Y-45931260D01*
X142027776Y-46010389D01*
X142268151Y-46050500D01*
X142511849Y-46050500D01*
X142752224Y-46010389D01*
X142982718Y-45931260D01*
X143197044Y-45815273D01*
X143389356Y-45665590D01*
X143554408Y-45486295D01*
X143650641Y-45339000D01*
X146454443Y-45339000D01*
X146473026Y-45527681D01*
X146473027Y-45527683D01*
X146528063Y-45709115D01*
X146528064Y-45709118D01*
X146528065Y-45709119D01*
X146528066Y-45709122D01*
X146617434Y-45876318D01*
X146617438Y-45876325D01*
X146737716Y-46022883D01*
X146884274Y-46143161D01*
X146884281Y-46143165D01*
X147051477Y-46232533D01*
X147051478Y-46232533D01*
X147051485Y-46232537D01*
X147232917Y-46287573D01*
X147232916Y-46287573D01*
X147249833Y-46289239D01*
X147421600Y-46306157D01*
X147610283Y-46287573D01*
X147791715Y-46232537D01*
X147958924Y-46143162D01*
X148105483Y-46022883D01*
X148225762Y-45876324D01*
X148315137Y-45709115D01*
X148370173Y-45527683D01*
X148388757Y-45339000D01*
X169314443Y-45339000D01*
X169333026Y-45527681D01*
X169333027Y-45527683D01*
X169388063Y-45709115D01*
X169388064Y-45709118D01*
X169388065Y-45709119D01*
X169388066Y-45709122D01*
X169477434Y-45876318D01*
X169477438Y-45876325D01*
X169597716Y-46022883D01*
X169744274Y-46143161D01*
X169744281Y-46143165D01*
X169911477Y-46232533D01*
X169911478Y-46232533D01*
X169911485Y-46232537D01*
X170092917Y-46287573D01*
X170092916Y-46287573D01*
X170109833Y-46289239D01*
X170281600Y-46306157D01*
X170470283Y-46287573D01*
X170651715Y-46232537D01*
X170818924Y-46143162D01*
X170965483Y-46022883D01*
X171085762Y-45876324D01*
X171175137Y-45709115D01*
X171230173Y-45527683D01*
X171248757Y-45339000D01*
X171230173Y-45150317D01*
X171175137Y-44968885D01*
X171175133Y-44968877D01*
X171085765Y-44801681D01*
X171085761Y-44801674D01*
X170965483Y-44655116D01*
X170818925Y-44534838D01*
X170818918Y-44534834D01*
X170651722Y-44445466D01*
X170651719Y-44445465D01*
X170651718Y-44445464D01*
X170651715Y-44445463D01*
X170470283Y-44390427D01*
X170470281Y-44390426D01*
X170470283Y-44390426D01*
X170281600Y-44371843D01*
X170092918Y-44390426D01*
X169985794Y-44422921D01*
X169911485Y-44445463D01*
X169911482Y-44445464D01*
X169911480Y-44445465D01*
X169911477Y-44445466D01*
X169744281Y-44534834D01*
X169744274Y-44534838D01*
X169597716Y-44655116D01*
X169477438Y-44801674D01*
X169477434Y-44801681D01*
X169388066Y-44968877D01*
X169388065Y-44968880D01*
X169333026Y-45150318D01*
X169314443Y-45339000D01*
X148388757Y-45339000D01*
X148370173Y-45150317D01*
X148315137Y-44968885D01*
X148315133Y-44968877D01*
X148225765Y-44801681D01*
X148225761Y-44801674D01*
X148105483Y-44655116D01*
X147958925Y-44534838D01*
X147958918Y-44534834D01*
X147791722Y-44445466D01*
X147791719Y-44445465D01*
X147791718Y-44445464D01*
X147791715Y-44445463D01*
X147610283Y-44390427D01*
X147610281Y-44390426D01*
X147610283Y-44390426D01*
X147421600Y-44371843D01*
X147232918Y-44390426D01*
X147125794Y-44422921D01*
X147051485Y-44445463D01*
X147051482Y-44445464D01*
X147051480Y-44445465D01*
X147051477Y-44445466D01*
X146884281Y-44534834D01*
X146884274Y-44534838D01*
X146737716Y-44655116D01*
X146617438Y-44801674D01*
X146617434Y-44801681D01*
X146528066Y-44968877D01*
X146528065Y-44968880D01*
X146473026Y-45150318D01*
X146454443Y-45339000D01*
X143650641Y-45339000D01*
X143687699Y-45282279D01*
X143785591Y-45059107D01*
X143845416Y-44822866D01*
X143845417Y-44822858D01*
X143865540Y-44580006D01*
X143865540Y-44579993D01*
X143845417Y-44337141D01*
X143845416Y-44337138D01*
X143845416Y-44337134D01*
X143785591Y-44100893D01*
X143687699Y-43877721D01*
X143554408Y-43673705D01*
X143389356Y-43494410D01*
X143389351Y-43494406D01*
X143389349Y-43494404D01*
X143197047Y-43344729D01*
X143197038Y-43344723D01*
X142982724Y-43228743D01*
X142982721Y-43228742D01*
X142982718Y-43228740D01*
X142982712Y-43228738D01*
X142982710Y-43228737D01*
X142774237Y-43157167D01*
X142717221Y-43116781D01*
X142691091Y-43051982D01*
X142690500Y-43039886D01*
X142690500Y-42799000D01*
X146454443Y-42799000D01*
X146473026Y-42987681D01*
X146473027Y-42987683D01*
X146528063Y-43169115D01*
X146528064Y-43169118D01*
X146528065Y-43169119D01*
X146528066Y-43169122D01*
X146617434Y-43336318D01*
X146617438Y-43336325D01*
X146737716Y-43482883D01*
X146884274Y-43603161D01*
X146884281Y-43603165D01*
X147051477Y-43692533D01*
X147051478Y-43692533D01*
X147051485Y-43692537D01*
X147232917Y-43747573D01*
X147232916Y-43747573D01*
X147249833Y-43749239D01*
X147421600Y-43766157D01*
X147610283Y-43747573D01*
X147791715Y-43692537D01*
X147958924Y-43603162D01*
X148105483Y-43482883D01*
X148225762Y-43336324D01*
X148315137Y-43169115D01*
X148370173Y-42987683D01*
X148388757Y-42799000D01*
X169314443Y-42799000D01*
X169333026Y-42987681D01*
X169333027Y-42987683D01*
X169388063Y-43169115D01*
X169388064Y-43169118D01*
X169388065Y-43169119D01*
X169388066Y-43169122D01*
X169477434Y-43336318D01*
X169477438Y-43336325D01*
X169597716Y-43482883D01*
X169744274Y-43603161D01*
X169744281Y-43603165D01*
X169911477Y-43692533D01*
X169911478Y-43692533D01*
X169911485Y-43692537D01*
X170092917Y-43747573D01*
X170092916Y-43747573D01*
X170109833Y-43749239D01*
X170281600Y-43766157D01*
X170470283Y-43747573D01*
X170651715Y-43692537D01*
X170818924Y-43603162D01*
X170965483Y-43482883D01*
X171085762Y-43336324D01*
X171175137Y-43169115D01*
X171230173Y-42987683D01*
X171248757Y-42799000D01*
X171230173Y-42610317D01*
X171175137Y-42428885D01*
X171175133Y-42428877D01*
X171085765Y-42261681D01*
X171085761Y-42261674D01*
X170965483Y-42115116D01*
X170818925Y-41994838D01*
X170818918Y-41994834D01*
X170651722Y-41905466D01*
X170651719Y-41905465D01*
X170651718Y-41905464D01*
X170651715Y-41905463D01*
X170470283Y-41850427D01*
X170470281Y-41850426D01*
X170470283Y-41850426D01*
X170281600Y-41831843D01*
X170092918Y-41850426D01*
X169985794Y-41882921D01*
X169911485Y-41905463D01*
X169911482Y-41905464D01*
X169911480Y-41905465D01*
X169911477Y-41905466D01*
X169744281Y-41994834D01*
X169744274Y-41994838D01*
X169597716Y-42115116D01*
X169477438Y-42261674D01*
X169477434Y-42261681D01*
X169388066Y-42428877D01*
X169388065Y-42428880D01*
X169333026Y-42610318D01*
X169314443Y-42799000D01*
X148388757Y-42799000D01*
X148370173Y-42610317D01*
X148315137Y-42428885D01*
X148315133Y-42428877D01*
X148225765Y-42261681D01*
X148225761Y-42261674D01*
X148105483Y-42115116D01*
X147958925Y-41994838D01*
X147958918Y-41994834D01*
X147791722Y-41905466D01*
X147791719Y-41905465D01*
X147791718Y-41905464D01*
X147791715Y-41905463D01*
X147610283Y-41850427D01*
X147610281Y-41850426D01*
X147610283Y-41850426D01*
X147421600Y-41831843D01*
X147232918Y-41850426D01*
X147125794Y-41882921D01*
X147051485Y-41905463D01*
X147051482Y-41905464D01*
X147051480Y-41905465D01*
X147051477Y-41905466D01*
X146884281Y-41994834D01*
X146884274Y-41994838D01*
X146737716Y-42115116D01*
X146617438Y-42261674D01*
X146617434Y-42261681D01*
X146528066Y-42428877D01*
X146528065Y-42428880D01*
X146473026Y-42610318D01*
X146454443Y-42799000D01*
X142690500Y-42799000D01*
X142690500Y-40259000D01*
X146454443Y-40259000D01*
X146473026Y-40447681D01*
X146473027Y-40447683D01*
X146528063Y-40629115D01*
X146528064Y-40629118D01*
X146528065Y-40629119D01*
X146528066Y-40629122D01*
X146617434Y-40796318D01*
X146617438Y-40796325D01*
X146737716Y-40942883D01*
X146884274Y-41063161D01*
X146884281Y-41063165D01*
X147051477Y-41152533D01*
X147051478Y-41152533D01*
X147051485Y-41152537D01*
X147232917Y-41207573D01*
X147232916Y-41207573D01*
X147249833Y-41209239D01*
X147421600Y-41226157D01*
X147610283Y-41207573D01*
X147791715Y-41152537D01*
X147958924Y-41063162D01*
X148105483Y-40942883D01*
X148225762Y-40796324D01*
X148315137Y-40629115D01*
X148370173Y-40447683D01*
X148388757Y-40259000D01*
X169314443Y-40259000D01*
X169333026Y-40447681D01*
X169333027Y-40447683D01*
X169388063Y-40629115D01*
X169388064Y-40629118D01*
X169388065Y-40629119D01*
X169388066Y-40629122D01*
X169477434Y-40796318D01*
X169477438Y-40796325D01*
X169597716Y-40942883D01*
X169744274Y-41063161D01*
X169744281Y-41063165D01*
X169911477Y-41152533D01*
X169911478Y-41152533D01*
X169911485Y-41152537D01*
X170092917Y-41207573D01*
X170092916Y-41207573D01*
X170109833Y-41209239D01*
X170281600Y-41226157D01*
X170470283Y-41207573D01*
X170651715Y-41152537D01*
X170818924Y-41063162D01*
X170965483Y-40942883D01*
X171085762Y-40796324D01*
X171175137Y-40629115D01*
X171230173Y-40447683D01*
X171248757Y-40259000D01*
X171230173Y-40070317D01*
X171175137Y-39888885D01*
X171085762Y-39721676D01*
X171085761Y-39721674D01*
X170965483Y-39575116D01*
X170818925Y-39454838D01*
X170818918Y-39454834D01*
X170651722Y-39365466D01*
X170651719Y-39365465D01*
X170651718Y-39365464D01*
X170651715Y-39365463D01*
X170470283Y-39310427D01*
X170470281Y-39310426D01*
X170470283Y-39310426D01*
X170281600Y-39291843D01*
X170092918Y-39310426D01*
X169985794Y-39342921D01*
X169911485Y-39365463D01*
X169911482Y-39365464D01*
X169911480Y-39365465D01*
X169911477Y-39365466D01*
X169744281Y-39454834D01*
X169744274Y-39454838D01*
X169597716Y-39575116D01*
X169477438Y-39721674D01*
X169477434Y-39721681D01*
X169388066Y-39888877D01*
X169388065Y-39888880D01*
X169333026Y-40070318D01*
X169314443Y-40259000D01*
X148388757Y-40259000D01*
X148370173Y-40070317D01*
X148315137Y-39888885D01*
X148225762Y-39721676D01*
X148225761Y-39721674D01*
X148105483Y-39575116D01*
X147958925Y-39454838D01*
X147958918Y-39454834D01*
X147791722Y-39365466D01*
X147791719Y-39365465D01*
X147791718Y-39365464D01*
X147791715Y-39365463D01*
X147610283Y-39310427D01*
X147610281Y-39310426D01*
X147610283Y-39310426D01*
X147421600Y-39291843D01*
X147232918Y-39310426D01*
X147125794Y-39342921D01*
X147051485Y-39365463D01*
X147051482Y-39365464D01*
X147051480Y-39365465D01*
X147051477Y-39365466D01*
X146884281Y-39454834D01*
X146884274Y-39454838D01*
X146737716Y-39575116D01*
X146617438Y-39721674D01*
X146617434Y-39721681D01*
X146528066Y-39888877D01*
X146528065Y-39888880D01*
X146473026Y-40070318D01*
X146454443Y-40259000D01*
X142690500Y-40259000D01*
X142690500Y-39593205D01*
X142694726Y-39561109D01*
X142700500Y-39539562D01*
X142700500Y-38525832D01*
X142720185Y-38458793D01*
X142736814Y-38438156D01*
X143455970Y-37719000D01*
X146454443Y-37719000D01*
X146473026Y-37907681D01*
X146473027Y-37907683D01*
X146528063Y-38089115D01*
X146528064Y-38089118D01*
X146528065Y-38089119D01*
X146528066Y-38089122D01*
X146617434Y-38256318D01*
X146617438Y-38256325D01*
X146737716Y-38402883D01*
X146884274Y-38523161D01*
X146884281Y-38523165D01*
X147051477Y-38612533D01*
X147051478Y-38612533D01*
X147051485Y-38612537D01*
X147232917Y-38667573D01*
X147232916Y-38667573D01*
X147249833Y-38669239D01*
X147421600Y-38686157D01*
X147610283Y-38667573D01*
X147791715Y-38612537D01*
X147958924Y-38523162D01*
X148105483Y-38402883D01*
X148225762Y-38256324D01*
X148315137Y-38089115D01*
X148370173Y-37907683D01*
X148388757Y-37719000D01*
X169314443Y-37719000D01*
X169333026Y-37907681D01*
X169333027Y-37907683D01*
X169388063Y-38089115D01*
X169388064Y-38089118D01*
X169388065Y-38089119D01*
X169388066Y-38089122D01*
X169477434Y-38256318D01*
X169477438Y-38256325D01*
X169597716Y-38402883D01*
X169744274Y-38523161D01*
X169744281Y-38523165D01*
X169911477Y-38612533D01*
X169911478Y-38612533D01*
X169911485Y-38612537D01*
X170092917Y-38667573D01*
X170092916Y-38667573D01*
X170109833Y-38669239D01*
X170281600Y-38686157D01*
X170470283Y-38667573D01*
X170651715Y-38612537D01*
X170818924Y-38523162D01*
X170965483Y-38402883D01*
X171085762Y-38256324D01*
X171175137Y-38089115D01*
X171230173Y-37907683D01*
X171248757Y-37719000D01*
X171230173Y-37530317D01*
X171175137Y-37348885D01*
X171085762Y-37181676D01*
X171085761Y-37181674D01*
X170965483Y-37035116D01*
X170818925Y-36914838D01*
X170818918Y-36914834D01*
X170651722Y-36825466D01*
X170651719Y-36825465D01*
X170651718Y-36825464D01*
X170651715Y-36825463D01*
X170470283Y-36770427D01*
X170470281Y-36770426D01*
X170470283Y-36770426D01*
X170281600Y-36751843D01*
X170092918Y-36770426D01*
X169985794Y-36802921D01*
X169911485Y-36825463D01*
X169911482Y-36825464D01*
X169911480Y-36825465D01*
X169911477Y-36825466D01*
X169744281Y-36914834D01*
X169744274Y-36914838D01*
X169597716Y-37035116D01*
X169477438Y-37181674D01*
X169477434Y-37181681D01*
X169388066Y-37348877D01*
X169388065Y-37348880D01*
X169333026Y-37530318D01*
X169314443Y-37719000D01*
X148388757Y-37719000D01*
X148370173Y-37530317D01*
X148315137Y-37348885D01*
X148225762Y-37181676D01*
X148225761Y-37181674D01*
X148105483Y-37035116D01*
X147958925Y-36914838D01*
X147958918Y-36914834D01*
X147791722Y-36825466D01*
X147791719Y-36825465D01*
X147791718Y-36825464D01*
X147791715Y-36825463D01*
X147610283Y-36770427D01*
X147610281Y-36770426D01*
X147610283Y-36770426D01*
X147421600Y-36751843D01*
X147232918Y-36770426D01*
X147125794Y-36802921D01*
X147051485Y-36825463D01*
X147051482Y-36825464D01*
X147051480Y-36825465D01*
X147051477Y-36825466D01*
X146884281Y-36914834D01*
X146884274Y-36914838D01*
X146737716Y-37035116D01*
X146617438Y-37181674D01*
X146617434Y-37181681D01*
X146528066Y-37348877D01*
X146528065Y-37348880D01*
X146473026Y-37530318D01*
X146454443Y-37719000D01*
X143455970Y-37719000D01*
X146259481Y-34915488D01*
X146320802Y-34882005D01*
X146390494Y-34886989D01*
X146446427Y-34928861D01*
X146470844Y-34994325D01*
X146470563Y-35015325D01*
X146454443Y-35178999D01*
X146473026Y-35367681D01*
X146473027Y-35367683D01*
X146528063Y-35549115D01*
X146528064Y-35549118D01*
X146528065Y-35549119D01*
X146528066Y-35549122D01*
X146617434Y-35716318D01*
X146617438Y-35716325D01*
X146737716Y-35862883D01*
X146884274Y-35983161D01*
X146884281Y-35983165D01*
X147051477Y-36072533D01*
X147051478Y-36072533D01*
X147051485Y-36072537D01*
X147232917Y-36127573D01*
X147232916Y-36127573D01*
X147249833Y-36129239D01*
X147421600Y-36146157D01*
X147610283Y-36127573D01*
X147791715Y-36072537D01*
X147958924Y-35983162D01*
X148105483Y-35862883D01*
X148225762Y-35716324D01*
X148315137Y-35549115D01*
X148370173Y-35367683D01*
X148388757Y-35179000D01*
X169314443Y-35179000D01*
X169333026Y-35367681D01*
X169333027Y-35367683D01*
X169388063Y-35549115D01*
X169388064Y-35549118D01*
X169388065Y-35549119D01*
X169388066Y-35549122D01*
X169477434Y-35716318D01*
X169477438Y-35716325D01*
X169597716Y-35862883D01*
X169744274Y-35983161D01*
X169744281Y-35983165D01*
X169911477Y-36072533D01*
X169911478Y-36072533D01*
X169911485Y-36072537D01*
X170092917Y-36127573D01*
X170092916Y-36127573D01*
X170109833Y-36129239D01*
X170281600Y-36146157D01*
X170470283Y-36127573D01*
X170651715Y-36072537D01*
X170818924Y-35983162D01*
X170965483Y-35862883D01*
X171085762Y-35716324D01*
X171175137Y-35549115D01*
X171230173Y-35367683D01*
X171248757Y-35179000D01*
X171230173Y-34990317D01*
X171175137Y-34808885D01*
X171085762Y-34641676D01*
X171085761Y-34641674D01*
X170965483Y-34495116D01*
X170818925Y-34374838D01*
X170818918Y-34374834D01*
X170651722Y-34285466D01*
X170651719Y-34285465D01*
X170651718Y-34285464D01*
X170651715Y-34285463D01*
X170470283Y-34230427D01*
X170470281Y-34230426D01*
X170470283Y-34230426D01*
X170281600Y-34211843D01*
X170092918Y-34230426D01*
X169985794Y-34262921D01*
X169911485Y-34285463D01*
X169911482Y-34285464D01*
X169911480Y-34285465D01*
X169911477Y-34285466D01*
X169744281Y-34374834D01*
X169744274Y-34374838D01*
X169597716Y-34495116D01*
X169477438Y-34641674D01*
X169477434Y-34641681D01*
X169388066Y-34808877D01*
X169388065Y-34808880D01*
X169333026Y-34990318D01*
X169314443Y-35179000D01*
X148388757Y-35179000D01*
X148370173Y-34990317D01*
X148315137Y-34808885D01*
X148225762Y-34641676D01*
X148225761Y-34641674D01*
X148105483Y-34495116D01*
X147958925Y-34374838D01*
X147958918Y-34374834D01*
X147791722Y-34285466D01*
X147791719Y-34285465D01*
X147791718Y-34285464D01*
X147791715Y-34285463D01*
X147610283Y-34230427D01*
X147610281Y-34230426D01*
X147610283Y-34230426D01*
X147438516Y-34213509D01*
X147421600Y-34211843D01*
X147421599Y-34211843D01*
X147257925Y-34227963D01*
X147189279Y-34214944D01*
X147138569Y-34166879D01*
X147121894Y-34099028D01*
X147144550Y-34032933D01*
X147158084Y-34016885D01*
X147555470Y-33619499D01*
X147607154Y-33588521D01*
X147610277Y-33587573D01*
X147610283Y-33587573D01*
X147791715Y-33532537D01*
X147958924Y-33443162D01*
X148105483Y-33322883D01*
X148225762Y-33176324D01*
X148315137Y-33009115D01*
X148370173Y-32827683D01*
X148388757Y-32639000D01*
X148370173Y-32450317D01*
X148315137Y-32268885D01*
X148253106Y-32152833D01*
X148225765Y-32101681D01*
X148225761Y-32101674D01*
X148105483Y-31955116D01*
X147958925Y-31834838D01*
X147958918Y-31834834D01*
X147791722Y-31745466D01*
X147791719Y-31745465D01*
X147791718Y-31745464D01*
X147791715Y-31745463D01*
X147610283Y-31690427D01*
X147610281Y-31690426D01*
X147610283Y-31690426D01*
X147421600Y-31671843D01*
X147232918Y-31690426D01*
X147125794Y-31722921D01*
X147051485Y-31745463D01*
X147051482Y-31745464D01*
X147051480Y-31745465D01*
X147051477Y-31745466D01*
X146884281Y-31834834D01*
X146884274Y-31834838D01*
X146737716Y-31955116D01*
X146617438Y-32101674D01*
X146617434Y-32101681D01*
X146528066Y-32268877D01*
X146528065Y-32268880D01*
X146473026Y-32450318D01*
X146454443Y-32639000D01*
X146473026Y-32827681D01*
X146473027Y-32827683D01*
X146528063Y-33009115D01*
X146528064Y-33009118D01*
X146528065Y-33009119D01*
X146528066Y-33009122D01*
X146617434Y-33176318D01*
X146617438Y-33176325D01*
X146737712Y-33322877D01*
X146737717Y-33322883D01*
X146777197Y-33355284D01*
X146816530Y-33413029D01*
X146818399Y-33482873D01*
X146786211Y-33538816D01*
X142215489Y-38109540D01*
X142159541Y-38165487D01*
X142159535Y-38165495D01*
X142119982Y-38234004D01*
X142119979Y-38234009D01*
X142099500Y-38310439D01*
X142099500Y-39416792D01*
X142095275Y-39448884D01*
X142089500Y-39470436D01*
X142089500Y-43039886D01*
X142069815Y-43106925D01*
X142017011Y-43152680D01*
X142005763Y-43157167D01*
X141797289Y-43228737D01*
X141797275Y-43228743D01*
X141582961Y-43344723D01*
X141582952Y-43344729D01*
X141390650Y-43494404D01*
X141390647Y-43494407D01*
X141225593Y-43673703D01*
X141225590Y-43673707D01*
X141092301Y-43877719D01*
X140994408Y-44100893D01*
X140934584Y-44337133D01*
X140934582Y-44337141D01*
X140914460Y-44579993D01*
X140914460Y-44580006D01*
X126085540Y-44580006D01*
X126085540Y-44579993D01*
X126065417Y-44337141D01*
X126065416Y-44337138D01*
X126065416Y-44337134D01*
X126005591Y-44100893D01*
X125907699Y-43877721D01*
X125774408Y-43673705D01*
X125609356Y-43494410D01*
X125609351Y-43494406D01*
X125609349Y-43494404D01*
X125417047Y-43344729D01*
X125417038Y-43344723D01*
X125202724Y-43228743D01*
X125202721Y-43228742D01*
X125202718Y-43228740D01*
X125202712Y-43228738D01*
X125202710Y-43228737D01*
X124972226Y-43149611D01*
X124731849Y-43109500D01*
X124488151Y-43109500D01*
X124247773Y-43149611D01*
X124017289Y-43228737D01*
X124017275Y-43228743D01*
X123802961Y-43344723D01*
X123802952Y-43344729D01*
X123610650Y-43494404D01*
X123610647Y-43494407D01*
X123445593Y-43673703D01*
X123445590Y-43673707D01*
X123312301Y-43877719D01*
X123214408Y-44100893D01*
X123154584Y-44337133D01*
X123154582Y-44337141D01*
X123134460Y-44579993D01*
X123134460Y-44580006D01*
X101175700Y-44580006D01*
X101175700Y-35709752D01*
X140919500Y-35709752D01*
X140931131Y-35768229D01*
X140931132Y-35768230D01*
X140975447Y-35834552D01*
X141041769Y-35878867D01*
X141041770Y-35878868D01*
X141100247Y-35890499D01*
X141100250Y-35890500D01*
X141100252Y-35890500D01*
X143679750Y-35890500D01*
X143679751Y-35890499D01*
X143694568Y-35887552D01*
X143738229Y-35878868D01*
X143738229Y-35878867D01*
X143738231Y-35878867D01*
X143804552Y-35834552D01*
X143848867Y-35768231D01*
X143848867Y-35768229D01*
X143848868Y-35768229D01*
X143860499Y-35709752D01*
X143860500Y-35709750D01*
X143860500Y-33425833D01*
X143880185Y-33358794D01*
X143896819Y-33338152D01*
X145998152Y-31236819D01*
X146059475Y-31203334D01*
X146085833Y-31200500D01*
X168366767Y-31200500D01*
X168433806Y-31220185D01*
X168454448Y-31236819D01*
X169282781Y-32065152D01*
X169316266Y-32126475D01*
X169319100Y-32152833D01*
X169319100Y-33420752D01*
X169330731Y-33479229D01*
X169330732Y-33479230D01*
X169375047Y-33545552D01*
X169441369Y-33589867D01*
X169441370Y-33589868D01*
X169499847Y-33601499D01*
X169499850Y-33601500D01*
X169499852Y-33601500D01*
X171063350Y-33601500D01*
X171063351Y-33601499D01*
X171078168Y-33598552D01*
X171121829Y-33589868D01*
X171121829Y-33589867D01*
X171121831Y-33589867D01*
X171188152Y-33545552D01*
X171232467Y-33479231D01*
X171232467Y-33479229D01*
X171232468Y-33479229D01*
X171241152Y-33435568D01*
X171244100Y-33420748D01*
X171244100Y-31857252D01*
X171244100Y-31857249D01*
X171244099Y-31857247D01*
X171232468Y-31798770D01*
X171232467Y-31798769D01*
X171188152Y-31732447D01*
X171121830Y-31688132D01*
X171121829Y-31688131D01*
X171063352Y-31676500D01*
X171063348Y-31676500D01*
X169795433Y-31676500D01*
X169728394Y-31656815D01*
X169707752Y-31640181D01*
X168727112Y-30659541D01*
X168727104Y-30659535D01*
X168675704Y-30629859D01*
X168675704Y-30629860D01*
X168665823Y-30624155D01*
X168658589Y-30619979D01*
X168582162Y-30599500D01*
X145949562Y-30599500D01*
X145870438Y-30599500D01*
X145794010Y-30619978D01*
X145725489Y-30659540D01*
X145725486Y-30659542D01*
X143471848Y-32913181D01*
X143410525Y-32946666D01*
X143384167Y-32949500D01*
X141100247Y-32949500D01*
X141041770Y-32961131D01*
X141041769Y-32961132D01*
X140975447Y-33005447D01*
X140931132Y-33071769D01*
X140931131Y-33071770D01*
X140919500Y-33130247D01*
X140919500Y-35709752D01*
X101175700Y-35709752D01*
X101175700Y-25503442D01*
X101195385Y-25436403D01*
X101212019Y-25415761D01*
X101317161Y-25310619D01*
X101378484Y-25277134D01*
X101404842Y-25274300D01*
X107678320Y-25274300D01*
X107745359Y-25293985D01*
G37*
G04 #@! TD.AperFunction*
M02*
