G04 #@! TF.GenerationSoftware,KiCad,Pcbnew,8.0.1*
G04 #@! TF.CreationDate,2024-03-31T12:21:25+03:00*
G04 #@! TF.ProjectId,EVER,45564552-2e6b-4696-9361-645f70636258,rev?*
G04 #@! TF.SameCoordinates,Original*
G04 #@! TF.FileFunction,Copper,L1,Top*
G04 #@! TF.FilePolarity,Positive*
%FSLAX46Y46*%
G04 Gerber Fmt 4.6, Leading zero omitted, Abs format (unit mm)*
G04 Created by KiCad (PCBNEW 8.0.1) date 2024-03-31 12:21:25*
%MOMM*%
%LPD*%
G01*
G04 APERTURE LIST*
G04 #@! TA.AperFunction,SMDPad,CuDef*
%ADD10R,1.500000X0.900000*%
G04 #@! TD*
G04 #@! TA.AperFunction,ComponentPad*
%ADD11R,1.524000X1.524000*%
G04 #@! TD*
G04 #@! TA.AperFunction,ComponentPad*
%ADD12C,1.524000*%
G04 #@! TD*
G04 #@! TA.AperFunction,ComponentPad*
%ADD13R,2.540000X2.540000*%
G04 #@! TD*
G04 #@! TA.AperFunction,ComponentPad*
%ADD14C,2.540000*%
G04 #@! TD*
G04 #@! TA.AperFunction,ViaPad*
%ADD15C,0.600000*%
G04 #@! TD*
G04 #@! TA.AperFunction,Conductor*
%ADD16C,0.200000*%
G04 #@! TD*
G04 APERTURE END LIST*
D10*
X150131556Y-61925613D03*
X150131556Y-65225613D03*
X155031556Y-65225613D03*
X155031556Y-61925613D03*
X138131556Y-73925613D03*
X138131556Y-77225613D03*
X143031556Y-77225613D03*
X143031556Y-73925613D03*
X102131556Y-61925613D03*
X102131556Y-65225613D03*
X107031556Y-65225613D03*
X107031556Y-61925613D03*
X174131556Y-73925613D03*
X174131556Y-77225613D03*
X179031556Y-77225613D03*
X179031556Y-73925613D03*
X174131556Y-49925613D03*
X174131556Y-53225613D03*
X179031556Y-53225613D03*
X179031556Y-49925613D03*
X174131556Y-37925613D03*
X174131556Y-41225613D03*
X179031556Y-41225613D03*
X179031556Y-37925613D03*
X126131556Y-85925613D03*
X126131556Y-89225613D03*
X131031556Y-89225613D03*
X131031556Y-85925613D03*
X102131556Y-85925613D03*
X102131556Y-89225613D03*
X107031556Y-89225613D03*
X107031556Y-85925613D03*
X150131556Y-85925613D03*
X150131556Y-89225613D03*
X155031556Y-89225613D03*
X155031556Y-85925613D03*
X126131556Y-25925613D03*
X126131556Y-29225613D03*
X131031556Y-29225613D03*
X131031556Y-25925613D03*
X102131556Y-37925613D03*
X102131556Y-41225613D03*
X107031556Y-41225613D03*
X107031556Y-37925613D03*
X162131556Y-61925613D03*
X162131556Y-65225613D03*
X167031556Y-65225613D03*
X167031556Y-61925613D03*
X114131556Y-61925613D03*
X114131556Y-65225613D03*
X119031556Y-65225613D03*
X119031556Y-61925613D03*
X138131556Y-49925613D03*
X138131556Y-53225613D03*
X143031556Y-53225613D03*
X143031556Y-49925613D03*
X126131556Y-49925613D03*
X126131556Y-53225613D03*
X131031556Y-53225613D03*
X131031556Y-49925613D03*
X174131556Y-85925613D03*
X174131556Y-89225613D03*
X179031556Y-89225613D03*
X179031556Y-85925613D03*
X162131556Y-37925613D03*
X162131556Y-41225613D03*
X167031556Y-41225613D03*
X167031556Y-37925613D03*
X150131556Y-25925613D03*
X150131556Y-29225613D03*
X155031556Y-29225613D03*
X155031556Y-25925613D03*
X102131556Y-25925613D03*
X102131556Y-29225613D03*
X107031556Y-29225613D03*
X107031556Y-25925613D03*
X126131556Y-73925613D03*
X126131556Y-77225613D03*
X131031556Y-77225613D03*
X131031556Y-73925613D03*
X138131556Y-37925613D03*
X138131556Y-41225613D03*
X143031556Y-41225613D03*
X143031556Y-37925613D03*
X126131556Y-61925613D03*
X126131556Y-65225613D03*
X131031556Y-65225613D03*
X131031556Y-61925613D03*
X150131556Y-37925613D03*
X150131556Y-41225613D03*
X155031556Y-41225613D03*
X155031556Y-37925613D03*
X174131556Y-61925613D03*
X174131556Y-65225613D03*
X179031556Y-65225613D03*
X179031556Y-61925613D03*
X114131556Y-49925613D03*
X114131556Y-53225613D03*
X119031556Y-53225613D03*
X119031556Y-49925613D03*
X126131556Y-37925613D03*
X126131556Y-41225613D03*
X131031556Y-41225613D03*
X131031556Y-37925613D03*
X102131556Y-73925613D03*
X102131556Y-77225613D03*
X107031556Y-77225613D03*
X107031556Y-73925613D03*
X114131556Y-85925613D03*
X114131556Y-89225613D03*
X119031556Y-89225613D03*
X119031556Y-85925613D03*
X162131556Y-25925613D03*
X162131556Y-29225613D03*
X167031556Y-29225613D03*
X167031556Y-25925613D03*
X150131556Y-49925613D03*
X150131556Y-53225613D03*
X155031556Y-53225613D03*
X155031556Y-49925613D03*
X114131556Y-25925613D03*
X114131556Y-29225613D03*
X119031556Y-29225613D03*
X119031556Y-25925613D03*
X162131556Y-73925613D03*
X162131556Y-77225613D03*
X167031556Y-77225613D03*
X167031556Y-73925613D03*
X150131556Y-73925613D03*
X150131556Y-77225613D03*
X155031556Y-77225613D03*
X155031556Y-73925613D03*
X138131556Y-85925613D03*
X138131556Y-89225613D03*
X143031556Y-89225613D03*
X143031556Y-85925613D03*
X162131556Y-49925613D03*
X162131556Y-53225613D03*
X167031556Y-53225613D03*
X167031556Y-49925613D03*
X102131556Y-49925613D03*
X102131556Y-53225613D03*
X107031556Y-53225613D03*
X107031556Y-49925613D03*
X114131556Y-37925613D03*
X114131556Y-41225613D03*
X119031556Y-41225613D03*
X119031556Y-37925613D03*
X114131556Y-73925613D03*
X114131556Y-77225613D03*
X119031556Y-77225613D03*
X119031556Y-73925613D03*
X174131556Y-25925613D03*
X174131556Y-29225613D03*
X179031556Y-29225613D03*
X179031556Y-25925613D03*
X138131556Y-61925613D03*
X138131556Y-65225613D03*
X143031556Y-65225613D03*
X143031556Y-61925613D03*
X162131556Y-85925613D03*
X162131556Y-89225613D03*
X167031556Y-89225613D03*
X167031556Y-85925613D03*
X138131556Y-25925613D03*
X138131556Y-29225613D03*
X143031556Y-29225613D03*
X143031556Y-25925613D03*
D11*
X170281600Y-32639000D03*
D12*
X170281600Y-35179000D03*
X170281600Y-37719000D03*
X170281600Y-40259000D03*
X170281600Y-42799000D03*
X170281600Y-45339000D03*
X170281600Y-47879000D03*
X170281600Y-50419000D03*
X170281600Y-52959000D03*
X170281600Y-55499000D03*
X170281600Y-58039000D03*
X170281600Y-60579000D03*
X170281600Y-63119000D03*
X170281600Y-65659000D03*
X170281600Y-68199000D03*
X147421600Y-32639000D03*
X147421600Y-35179000D03*
X147421600Y-37719000D03*
X147421600Y-40259000D03*
X147421600Y-42799000D03*
X147421600Y-45339000D03*
X147421600Y-47879000D03*
X147421600Y-50419000D03*
X147421600Y-52959000D03*
X147421600Y-55499000D03*
X147421600Y-58039000D03*
X147421600Y-60579000D03*
X147421600Y-63119000D03*
X147421600Y-65659000D03*
X147421600Y-68199000D03*
D13*
X142390000Y-34420000D03*
D14*
X142390000Y-44580000D03*
X124610000Y-44580000D03*
X124610000Y-34420000D03*
D15*
X168000000Y-88750000D03*
X178100000Y-64650000D03*
X155950000Y-88750000D03*
X178250000Y-41900000D03*
X178100000Y-53850000D03*
X131950000Y-88650000D03*
X108000000Y-88700000D03*
X120050000Y-88750000D03*
X108000800Y-25933400D03*
X175133000Y-37947600D03*
X127152400Y-61925200D03*
X175000000Y-49300000D03*
X103124000Y-73939400D03*
X163093400Y-73939400D03*
X139141200Y-25908000D03*
X151104600Y-61849000D03*
X115138200Y-25933400D03*
X139115800Y-49911000D03*
X151130000Y-49911000D03*
X163093400Y-61849000D03*
X163093400Y-37871400D03*
X175133000Y-73914000D03*
X127152400Y-85928200D03*
X127152400Y-25933400D03*
X103098600Y-49936400D03*
X127127000Y-49911000D03*
X163144200Y-49936400D03*
X175133000Y-25933400D03*
X163118800Y-25908000D03*
X127127000Y-73914000D03*
X163093400Y-85902800D03*
X103149400Y-85953600D03*
X115138200Y-85953600D03*
X115112800Y-73939400D03*
X139115800Y-37947600D03*
X103149400Y-25933400D03*
X115112800Y-37947600D03*
X103149400Y-37922200D03*
X151104600Y-73939400D03*
X175158400Y-85902800D03*
X115087400Y-49936400D03*
X151104600Y-37871400D03*
X151104600Y-85902800D03*
X115112800Y-61925200D03*
X175050000Y-61300000D03*
X103124000Y-61925200D03*
X139141200Y-85928200D03*
X139141200Y-61925200D03*
X139115800Y-73914000D03*
X127101600Y-37947600D03*
X151104600Y-25933400D03*
D16*
X113075943Y-26670000D02*
X113081556Y-26675613D01*
X104687169Y-26670000D02*
X104692782Y-26675613D01*
X108081556Y-26670000D02*
X113075943Y-26670000D01*
X108075943Y-26675613D02*
X108081556Y-26670000D01*
X104692782Y-26675613D02*
X108075943Y-26675613D01*
X102131556Y-29225613D02*
X104687169Y-26670000D01*
X113081556Y-26675613D02*
X118281556Y-26675613D01*
X118281556Y-26675613D02*
X119031556Y-25925613D01*
X175000000Y-49300000D02*
X174750000Y-49050000D01*
X163093400Y-85902800D02*
X162366213Y-85175613D01*
X139141200Y-85928200D02*
X138388613Y-85175613D01*
X151831787Y-85175613D02*
X151104600Y-85902800D01*
X138388613Y-85175613D02*
X127904987Y-85175613D01*
X162366213Y-85175613D02*
X151831787Y-85175613D01*
X164030600Y-49050000D02*
X163144200Y-49936400D01*
X174750000Y-49050000D02*
X164030600Y-49050000D01*
X127904987Y-85175613D02*
X127152400Y-85928200D01*
X130281556Y-26675613D02*
X131031556Y-25925613D01*
X114131556Y-29225613D02*
X116281556Y-27075613D01*
X118447242Y-27075613D02*
X118847242Y-26675613D01*
X116281556Y-27075613D02*
X118447242Y-27075613D01*
X118847242Y-26675613D02*
X130281556Y-26675613D01*
X142281556Y-26675613D02*
X143031556Y-25925613D01*
X126131556Y-29225613D02*
X128281556Y-27075613D01*
X128281556Y-27075613D02*
X130447242Y-27075613D01*
X130847242Y-26675613D02*
X142281556Y-26675613D01*
X130447242Y-27075613D02*
X130847242Y-26675613D01*
X154281556Y-26675613D02*
X155031556Y-25925613D01*
X142447242Y-27075613D02*
X142847242Y-26675613D01*
X138131556Y-29225613D02*
X140281556Y-27075613D01*
X142847242Y-26675613D02*
X154281556Y-26675613D01*
X140281556Y-27075613D02*
X142447242Y-27075613D01*
X166281556Y-26675613D02*
X167031556Y-25925613D01*
X152281556Y-27075613D02*
X154447242Y-27075613D01*
X150131556Y-29225613D02*
X152281556Y-27075613D01*
X154847242Y-26675613D02*
X166281556Y-26675613D01*
X154447242Y-27075613D02*
X154847242Y-26675613D01*
X162131556Y-29225613D02*
X164281556Y-27075613D01*
X166447242Y-27075613D02*
X166847242Y-26675613D01*
X166847242Y-26675613D02*
X178281556Y-26675613D01*
X164281556Y-27075613D02*
X166447242Y-27075613D01*
X178281556Y-26675613D02*
X179031556Y-25925613D01*
X172369169Y-30988000D02*
X113969169Y-30988000D01*
X113969169Y-30988000D02*
X107031556Y-37925613D01*
X174131556Y-29225613D02*
X172369169Y-30988000D01*
X105127226Y-39116000D02*
X107578387Y-39116000D01*
X104184000Y-39116000D02*
X105156000Y-39116000D01*
X112014000Y-39116000D02*
X117784000Y-39116000D01*
X107365800Y-39116000D02*
X112572774Y-39116000D01*
X117784000Y-39116000D02*
X119000000Y-37900000D01*
X102100000Y-41200000D02*
X104184000Y-39116000D01*
X115352169Y-40005000D02*
X118511643Y-40005000D01*
X127508000Y-39116000D02*
X129841169Y-39116000D01*
X114131556Y-41225613D02*
X115352169Y-40005000D01*
X118511643Y-40005000D02*
X118943443Y-39573200D01*
X118943443Y-39573200D02*
X127050800Y-39573200D01*
X127050800Y-39573200D02*
X127508000Y-39116000D01*
X129841169Y-39116000D02*
X131031556Y-37925613D01*
X126117557Y-41259600D02*
X127168957Y-40208200D01*
X141759557Y-39217600D02*
X143017557Y-37959600D01*
X129921000Y-40208200D02*
X130911600Y-39217600D01*
X130911600Y-39217600D02*
X141759557Y-39217600D01*
X127168957Y-40208200D02*
X129921000Y-40208200D01*
X139640357Y-39827200D02*
X142849600Y-39827200D01*
X143789400Y-38887400D02*
X154180157Y-38887400D01*
X138030157Y-41437400D02*
X139640357Y-39827200D01*
X154180157Y-38887400D02*
X154930157Y-38137400D01*
X142849600Y-39827200D02*
X143789400Y-38887400D01*
X165735000Y-38684200D02*
X166493587Y-37925613D01*
X150131556Y-41225613D02*
X153231556Y-41225613D01*
X153231556Y-41225613D02*
X155772969Y-38684200D01*
X166493587Y-37925613D02*
X167031556Y-37925613D01*
X155772969Y-38684200D02*
X165735000Y-38684200D01*
X177706957Y-39109600D02*
X178856957Y-37959600D01*
X161956957Y-41259600D02*
X164106957Y-39109600D01*
X164106957Y-39109600D02*
X177706957Y-39109600D01*
X128050000Y-87200000D02*
X125700000Y-87200000D01*
X131031556Y-85925613D02*
X129324387Y-85925613D01*
X125700000Y-87200000D02*
X124800000Y-88100000D01*
X117741600Y-88100000D02*
X116601400Y-89240200D01*
X116601400Y-89240200D02*
X114179557Y-89240200D01*
X124800000Y-88100000D02*
X117741600Y-88100000D01*
X129324387Y-85925613D02*
X128050000Y-87200000D01*
X150500000Y-46600000D02*
X135400000Y-46600000D01*
X135332000Y-46532000D02*
X132688387Y-49175613D01*
X171496169Y-43861000D02*
X153239000Y-43861000D01*
X107781556Y-49175613D02*
X107031556Y-49925613D01*
X174131556Y-41225613D02*
X171496169Y-43861000D01*
X135400000Y-46600000D02*
X135332000Y-46532000D01*
X132688387Y-49175613D02*
X107781556Y-49175613D01*
X153239000Y-43861000D02*
X150500000Y-46600000D01*
X104252369Y-51104800D02*
X117795200Y-51104800D01*
X102131556Y-53225613D02*
X104252369Y-51104800D01*
X117795200Y-51104800D02*
X119000000Y-49900000D01*
X129338957Y-51714400D02*
X131079557Y-49973800D01*
X114179557Y-53273800D02*
X115738957Y-51714400D01*
X115738957Y-51714400D02*
X129338957Y-51714400D01*
X130874868Y-51141532D02*
X141773625Y-51141532D01*
X141773625Y-51141532D02*
X143017557Y-49897600D01*
X128790787Y-53225613D02*
X130874868Y-51141532D01*
X126145570Y-53225613D02*
X128790787Y-53225613D01*
X126117557Y-53197600D02*
X126145570Y-53225613D01*
X139693569Y-51663600D02*
X138131556Y-53225613D01*
X153265757Y-51663600D02*
X139693569Y-51663600D01*
X155031757Y-49897600D02*
X153265757Y-51663600D01*
X150893344Y-52475613D02*
X162315871Y-52475613D01*
X162315871Y-52475613D02*
X164843084Y-49948400D01*
X150120557Y-53248400D02*
X150893344Y-52475613D01*
X164843084Y-49948400D02*
X167020557Y-49948400D01*
X129085442Y-88500000D02*
X129785442Y-87800000D01*
X127009000Y-89291000D02*
X127800000Y-88500000D01*
X141259357Y-87800000D02*
X143068357Y-85991000D01*
X129785442Y-87800000D02*
X141259357Y-87800000D01*
X126168357Y-89291000D02*
X127009000Y-89291000D01*
X127800000Y-88500000D02*
X129085442Y-88500000D01*
X162131556Y-53225613D02*
X163744369Y-51612800D01*
X177344369Y-51612800D02*
X179031556Y-49925613D01*
X163744369Y-51612800D02*
X177344369Y-51612800D01*
X170380169Y-56977000D02*
X174131556Y-53225613D01*
X107031556Y-61925613D02*
X107997169Y-60960000D01*
X142998705Y-60960000D02*
X146981705Y-56977000D01*
X146981705Y-56977000D02*
X170380169Y-56977000D01*
X107997169Y-60960000D02*
X142998705Y-60960000D01*
X119031556Y-61925613D02*
X117863569Y-63093600D01*
X117863569Y-63093600D02*
X106350000Y-63093600D01*
X103116400Y-65227200D02*
X105250000Y-63093600D01*
X105250000Y-63093600D02*
X106350000Y-63093600D01*
X102133400Y-65227200D02*
X103116400Y-65227200D01*
X129688820Y-63277137D02*
X131054157Y-61911800D01*
X120212463Y-63277137D02*
X129688820Y-63277137D01*
X115611957Y-63754000D02*
X119735600Y-63754000D01*
X114154157Y-65211800D02*
X115611957Y-63754000D01*
X119735600Y-63754000D02*
X120212463Y-63277137D01*
X131151276Y-63158724D02*
X141821433Y-63158724D01*
X127385088Y-63995069D02*
X130314931Y-63995069D01*
X126168357Y-65211800D02*
X127385088Y-63995069D01*
X130314931Y-63995069D02*
X131151276Y-63158724D01*
X141821433Y-63158724D02*
X143068357Y-61911800D01*
X147048455Y-59351945D02*
X152370302Y-59351945D01*
X144970723Y-62522323D02*
X144970723Y-61429677D01*
X139643144Y-63802013D02*
X143691033Y-63802013D01*
X152370302Y-59351945D02*
X155031757Y-62013400D01*
X143691033Y-63802013D02*
X144970723Y-62522323D01*
X138131757Y-65313400D02*
X139643144Y-63802013D01*
X144970723Y-61429677D02*
X147048455Y-59351945D01*
X152997357Y-88000000D02*
X155057157Y-85940200D01*
X138157157Y-89240200D02*
X138231357Y-89314400D01*
X138231357Y-89314400D02*
X141142769Y-89314400D01*
X141142769Y-89314400D02*
X142457169Y-88000000D01*
X142457169Y-88000000D02*
X152997357Y-88000000D01*
X165870557Y-63061800D02*
X167020557Y-61911800D01*
X152270557Y-63061800D02*
X165870557Y-63061800D01*
X150120557Y-65211800D02*
X152270557Y-63061800D01*
X176554987Y-61925613D02*
X174083322Y-64397278D01*
X179031556Y-61925613D02*
X176554987Y-61925613D01*
X174083322Y-64397278D02*
X162959891Y-64397278D01*
X162959891Y-64397278D02*
X162131556Y-65225613D01*
X164033200Y-72542400D02*
X108414769Y-72542400D01*
X172351969Y-67005200D02*
X169570400Y-67005200D01*
X169570400Y-67005200D02*
X164033200Y-72542400D01*
X174131556Y-65225613D02*
X172351969Y-67005200D01*
X108414769Y-72542400D02*
X107031556Y-73925613D01*
X104223969Y-75133200D02*
X117790800Y-75133200D01*
X102131556Y-77225613D02*
X104223969Y-75133200D01*
X117790800Y-75133200D02*
X119008000Y-73916000D01*
X130329557Y-74676000D02*
X131079557Y-73926000D01*
X114179557Y-77226000D02*
X115205557Y-76200000D01*
X120954800Y-74676000D02*
X130329557Y-74676000D01*
X115205557Y-76200000D02*
X119430800Y-76200000D01*
X119430800Y-76200000D02*
X120954800Y-74676000D01*
X130606643Y-75562988D02*
X131199054Y-74970577D01*
X143031556Y-73925613D02*
X139952716Y-73925613D01*
X139952716Y-73925613D02*
X138907752Y-74970577D01*
X125990557Y-77175200D02*
X127602769Y-75562988D01*
X138907752Y-74970577D02*
X131199054Y-74970577D01*
X127602769Y-75562988D02*
X130606643Y-75562988D01*
X165761557Y-87250000D02*
X167045957Y-85965600D01*
X155300000Y-87250000D02*
X165761557Y-87250000D01*
X150145957Y-89265600D02*
X153284400Y-89265600D01*
X153284400Y-89265600D02*
X155300000Y-87250000D01*
X138157157Y-77124400D02*
X140307157Y-74974400D01*
X153907157Y-74974400D02*
X155057157Y-73824400D01*
X140307157Y-74974400D02*
X153907157Y-74974400D01*
X154937843Y-74777600D02*
X166372157Y-74777600D01*
X150222157Y-77327600D02*
X151653086Y-75896671D01*
X151653086Y-75896671D02*
X153818772Y-75896671D01*
X166372157Y-74777600D02*
X167122157Y-74027600D01*
X153818772Y-75896671D02*
X154937843Y-74777600D01*
X162109357Y-77378400D02*
X163998957Y-75488800D01*
X163998957Y-75488800D02*
X167030400Y-75488800D01*
X178056157Y-75031600D02*
X179009357Y-74078400D01*
X167487600Y-75031600D02*
X178056157Y-75031600D01*
X167030400Y-75488800D02*
X167487600Y-75031600D01*
X108757169Y-84200000D02*
X164350000Y-84200000D01*
X107031556Y-85925613D02*
X108757169Y-84200000D01*
X164350000Y-84200000D02*
X171324387Y-77225613D01*
X171324387Y-77225613D02*
X174131556Y-77225613D01*
X102131556Y-89225613D02*
X104207169Y-87150000D01*
X117788200Y-87150000D02*
X119008000Y-85930200D01*
X104207169Y-87150000D02*
X117788200Y-87150000D01*
X174024387Y-86675613D02*
X178197744Y-86675613D01*
X163457169Y-87900000D02*
X172800000Y-87900000D01*
X178197744Y-86675613D02*
X178958557Y-85914800D01*
X162058557Y-89214800D02*
X162069370Y-89225613D01*
X162131556Y-89225613D02*
X163457169Y-87900000D01*
X162069370Y-89225613D02*
X162131556Y-89225613D01*
X172800000Y-87900000D02*
X174024387Y-86675613D01*
G04 #@! TA.AperFunction,Conductor*
G36*
X179929500Y-50570683D02*
G01*
X179984677Y-50613546D01*
X180007922Y-50679435D01*
X180008100Y-50686073D01*
X180008100Y-61165152D01*
X179988415Y-61232191D01*
X179935611Y-61277946D01*
X179866453Y-61287890D01*
X179859910Y-61286770D01*
X179801304Y-61275113D01*
X178261808Y-61275113D01*
X178261803Y-61275113D01*
X178203326Y-61286744D01*
X178203325Y-61286745D01*
X178137003Y-61331060D01*
X178092688Y-61397382D01*
X178092687Y-61397383D01*
X178081056Y-61455860D01*
X178081056Y-61501113D01*
X178061371Y-61568152D01*
X178008567Y-61613907D01*
X177957056Y-61625113D01*
X176515425Y-61625113D01*
X176477211Y-61635352D01*
X176438996Y-61645592D01*
X176438991Y-61645595D01*
X176370482Y-61685148D01*
X176370474Y-61685154D01*
X173995170Y-64060459D01*
X173933847Y-64093944D01*
X173907489Y-64096778D01*
X170953929Y-64096778D01*
X170886890Y-64077093D01*
X170841135Y-64024289D01*
X170831191Y-63955131D01*
X170860216Y-63891575D01*
X170875264Y-63876925D01*
X170965483Y-63802883D01*
X171005101Y-63754609D01*
X171085762Y-63656324D01*
X171175137Y-63489115D01*
X171230173Y-63307683D01*
X171248757Y-63119000D01*
X171230173Y-62930317D01*
X171175137Y-62748885D01*
X171162360Y-62724981D01*
X171085765Y-62581681D01*
X171085761Y-62581674D01*
X170965483Y-62435116D01*
X170917047Y-62395365D01*
X173181056Y-62395365D01*
X173192687Y-62453842D01*
X173192688Y-62453843D01*
X173237003Y-62520165D01*
X173303325Y-62564480D01*
X173303326Y-62564481D01*
X173361803Y-62576112D01*
X173361806Y-62576113D01*
X173361808Y-62576113D01*
X174901306Y-62576113D01*
X174901307Y-62576112D01*
X174916124Y-62573165D01*
X174959785Y-62564481D01*
X174959785Y-62564480D01*
X174959787Y-62564480D01*
X175026108Y-62520165D01*
X175070423Y-62453844D01*
X175070423Y-62453842D01*
X175070424Y-62453842D01*
X175080844Y-62401452D01*
X175082056Y-62395361D01*
X175082056Y-61905042D01*
X175101741Y-61838003D01*
X175154545Y-61792248D01*
X175171111Y-61786068D01*
X175260053Y-61759953D01*
X175381128Y-61682143D01*
X175475377Y-61573373D01*
X175535165Y-61442457D01*
X175555647Y-61300000D01*
X175535165Y-61157543D01*
X175475377Y-61026627D01*
X175381128Y-60917857D01*
X175260053Y-60840047D01*
X175260051Y-60840046D01*
X175260049Y-60840045D01*
X175260050Y-60840045D01*
X175121963Y-60799500D01*
X175121961Y-60799500D01*
X174978039Y-60799500D01*
X174978036Y-60799500D01*
X174839949Y-60840045D01*
X174718873Y-60917856D01*
X174624623Y-61026626D01*
X174624622Y-61026628D01*
X174564835Y-61157541D01*
X174564834Y-61157546D01*
X174563222Y-61168760D01*
X174534197Y-61232316D01*
X174475419Y-61270090D01*
X174440484Y-61275113D01*
X173361803Y-61275113D01*
X173303326Y-61286744D01*
X173303325Y-61286745D01*
X173237003Y-61331060D01*
X173192688Y-61397382D01*
X173192687Y-61397383D01*
X173181056Y-61455860D01*
X173181056Y-62395365D01*
X170917047Y-62395365D01*
X170818925Y-62314838D01*
X170818918Y-62314834D01*
X170651722Y-62225466D01*
X170651719Y-62225465D01*
X170651718Y-62225464D01*
X170651715Y-62225463D01*
X170470283Y-62170427D01*
X170470281Y-62170426D01*
X170470283Y-62170426D01*
X170281600Y-62151843D01*
X170092918Y-62170426D01*
X169985794Y-62202921D01*
X169911485Y-62225463D01*
X169911482Y-62225464D01*
X169911480Y-62225465D01*
X169911477Y-62225466D01*
X169744281Y-62314834D01*
X169744274Y-62314838D01*
X169597716Y-62435116D01*
X169477438Y-62581674D01*
X169477434Y-62581681D01*
X169388066Y-62748877D01*
X169388065Y-62748880D01*
X169388064Y-62748882D01*
X169388063Y-62748885D01*
X169374651Y-62793100D01*
X169333026Y-62930318D01*
X169314443Y-63119000D01*
X169333026Y-63307681D01*
X169333027Y-63307683D01*
X169388063Y-63489115D01*
X169388064Y-63489118D01*
X169388065Y-63489119D01*
X169388066Y-63489122D01*
X169477434Y-63656318D01*
X169477438Y-63656325D01*
X169597716Y-63802883D01*
X169687936Y-63876925D01*
X169727270Y-63934671D01*
X169729141Y-64004516D01*
X169692953Y-64064284D01*
X169630197Y-64095000D01*
X169609271Y-64096778D01*
X162920329Y-64096778D01*
X162843901Y-64117256D01*
X162775380Y-64156818D01*
X162775377Y-64156820D01*
X162393404Y-64538794D01*
X162332081Y-64572279D01*
X162305723Y-64575113D01*
X161361803Y-64575113D01*
X161303326Y-64586744D01*
X161303325Y-64586745D01*
X161237003Y-64631060D01*
X161192688Y-64697382D01*
X161192687Y-64697383D01*
X161181056Y-64755860D01*
X161181056Y-65695365D01*
X161192687Y-65753842D01*
X161192688Y-65753843D01*
X161237003Y-65820165D01*
X161303325Y-65864480D01*
X161303326Y-65864481D01*
X161361803Y-65876112D01*
X161361806Y-65876113D01*
X161361808Y-65876113D01*
X162901306Y-65876113D01*
X162901307Y-65876112D01*
X162916124Y-65873165D01*
X162959785Y-65864481D01*
X162959785Y-65864480D01*
X162959787Y-65864480D01*
X163026108Y-65820165D01*
X163070423Y-65753844D01*
X163070423Y-65753842D01*
X163070424Y-65753842D01*
X163082055Y-65695365D01*
X163082056Y-65695363D01*
X163082056Y-64821778D01*
X163101741Y-64754739D01*
X163154545Y-64708984D01*
X163206056Y-64697778D01*
X169589098Y-64697778D01*
X169656137Y-64717463D01*
X169701892Y-64770267D01*
X169711836Y-64839425D01*
X169682811Y-64902981D01*
X169667763Y-64917631D01*
X169597716Y-64975116D01*
X169477438Y-65121674D01*
X169477434Y-65121681D01*
X169388066Y-65288877D01*
X169388065Y-65288880D01*
X169333026Y-65470318D01*
X169314443Y-65659000D01*
X169333026Y-65847681D01*
X169342511Y-65878947D01*
X169388063Y-66029115D01*
X169388064Y-66029118D01*
X169388065Y-66029119D01*
X169388066Y-66029122D01*
X169477434Y-66196318D01*
X169477438Y-66196325D01*
X169597716Y-66342883D01*
X169744274Y-66463161D01*
X169744281Y-66463165D01*
X169759578Y-66471342D01*
X169809422Y-66520304D01*
X169824883Y-66588442D01*
X169801051Y-66654121D01*
X169745494Y-66696490D01*
X169701125Y-66704700D01*
X169530838Y-66704700D01*
X169492624Y-66714939D01*
X169454409Y-66725179D01*
X169454404Y-66725182D01*
X169385895Y-66764735D01*
X169385887Y-66764741D01*
X163945048Y-72205581D01*
X163883725Y-72239066D01*
X163857367Y-72241900D01*
X108375207Y-72241900D01*
X108298779Y-72262378D01*
X108230258Y-72301940D01*
X108230255Y-72301942D01*
X107293404Y-73238794D01*
X107232081Y-73272279D01*
X107205723Y-73275113D01*
X106261803Y-73275113D01*
X106203326Y-73286744D01*
X106203325Y-73286745D01*
X106137003Y-73331060D01*
X106092688Y-73397382D01*
X106092687Y-73397383D01*
X106081056Y-73455860D01*
X106081056Y-74395365D01*
X106092687Y-74453842D01*
X106092688Y-74453843D01*
X106137003Y-74520165D01*
X106203325Y-74564480D01*
X106203326Y-74564481D01*
X106261803Y-74576112D01*
X106261806Y-74576113D01*
X106261808Y-74576113D01*
X107801306Y-74576113D01*
X107801307Y-74576112D01*
X107816124Y-74573165D01*
X107859785Y-74564481D01*
X107859785Y-74564480D01*
X107859787Y-74564480D01*
X107926108Y-74520165D01*
X107970423Y-74453844D01*
X107970423Y-74453842D01*
X107970424Y-74453842D01*
X107982055Y-74395365D01*
X113181056Y-74395365D01*
X113192687Y-74453842D01*
X113192688Y-74453843D01*
X113237003Y-74520165D01*
X113303325Y-74564480D01*
X113303326Y-74564481D01*
X113361803Y-74576112D01*
X113361806Y-74576113D01*
X113361808Y-74576113D01*
X114901306Y-74576113D01*
X114901307Y-74576112D01*
X114916124Y-74573165D01*
X114959785Y-74564481D01*
X114959785Y-74564480D01*
X114959787Y-74564480D01*
X115026108Y-74520165D01*
X115042917Y-74495009D01*
X115096529Y-74450204D01*
X115146019Y-74439900D01*
X115184762Y-74439900D01*
X115184762Y-74439899D01*
X115322853Y-74399353D01*
X115443928Y-74321543D01*
X115538177Y-74212773D01*
X115597965Y-74081857D01*
X115618447Y-73939400D01*
X115597965Y-73796943D01*
X115538177Y-73666027D01*
X115443928Y-73557257D01*
X115322853Y-73479447D01*
X115322851Y-73479446D01*
X115322849Y-73479445D01*
X115322850Y-73479445D01*
X115184763Y-73438900D01*
X115184761Y-73438900D01*
X115164443Y-73438900D01*
X115097404Y-73419215D01*
X115061342Y-73383792D01*
X115026108Y-73331061D01*
X114961500Y-73287890D01*
X114959786Y-73286745D01*
X114959785Y-73286744D01*
X114901308Y-73275113D01*
X114901304Y-73275113D01*
X113361808Y-73275113D01*
X113361803Y-73275113D01*
X113303326Y-73286744D01*
X113303325Y-73286745D01*
X113237003Y-73331060D01*
X113192688Y-73397382D01*
X113192687Y-73397383D01*
X113181056Y-73455860D01*
X113181056Y-74395365D01*
X107982055Y-74395365D01*
X107982056Y-74395363D01*
X107982056Y-73451445D01*
X108001741Y-73384406D01*
X108018375Y-73363764D01*
X108502921Y-72879219D01*
X108564244Y-72845734D01*
X108590602Y-72842900D01*
X164072760Y-72842900D01*
X164072762Y-72842900D01*
X164149189Y-72822421D01*
X164217711Y-72782860D01*
X164273660Y-72726911D01*
X169132241Y-67868329D01*
X169193562Y-67834846D01*
X169263254Y-67839830D01*
X169319187Y-67881702D01*
X169343604Y-67947166D01*
X169338581Y-67992005D01*
X169333027Y-68010313D01*
X169333026Y-68010316D01*
X169314443Y-68199000D01*
X169333026Y-68387681D01*
X169333027Y-68387683D01*
X169388063Y-68569115D01*
X169388064Y-68569118D01*
X169388065Y-68569119D01*
X169388066Y-68569122D01*
X169477434Y-68736318D01*
X169477438Y-68736325D01*
X169597716Y-68882883D01*
X169744274Y-69003161D01*
X169744281Y-69003165D01*
X169911477Y-69092533D01*
X169911478Y-69092533D01*
X169911485Y-69092537D01*
X170092917Y-69147573D01*
X170092916Y-69147573D01*
X170109833Y-69149239D01*
X170281600Y-69166157D01*
X170470283Y-69147573D01*
X170651715Y-69092537D01*
X170818924Y-69003162D01*
X170965483Y-68882883D01*
X171085762Y-68736324D01*
X171175137Y-68569115D01*
X171230173Y-68387683D01*
X171248757Y-68199000D01*
X171230173Y-68010317D01*
X171175137Y-67828885D01*
X171085762Y-67661676D01*
X171085761Y-67661674D01*
X170961619Y-67510408D01*
X170963222Y-67509092D01*
X170934263Y-67456058D01*
X170939247Y-67386366D01*
X170981119Y-67330433D01*
X171046583Y-67306016D01*
X171055429Y-67305700D01*
X172391529Y-67305700D01*
X172391531Y-67305700D01*
X172467958Y-67285221D01*
X172536480Y-67245660D01*
X172592429Y-67189711D01*
X173869708Y-65912432D01*
X173931031Y-65878947D01*
X173957389Y-65876113D01*
X174901306Y-65876113D01*
X174901307Y-65876112D01*
X174916124Y-65873165D01*
X174959785Y-65864481D01*
X174959785Y-65864480D01*
X174959787Y-65864480D01*
X175026108Y-65820165D01*
X175070423Y-65753844D01*
X175070423Y-65753842D01*
X175070424Y-65753842D01*
X175082055Y-65695365D01*
X175082056Y-65695363D01*
X175082056Y-64755862D01*
X175082055Y-64755860D01*
X175070424Y-64697383D01*
X175070423Y-64697382D01*
X175026108Y-64631060D01*
X174959786Y-64586745D01*
X174959785Y-64586744D01*
X174901308Y-64575113D01*
X174901304Y-64575113D01*
X174629820Y-64575113D01*
X174562781Y-64555428D01*
X174517026Y-64502624D01*
X174507082Y-64433466D01*
X174536107Y-64369910D01*
X174542139Y-64363432D01*
X176643139Y-62262432D01*
X176704462Y-62228947D01*
X176730820Y-62226113D01*
X177957056Y-62226113D01*
X178024095Y-62245798D01*
X178069850Y-62298602D01*
X178081056Y-62350113D01*
X178081056Y-62395365D01*
X178092687Y-62453842D01*
X178092688Y-62453843D01*
X178137003Y-62520165D01*
X178203325Y-62564480D01*
X178203326Y-62564481D01*
X178261803Y-62576112D01*
X178261806Y-62576113D01*
X178261808Y-62576113D01*
X179801306Y-62576113D01*
X179859908Y-62564456D01*
X179929500Y-62570683D01*
X179984677Y-62613546D01*
X180007922Y-62679435D01*
X180008100Y-62686073D01*
X180008100Y-73165152D01*
X179988415Y-73232191D01*
X179935611Y-73277946D01*
X179866453Y-73287890D01*
X179859910Y-73286770D01*
X179801304Y-73275113D01*
X178261808Y-73275113D01*
X178261803Y-73275113D01*
X178203326Y-73286744D01*
X178203325Y-73286745D01*
X178137003Y-73331060D01*
X178092688Y-73397382D01*
X178092687Y-73397383D01*
X178081056Y-73455860D01*
X178081056Y-74395365D01*
X178092687Y-74453842D01*
X178095031Y-74459499D01*
X178102500Y-74528968D01*
X178071225Y-74591448D01*
X178068152Y-74594632D01*
X177968006Y-74694780D01*
X177906683Y-74728266D01*
X177880324Y-74731100D01*
X175114536Y-74731100D01*
X175047497Y-74711415D01*
X175001742Y-74658611D01*
X174991798Y-74589453D01*
X175020823Y-74525897D01*
X175025976Y-74520362D01*
X175059889Y-74469609D01*
X175113501Y-74424804D01*
X175162991Y-74414500D01*
X175204962Y-74414500D01*
X175204962Y-74414499D01*
X175312121Y-74383035D01*
X175343050Y-74373954D01*
X175343050Y-74373953D01*
X175343053Y-74373953D01*
X175464128Y-74296143D01*
X175558377Y-74187373D01*
X175618165Y-74056457D01*
X175638647Y-73914000D01*
X175618165Y-73771543D01*
X175558377Y-73640627D01*
X175464128Y-73531857D01*
X175343053Y-73454047D01*
X175343051Y-73454046D01*
X175343049Y-73454045D01*
X175343050Y-73454045D01*
X175204963Y-73413500D01*
X175204961Y-73413500D01*
X175147472Y-73413500D01*
X175080433Y-73393815D01*
X175044370Y-73358391D01*
X175026108Y-73331060D01*
X174959786Y-73286745D01*
X174959785Y-73286744D01*
X174901308Y-73275113D01*
X174901304Y-73275113D01*
X173361808Y-73275113D01*
X173361803Y-73275113D01*
X173303326Y-73286744D01*
X173303325Y-73286745D01*
X173237003Y-73331060D01*
X173192688Y-73397382D01*
X173192687Y-73397383D01*
X173181056Y-73455860D01*
X173181056Y-74395365D01*
X173192687Y-74453842D01*
X173192688Y-74453843D01*
X173243789Y-74530320D01*
X173242631Y-74531093D01*
X173269742Y-74580742D01*
X173264758Y-74650434D01*
X173222886Y-74706367D01*
X173157422Y-74730784D01*
X173148576Y-74731100D01*
X168014536Y-74731100D01*
X167947497Y-74711415D01*
X167901742Y-74658611D01*
X167891798Y-74589453D01*
X167920823Y-74525897D01*
X167925976Y-74520362D01*
X167926108Y-74520165D01*
X167970423Y-74453844D01*
X167970423Y-74453842D01*
X167970424Y-74453842D01*
X167982055Y-74395365D01*
X167982056Y-74395363D01*
X167982056Y-73455862D01*
X167982055Y-73455860D01*
X167970424Y-73397383D01*
X167970423Y-73397382D01*
X167926108Y-73331060D01*
X167859786Y-73286745D01*
X167859785Y-73286744D01*
X167801308Y-73275113D01*
X167801304Y-73275113D01*
X166261808Y-73275113D01*
X166261803Y-73275113D01*
X166203326Y-73286744D01*
X166203325Y-73286745D01*
X166137003Y-73331060D01*
X166092688Y-73397382D01*
X166092687Y-73397383D01*
X166081056Y-73455860D01*
X166081056Y-74353100D01*
X166061371Y-74420139D01*
X166008567Y-74465894D01*
X165957056Y-74477100D01*
X163561259Y-74477100D01*
X163494220Y-74457415D01*
X163448465Y-74404611D01*
X163438521Y-74335453D01*
X163467546Y-74271898D01*
X163518774Y-74212777D01*
X163518774Y-74212775D01*
X163518777Y-74212773D01*
X163578565Y-74081857D01*
X163599047Y-73939400D01*
X163578565Y-73796943D01*
X163518777Y-73666027D01*
X163424528Y-73557257D01*
X163303453Y-73479447D01*
X163303451Y-73479446D01*
X163303449Y-73479445D01*
X163303450Y-73479445D01*
X163165363Y-73438900D01*
X163165361Y-73438900D01*
X163164443Y-73438900D01*
X163163561Y-73438641D01*
X163156584Y-73437638D01*
X163156728Y-73436634D01*
X163097404Y-73419215D01*
X163061342Y-73383792D01*
X163026108Y-73331061D01*
X162961500Y-73287890D01*
X162959786Y-73286745D01*
X162959785Y-73286744D01*
X162901308Y-73275113D01*
X162901304Y-73275113D01*
X161361808Y-73275113D01*
X161361803Y-73275113D01*
X161303326Y-73286744D01*
X161303325Y-73286745D01*
X161237003Y-73331060D01*
X161192688Y-73397382D01*
X161192687Y-73397383D01*
X161181056Y-73455860D01*
X161181056Y-74353100D01*
X161161371Y-74420139D01*
X161108567Y-74465894D01*
X161057056Y-74477100D01*
X156106056Y-74477100D01*
X156039017Y-74457415D01*
X155993262Y-74404611D01*
X155982056Y-74353100D01*
X155982056Y-73455862D01*
X155982055Y-73455860D01*
X155970424Y-73397383D01*
X155970423Y-73397382D01*
X155926108Y-73331060D01*
X155859786Y-73286745D01*
X155859785Y-73286744D01*
X155801308Y-73275113D01*
X155801304Y-73275113D01*
X154261808Y-73275113D01*
X154261803Y-73275113D01*
X154203326Y-73286744D01*
X154203325Y-73286745D01*
X154137003Y-73331060D01*
X154092688Y-73397382D01*
X154092687Y-73397383D01*
X154081056Y-73455860D01*
X154081056Y-74324168D01*
X154061371Y-74391207D01*
X154044737Y-74411849D01*
X153819005Y-74637581D01*
X153757682Y-74671066D01*
X153731324Y-74673900D01*
X151242070Y-74673900D01*
X151175031Y-74654215D01*
X151129276Y-74601411D01*
X151119332Y-74532253D01*
X151148357Y-74468697D01*
X151207135Y-74430923D01*
X151207136Y-74430923D01*
X151314650Y-74399354D01*
X151314650Y-74399353D01*
X151314653Y-74399353D01*
X151435728Y-74321543D01*
X151529977Y-74212773D01*
X151589765Y-74081857D01*
X151610247Y-73939400D01*
X151589765Y-73796943D01*
X151529977Y-73666027D01*
X151435728Y-73557257D01*
X151314653Y-73479447D01*
X151314651Y-73479446D01*
X151314649Y-73479445D01*
X151314650Y-73479445D01*
X151176563Y-73438900D01*
X151176561Y-73438900D01*
X151164443Y-73438900D01*
X151097404Y-73419215D01*
X151061342Y-73383792D01*
X151026108Y-73331061D01*
X150961500Y-73287890D01*
X150959786Y-73286745D01*
X150959785Y-73286744D01*
X150901308Y-73275113D01*
X150901304Y-73275113D01*
X149361808Y-73275113D01*
X149361803Y-73275113D01*
X149303326Y-73286744D01*
X149303325Y-73286745D01*
X149237003Y-73331060D01*
X149192688Y-73397382D01*
X149192687Y-73397383D01*
X149181056Y-73455860D01*
X149181056Y-74395365D01*
X149192687Y-74453842D01*
X149192688Y-74453843D01*
X149210840Y-74481009D01*
X149231718Y-74547686D01*
X149213234Y-74615066D01*
X149161255Y-74661757D01*
X149107738Y-74673900D01*
X144055374Y-74673900D01*
X143988335Y-74654215D01*
X143942580Y-74601411D01*
X143932636Y-74532253D01*
X143952272Y-74481009D01*
X143966644Y-74459499D01*
X143970423Y-74453844D01*
X143970423Y-74453842D01*
X143970424Y-74453842D01*
X143982055Y-74395365D01*
X143982056Y-74395363D01*
X143982056Y-73455862D01*
X143982055Y-73455860D01*
X143970424Y-73397383D01*
X143970423Y-73397382D01*
X143926108Y-73331060D01*
X143859786Y-73286745D01*
X143859785Y-73286744D01*
X143801308Y-73275113D01*
X143801304Y-73275113D01*
X142261808Y-73275113D01*
X142261803Y-73275113D01*
X142203326Y-73286744D01*
X142203325Y-73286745D01*
X142137003Y-73331060D01*
X142092688Y-73397382D01*
X142092687Y-73397383D01*
X142081056Y-73455860D01*
X142081056Y-73501113D01*
X142061371Y-73568152D01*
X142008567Y-73613907D01*
X141957056Y-73625113D01*
X139913154Y-73625113D01*
X139874940Y-73635352D01*
X139836725Y-73645592D01*
X139803821Y-73664590D01*
X139784651Y-73675658D01*
X139784649Y-73675658D01*
X139784649Y-73675659D01*
X139768208Y-73685150D01*
X139768202Y-73685155D01*
X139752594Y-73700763D01*
X139691270Y-73734247D01*
X139621579Y-73729261D01*
X139565646Y-73687388D01*
X139552122Y-73664594D01*
X139541177Y-73640627D01*
X139446928Y-73531857D01*
X139325853Y-73454047D01*
X139325851Y-73454046D01*
X139325849Y-73454045D01*
X139325850Y-73454045D01*
X139187763Y-73413500D01*
X139187761Y-73413500D01*
X139147472Y-73413500D01*
X139080433Y-73393815D01*
X139044370Y-73358391D01*
X139026108Y-73331060D01*
X138959786Y-73286745D01*
X138959785Y-73286744D01*
X138901308Y-73275113D01*
X138901304Y-73275113D01*
X137361808Y-73275113D01*
X137361803Y-73275113D01*
X137303326Y-73286744D01*
X137303325Y-73286745D01*
X137237003Y-73331060D01*
X137192688Y-73397382D01*
X137192687Y-73397383D01*
X137181056Y-73455860D01*
X137181056Y-74395365D01*
X137192687Y-74453842D01*
X137192688Y-74453844D01*
X137208285Y-74477185D01*
X137229164Y-74543862D01*
X137210680Y-74611242D01*
X137158702Y-74657933D01*
X137105184Y-74670077D01*
X132057928Y-74670077D01*
X131990889Y-74650392D01*
X131945134Y-74597588D01*
X131935190Y-74528430D01*
X131954827Y-74477185D01*
X131970423Y-74453844D01*
X131970424Y-74453842D01*
X131982055Y-74395365D01*
X131982056Y-74395363D01*
X131982056Y-73455862D01*
X131982055Y-73455860D01*
X131970424Y-73397383D01*
X131970423Y-73397382D01*
X131926108Y-73331060D01*
X131859786Y-73286745D01*
X131859785Y-73286744D01*
X131801308Y-73275113D01*
X131801304Y-73275113D01*
X130261808Y-73275113D01*
X130261803Y-73275113D01*
X130203326Y-73286744D01*
X130203325Y-73286745D01*
X130137003Y-73331060D01*
X130092688Y-73397382D01*
X130092687Y-73397383D01*
X130081056Y-73455860D01*
X130081056Y-74251500D01*
X130061371Y-74318539D01*
X130008567Y-74364294D01*
X129957056Y-74375500D01*
X127658564Y-74375500D01*
X127591525Y-74355815D01*
X127545770Y-74303011D01*
X127535826Y-74233853D01*
X127549941Y-74196010D01*
X127548693Y-74195440D01*
X127600565Y-74081857D01*
X127612165Y-74056457D01*
X127632647Y-73914000D01*
X127612165Y-73771543D01*
X127552377Y-73640627D01*
X127458128Y-73531857D01*
X127337053Y-73454047D01*
X127337051Y-73454046D01*
X127337049Y-73454045D01*
X127337050Y-73454045D01*
X127198963Y-73413500D01*
X127198961Y-73413500D01*
X127147472Y-73413500D01*
X127080433Y-73393815D01*
X127044370Y-73358391D01*
X127026108Y-73331060D01*
X126959786Y-73286745D01*
X126959785Y-73286744D01*
X126901308Y-73275113D01*
X126901304Y-73275113D01*
X125361808Y-73275113D01*
X125361803Y-73275113D01*
X125303326Y-73286744D01*
X125303325Y-73286745D01*
X125237003Y-73331060D01*
X125192688Y-73397382D01*
X125192687Y-73397383D01*
X125181056Y-73455860D01*
X125181056Y-74251500D01*
X125161371Y-74318539D01*
X125108567Y-74364294D01*
X125057056Y-74375500D01*
X120915238Y-74375500D01*
X120864286Y-74389152D01*
X120838810Y-74395979D01*
X120806734Y-74414499D01*
X120806732Y-74414500D01*
X120770290Y-74435539D01*
X120770287Y-74435541D01*
X119342648Y-75863181D01*
X119281325Y-75896666D01*
X119254967Y-75899500D01*
X115165995Y-75899500D01*
X115127781Y-75909739D01*
X115089566Y-75919979D01*
X115089561Y-75919982D01*
X115021052Y-75959535D01*
X115021044Y-75959541D01*
X114441792Y-76538794D01*
X114380469Y-76572279D01*
X114354111Y-76575113D01*
X113361803Y-76575113D01*
X113303326Y-76586744D01*
X113303325Y-76586745D01*
X113237003Y-76631060D01*
X113192688Y-76697382D01*
X113192687Y-76697383D01*
X113181056Y-76755860D01*
X113181056Y-77695365D01*
X113192687Y-77753842D01*
X113192688Y-77753843D01*
X113237003Y-77820165D01*
X113303325Y-77864480D01*
X113303326Y-77864481D01*
X113361803Y-77876112D01*
X113361806Y-77876113D01*
X113361808Y-77876113D01*
X114901306Y-77876113D01*
X114901307Y-77876112D01*
X114916124Y-77873165D01*
X114959785Y-77864481D01*
X114959785Y-77864480D01*
X114959787Y-77864480D01*
X115026108Y-77820165D01*
X115070423Y-77753844D01*
X115070423Y-77753842D01*
X115070424Y-77753842D01*
X115082055Y-77695365D01*
X115082056Y-77695363D01*
X115082056Y-76799833D01*
X115101741Y-76732794D01*
X115118375Y-76712152D01*
X115293709Y-76536819D01*
X115355032Y-76503334D01*
X115381390Y-76500500D01*
X119470360Y-76500500D01*
X119470362Y-76500500D01*
X119546789Y-76480021D01*
X119615311Y-76440460D01*
X119671260Y-76384511D01*
X121042952Y-75012819D01*
X121104275Y-74979334D01*
X121130633Y-74976500D01*
X130369117Y-74976500D01*
X130369119Y-74976500D01*
X130445546Y-74956021D01*
X130445549Y-74956018D01*
X130453056Y-74952910D01*
X130454036Y-74955276D01*
X130509507Y-74941810D01*
X130575538Y-74964651D01*
X130618737Y-75019565D01*
X130625390Y-75089118D01*
X130593384Y-75151225D01*
X130591309Y-75153351D01*
X130518489Y-75226170D01*
X130457169Y-75259654D01*
X130430810Y-75262488D01*
X127563207Y-75262488D01*
X127531153Y-75271077D01*
X127486778Y-75282967D01*
X127486777Y-75282968D01*
X127449849Y-75304289D01*
X127440463Y-75309707D01*
X127418258Y-75322527D01*
X127418256Y-75322529D01*
X126201992Y-76538794D01*
X126140669Y-76572279D01*
X126114311Y-76575113D01*
X125361803Y-76575113D01*
X125303326Y-76586744D01*
X125303325Y-76586745D01*
X125237003Y-76631060D01*
X125192688Y-76697382D01*
X125192687Y-76697383D01*
X125181056Y-76755860D01*
X125181056Y-77695365D01*
X125192687Y-77753842D01*
X125192688Y-77753843D01*
X125237003Y-77820165D01*
X125303325Y-77864480D01*
X125303326Y-77864481D01*
X125361803Y-77876112D01*
X125361806Y-77876113D01*
X125361808Y-77876113D01*
X126901306Y-77876113D01*
X126901307Y-77876112D01*
X126916124Y-77873165D01*
X126959785Y-77864481D01*
X126959785Y-77864480D01*
X126959787Y-77864480D01*
X127026108Y-77820165D01*
X127070423Y-77753844D01*
X127070423Y-77753842D01*
X127070424Y-77753842D01*
X127082055Y-77695365D01*
X127082056Y-77695363D01*
X127082056Y-76755862D01*
X127082055Y-76755860D01*
X127070424Y-76697383D01*
X127070423Y-76697381D01*
X127056033Y-76675846D01*
X127035154Y-76609169D01*
X127053638Y-76541789D01*
X127071448Y-76519278D01*
X127690921Y-75899807D01*
X127752244Y-75866322D01*
X127778602Y-75863488D01*
X130646203Y-75863488D01*
X130646205Y-75863488D01*
X130722632Y-75843009D01*
X130791154Y-75803448D01*
X130847103Y-75747499D01*
X131287206Y-75307396D01*
X131348529Y-75273911D01*
X131374887Y-75271077D01*
X138947312Y-75271077D01*
X138947314Y-75271077D01*
X139023741Y-75250598D01*
X139092263Y-75211037D01*
X139148212Y-75155088D01*
X140040868Y-74262432D01*
X140102191Y-74228947D01*
X140128549Y-74226113D01*
X141957056Y-74226113D01*
X142024095Y-74245798D01*
X142069850Y-74298602D01*
X142081056Y-74350113D01*
X142081056Y-74395365D01*
X142092687Y-74453842D01*
X142092688Y-74453843D01*
X142110840Y-74481009D01*
X142131718Y-74547686D01*
X142113234Y-74615066D01*
X142061255Y-74661757D01*
X142007738Y-74673900D01*
X140267595Y-74673900D01*
X140246939Y-74679435D01*
X140191165Y-74694379D01*
X140191162Y-74694381D01*
X140154479Y-74715561D01*
X140154478Y-74715562D01*
X140150671Y-74717760D01*
X140122646Y-74733939D01*
X140122644Y-74733941D01*
X138317792Y-76538794D01*
X138256469Y-76572279D01*
X138230111Y-76575113D01*
X137361803Y-76575113D01*
X137303326Y-76586744D01*
X137303325Y-76586745D01*
X137237003Y-76631060D01*
X137192688Y-76697382D01*
X137192687Y-76697383D01*
X137181056Y-76755860D01*
X137181056Y-77695365D01*
X137192687Y-77753842D01*
X137192688Y-77753843D01*
X137237003Y-77820165D01*
X137303325Y-77864480D01*
X137303326Y-77864481D01*
X137361803Y-77876112D01*
X137361806Y-77876113D01*
X137361808Y-77876113D01*
X138901306Y-77876113D01*
X138901307Y-77876112D01*
X138916124Y-77873165D01*
X138959785Y-77864481D01*
X138959785Y-77864480D01*
X138959787Y-77864480D01*
X139026108Y-77820165D01*
X139070423Y-77753844D01*
X139070423Y-77753842D01*
X139070424Y-77753842D01*
X139082055Y-77695365D01*
X139082056Y-77695363D01*
X139082056Y-76755862D01*
X139073187Y-76711276D01*
X139079414Y-76641684D01*
X139107121Y-76599406D01*
X140395309Y-75311219D01*
X140456632Y-75277734D01*
X140482990Y-75274900D01*
X153716210Y-75274900D01*
X153783249Y-75294585D01*
X153829004Y-75347389D01*
X153838948Y-75416547D01*
X153809923Y-75480103D01*
X153803891Y-75486581D01*
X153730620Y-75559852D01*
X153669297Y-75593337D01*
X153642939Y-75596171D01*
X151613524Y-75596171D01*
X151575310Y-75606410D01*
X151537095Y-75616650D01*
X151537090Y-75616653D01*
X151468581Y-75656206D01*
X151468573Y-75656212D01*
X150585992Y-76538794D01*
X150524669Y-76572279D01*
X150498311Y-76575113D01*
X149361803Y-76575113D01*
X149303326Y-76586744D01*
X149303325Y-76586745D01*
X149237003Y-76631060D01*
X149192688Y-76697382D01*
X149192687Y-76697383D01*
X149181056Y-76755860D01*
X149181056Y-77695365D01*
X149192687Y-77753842D01*
X149192688Y-77753843D01*
X149237003Y-77820165D01*
X149303325Y-77864480D01*
X149303326Y-77864481D01*
X149361803Y-77876112D01*
X149361806Y-77876113D01*
X149361808Y-77876113D01*
X150901306Y-77876113D01*
X150901307Y-77876112D01*
X150916124Y-77873165D01*
X150959785Y-77864481D01*
X150959785Y-77864480D01*
X150959787Y-77864480D01*
X151026108Y-77820165D01*
X151070423Y-77753844D01*
X151070423Y-77753842D01*
X151070424Y-77753842D01*
X151082055Y-77695365D01*
X151082056Y-77695363D01*
X151082056Y-76944034D01*
X151101741Y-76876995D01*
X151118375Y-76856353D01*
X151741238Y-76233490D01*
X151802561Y-76200005D01*
X151828919Y-76197171D01*
X153858332Y-76197171D01*
X153858334Y-76197171D01*
X153934761Y-76176692D01*
X154003283Y-76137131D01*
X154059232Y-76081182D01*
X155025995Y-75114419D01*
X155087318Y-75080934D01*
X155113676Y-75078100D01*
X163685324Y-75078100D01*
X163752363Y-75097785D01*
X163798118Y-75150589D01*
X163808062Y-75219747D01*
X163779037Y-75283303D01*
X163773005Y-75289781D01*
X162523992Y-76538794D01*
X162462669Y-76572279D01*
X162436311Y-76575113D01*
X161361803Y-76575113D01*
X161303326Y-76586744D01*
X161303325Y-76586745D01*
X161237003Y-76631060D01*
X161192688Y-76697382D01*
X161192687Y-76697383D01*
X161181056Y-76755860D01*
X161181056Y-77695365D01*
X161192687Y-77753842D01*
X161192688Y-77753843D01*
X161237003Y-77820165D01*
X161303325Y-77864480D01*
X161303326Y-77864481D01*
X161361803Y-77876112D01*
X161361806Y-77876113D01*
X161361808Y-77876113D01*
X162901306Y-77876113D01*
X162901307Y-77876112D01*
X162916124Y-77873165D01*
X162959785Y-77864481D01*
X162959785Y-77864480D01*
X162959787Y-77864480D01*
X163026108Y-77820165D01*
X163070423Y-77753844D01*
X163070423Y-77753842D01*
X163070424Y-77753842D01*
X163082055Y-77695365D01*
X163082056Y-77695363D01*
X163082056Y-76882034D01*
X163101741Y-76814995D01*
X163118375Y-76794353D01*
X164087109Y-75825619D01*
X164148432Y-75792134D01*
X164174790Y-75789300D01*
X167069960Y-75789300D01*
X167069962Y-75789300D01*
X167146389Y-75768821D01*
X167214911Y-75729260D01*
X167270860Y-75673311D01*
X167575752Y-75368419D01*
X167637075Y-75334934D01*
X167663433Y-75332100D01*
X178095717Y-75332100D01*
X178095719Y-75332100D01*
X178172146Y-75311621D01*
X178240668Y-75272060D01*
X178296617Y-75216111D01*
X178900296Y-74612432D01*
X178961619Y-74578947D01*
X178987977Y-74576113D01*
X179801306Y-74576113D01*
X179859908Y-74564456D01*
X179929500Y-74570683D01*
X179984677Y-74613546D01*
X180007922Y-74679435D01*
X180008100Y-74686073D01*
X180008100Y-85165152D01*
X179988415Y-85232191D01*
X179935611Y-85277946D01*
X179866453Y-85287890D01*
X179859910Y-85286770D01*
X179801304Y-85275113D01*
X178261808Y-85275113D01*
X178261803Y-85275113D01*
X178203326Y-85286744D01*
X178203325Y-85286745D01*
X178137003Y-85331060D01*
X178092688Y-85397382D01*
X178092687Y-85397383D01*
X178081056Y-85455860D01*
X178081056Y-86251113D01*
X178061371Y-86318152D01*
X178008567Y-86363907D01*
X177957056Y-86375113D01*
X175682917Y-86375113D01*
X175615878Y-86355428D01*
X175570123Y-86302624D01*
X175560179Y-86233466D01*
X175582031Y-86185593D01*
X175578982Y-86183634D01*
X175583772Y-86176178D01*
X175583777Y-86176173D01*
X175643565Y-86045257D01*
X175664047Y-85902800D01*
X175643565Y-85760343D01*
X175583777Y-85629427D01*
X175489528Y-85520657D01*
X175368453Y-85442847D01*
X175368451Y-85442846D01*
X175368449Y-85442845D01*
X175368450Y-85442845D01*
X175230363Y-85402300D01*
X175230361Y-85402300D01*
X175139988Y-85402300D01*
X175072949Y-85382615D01*
X175036886Y-85347191D01*
X175026108Y-85331060D01*
X174959786Y-85286745D01*
X174959785Y-85286744D01*
X174901308Y-85275113D01*
X174901304Y-85275113D01*
X173361808Y-85275113D01*
X173361803Y-85275113D01*
X173303326Y-85286744D01*
X173303325Y-85286745D01*
X173237003Y-85331060D01*
X173192688Y-85397382D01*
X173192687Y-85397383D01*
X173181056Y-85455860D01*
X173181056Y-86395365D01*
X173192687Y-86453842D01*
X173192688Y-86453843D01*
X173237003Y-86520165D01*
X173303325Y-86564480D01*
X173303326Y-86564481D01*
X173361803Y-86576112D01*
X173361806Y-86576113D01*
X173361808Y-86576113D01*
X173399554Y-86576113D01*
X173466593Y-86595798D01*
X173512348Y-86648602D01*
X173522292Y-86717760D01*
X173493267Y-86781316D01*
X173487235Y-86787794D01*
X172711848Y-87563181D01*
X172650525Y-87596666D01*
X172624167Y-87599500D01*
X166136390Y-87599500D01*
X166069351Y-87579815D01*
X166023596Y-87527011D01*
X166013652Y-87457853D01*
X166042677Y-87394297D01*
X166048709Y-87387819D01*
X166824096Y-86612432D01*
X166885419Y-86578947D01*
X166911777Y-86576113D01*
X167801306Y-86576113D01*
X167801307Y-86576112D01*
X167816124Y-86573165D01*
X167859785Y-86564481D01*
X167859785Y-86564480D01*
X167859787Y-86564480D01*
X167926108Y-86520165D01*
X167970423Y-86453844D01*
X167970423Y-86453842D01*
X167970424Y-86453842D01*
X167982055Y-86395365D01*
X167982056Y-86395363D01*
X167982056Y-85455862D01*
X167982055Y-85455860D01*
X167970424Y-85397383D01*
X167970423Y-85397382D01*
X167926108Y-85331060D01*
X167859786Y-85286745D01*
X167859785Y-85286744D01*
X167801308Y-85275113D01*
X167801304Y-85275113D01*
X166261808Y-85275113D01*
X166261803Y-85275113D01*
X166203326Y-85286744D01*
X166203325Y-85286745D01*
X166137003Y-85331060D01*
X166092688Y-85397382D01*
X166092687Y-85397383D01*
X166081056Y-85455860D01*
X166081056Y-86395365D01*
X166086403Y-86422246D01*
X166080176Y-86491838D01*
X166052467Y-86534118D01*
X165673405Y-86913181D01*
X165612082Y-86946666D01*
X165585724Y-86949500D01*
X155260438Y-86949500D01*
X155229867Y-86957691D01*
X155184008Y-86969979D01*
X155173386Y-86976113D01*
X155173384Y-86976114D01*
X155150920Y-86989083D01*
X155115490Y-87009539D01*
X155115487Y-87009541D01*
X153196248Y-88928781D01*
X153134925Y-88962266D01*
X153108567Y-88965100D01*
X151206056Y-88965100D01*
X151139017Y-88945415D01*
X151093262Y-88892611D01*
X151082056Y-88841100D01*
X151082056Y-88755862D01*
X151082055Y-88755860D01*
X151070424Y-88697383D01*
X151070423Y-88697382D01*
X151026108Y-88631060D01*
X150959786Y-88586745D01*
X150959785Y-88586744D01*
X150901308Y-88575113D01*
X150901304Y-88575113D01*
X149361808Y-88575113D01*
X149361803Y-88575113D01*
X149303326Y-88586744D01*
X149303325Y-88586745D01*
X149237003Y-88631060D01*
X149192688Y-88697382D01*
X149192687Y-88697383D01*
X149181056Y-88755860D01*
X149181056Y-89695365D01*
X149195048Y-89765709D01*
X149188821Y-89835301D01*
X149145957Y-89890478D01*
X149080067Y-89913722D01*
X149073431Y-89913900D01*
X139189681Y-89913900D01*
X139122642Y-89894215D01*
X139076887Y-89841411D01*
X139066943Y-89772253D01*
X139068063Y-89765710D01*
X139078207Y-89714710D01*
X139110592Y-89652799D01*
X139171307Y-89618224D01*
X139199825Y-89614900D01*
X141182329Y-89614900D01*
X141182331Y-89614900D01*
X141258758Y-89594421D01*
X141327280Y-89554860D01*
X141383229Y-89498911D01*
X142545321Y-88336819D01*
X142606644Y-88303334D01*
X142633002Y-88300500D01*
X153036917Y-88300500D01*
X153036919Y-88300500D01*
X153113346Y-88280021D01*
X153181868Y-88240460D01*
X153237817Y-88184511D01*
X154809896Y-86612432D01*
X154871219Y-86578947D01*
X154897577Y-86576113D01*
X155801306Y-86576113D01*
X155801307Y-86576112D01*
X155816124Y-86573165D01*
X155859785Y-86564481D01*
X155859785Y-86564480D01*
X155859787Y-86564480D01*
X155926108Y-86520165D01*
X155970423Y-86453844D01*
X155970423Y-86453842D01*
X155970424Y-86453842D01*
X155982055Y-86395365D01*
X155982056Y-86395363D01*
X155982056Y-85600113D01*
X156001741Y-85533074D01*
X156054545Y-85487319D01*
X156106056Y-85476113D01*
X161057056Y-85476113D01*
X161124095Y-85495798D01*
X161169850Y-85548602D01*
X161181056Y-85600113D01*
X161181056Y-86395365D01*
X161192687Y-86453842D01*
X161192688Y-86453843D01*
X161237003Y-86520165D01*
X161303325Y-86564480D01*
X161303326Y-86564481D01*
X161361803Y-86576112D01*
X161361806Y-86576113D01*
X161361808Y-86576113D01*
X162901306Y-86576113D01*
X162901307Y-86576112D01*
X162916124Y-86573165D01*
X162959785Y-86564481D01*
X162959785Y-86564480D01*
X162959787Y-86564480D01*
X163026108Y-86520165D01*
X163052951Y-86479992D01*
X163067373Y-86458409D01*
X163120986Y-86413604D01*
X163156811Y-86406144D01*
X163156584Y-86404562D01*
X163165356Y-86403300D01*
X163165361Y-86403300D01*
X163303453Y-86362753D01*
X163424528Y-86284943D01*
X163518777Y-86176173D01*
X163578565Y-86045257D01*
X163599047Y-85902800D01*
X163578565Y-85760343D01*
X163518777Y-85629427D01*
X163424528Y-85520657D01*
X163303453Y-85442847D01*
X163303451Y-85442846D01*
X163303449Y-85442845D01*
X163303450Y-85442845D01*
X163165363Y-85402300D01*
X163165361Y-85402300D01*
X163139988Y-85402300D01*
X163072949Y-85382615D01*
X163036886Y-85347191D01*
X163026108Y-85331060D01*
X162959786Y-85286745D01*
X162924937Y-85279813D01*
X162863026Y-85247428D01*
X162861448Y-85245877D01*
X162550725Y-84935154D01*
X162550717Y-84935148D01*
X162482208Y-84895595D01*
X162482203Y-84895592D01*
X162456726Y-84888765D01*
X162405775Y-84875113D01*
X151871349Y-84875113D01*
X151792225Y-84875113D01*
X151715797Y-84895591D01*
X151647276Y-84935153D01*
X151647273Y-84935155D01*
X151223174Y-85359253D01*
X151161851Y-85392738D01*
X151092159Y-85387754D01*
X151036226Y-85345882D01*
X151032392Y-85340464D01*
X151026109Y-85331061D01*
X150959786Y-85286745D01*
X150959785Y-85286744D01*
X150901308Y-85275113D01*
X150901304Y-85275113D01*
X149361808Y-85275113D01*
X149361803Y-85275113D01*
X149303326Y-85286744D01*
X149303325Y-85286745D01*
X149237003Y-85331060D01*
X149192688Y-85397382D01*
X149192687Y-85397383D01*
X149181056Y-85455860D01*
X149181056Y-86395365D01*
X149192687Y-86453842D01*
X149192688Y-86453843D01*
X149237003Y-86520165D01*
X149303325Y-86564480D01*
X149303326Y-86564481D01*
X149361803Y-86576112D01*
X149361806Y-86576113D01*
X149361808Y-86576113D01*
X150901306Y-86576113D01*
X150901307Y-86576112D01*
X150916124Y-86573165D01*
X150959785Y-86564481D01*
X150959785Y-86564480D01*
X150959787Y-86564480D01*
X151026108Y-86520165D01*
X151052951Y-86479992D01*
X151067373Y-86458409D01*
X151120986Y-86413604D01*
X151170475Y-86403300D01*
X151176562Y-86403300D01*
X151176562Y-86403299D01*
X151314653Y-86362753D01*
X151435728Y-86284943D01*
X151529977Y-86176173D01*
X151589765Y-86045257D01*
X151610247Y-85902800D01*
X151608939Y-85893705D01*
X151618879Y-85824549D01*
X151643990Y-85788379D01*
X151919940Y-85512429D01*
X151981262Y-85478947D01*
X152007620Y-85476113D01*
X153957056Y-85476113D01*
X154024095Y-85495798D01*
X154069850Y-85548602D01*
X154081056Y-85600113D01*
X154081056Y-86395361D01*
X154081056Y-86395363D01*
X154081055Y-86395363D01*
X154084047Y-86410400D01*
X154077820Y-86479992D01*
X154050111Y-86522273D01*
X152909205Y-87663181D01*
X152847882Y-87696666D01*
X152821524Y-87699500D01*
X142417607Y-87699500D01*
X142379393Y-87709739D01*
X142341178Y-87719979D01*
X142341173Y-87719982D01*
X142272664Y-87759535D01*
X142272656Y-87759541D01*
X141054617Y-88977581D01*
X140993294Y-89011066D01*
X140966936Y-89013900D01*
X139206056Y-89013900D01*
X139139017Y-88994215D01*
X139093262Y-88941411D01*
X139082056Y-88889900D01*
X139082056Y-88755862D01*
X139082055Y-88755860D01*
X139070424Y-88697383D01*
X139070423Y-88697382D01*
X139026108Y-88631060D01*
X138959786Y-88586745D01*
X138959785Y-88586744D01*
X138901308Y-88575113D01*
X138901304Y-88575113D01*
X137361808Y-88575113D01*
X137361803Y-88575113D01*
X137303326Y-88586744D01*
X137303325Y-88586745D01*
X137237003Y-88631060D01*
X137192688Y-88697382D01*
X137192687Y-88697383D01*
X137181056Y-88755860D01*
X137181056Y-89695365D01*
X137195048Y-89765709D01*
X137188821Y-89835301D01*
X137145957Y-89890478D01*
X137080067Y-89913722D01*
X137073431Y-89913900D01*
X127189681Y-89913900D01*
X127122642Y-89894215D01*
X127076887Y-89841411D01*
X127066943Y-89772253D01*
X127068064Y-89765709D01*
X127082055Y-89695365D01*
X127082056Y-89695363D01*
X127082056Y-89667399D01*
X127101741Y-89600360D01*
X127144056Y-89560012D01*
X127193511Y-89531460D01*
X127249460Y-89475511D01*
X127888152Y-88836819D01*
X127949475Y-88803334D01*
X127975833Y-88800500D01*
X129125002Y-88800500D01*
X129125004Y-88800500D01*
X129201431Y-88780021D01*
X129269953Y-88740460D01*
X129325902Y-88684511D01*
X129873594Y-88136819D01*
X129934917Y-88103334D01*
X129961275Y-88100500D01*
X141298917Y-88100500D01*
X141298919Y-88100500D01*
X141375346Y-88080021D01*
X141443868Y-88040460D01*
X141499817Y-87984511D01*
X142871896Y-86612432D01*
X142933219Y-86578947D01*
X142959577Y-86576113D01*
X143801306Y-86576113D01*
X143801307Y-86576112D01*
X143816124Y-86573165D01*
X143859785Y-86564481D01*
X143859785Y-86564480D01*
X143859787Y-86564480D01*
X143926108Y-86520165D01*
X143970423Y-86453844D01*
X143970423Y-86453842D01*
X143970424Y-86453842D01*
X143982055Y-86395365D01*
X143982056Y-86395363D01*
X143982056Y-85455862D01*
X143982055Y-85455860D01*
X143970424Y-85397383D01*
X143970423Y-85397382D01*
X143926108Y-85331060D01*
X143859786Y-85286745D01*
X143859785Y-85286744D01*
X143801308Y-85275113D01*
X143801304Y-85275113D01*
X142261808Y-85275113D01*
X142261803Y-85275113D01*
X142203326Y-85286744D01*
X142203325Y-85286745D01*
X142137003Y-85331060D01*
X142092688Y-85397382D01*
X142092687Y-85397383D01*
X142081056Y-85455860D01*
X142081056Y-85455865D01*
X142081056Y-86395361D01*
X142084675Y-86413553D01*
X142094334Y-86462116D01*
X142088105Y-86531707D01*
X142060397Y-86573987D01*
X141171205Y-87463181D01*
X141109882Y-87496666D01*
X141083524Y-87499500D01*
X129745880Y-87499500D01*
X129694928Y-87513152D01*
X129669452Y-87519979D01*
X129652060Y-87530021D01*
X129652059Y-87530021D01*
X129600934Y-87559537D01*
X129600929Y-87559541D01*
X128997290Y-88163181D01*
X128935967Y-88196666D01*
X128909609Y-88199500D01*
X127760438Y-88199500D01*
X127729867Y-88207691D01*
X127684008Y-88219979D01*
X127684007Y-88219980D01*
X127648538Y-88240459D01*
X127615492Y-88259537D01*
X127615487Y-88259541D01*
X127220210Y-88654818D01*
X127158887Y-88688303D01*
X127089195Y-88683319D01*
X127033262Y-88641447D01*
X127029426Y-88636027D01*
X127026107Y-88631060D01*
X126959786Y-88586745D01*
X126959785Y-88586744D01*
X126901308Y-88575113D01*
X126901304Y-88575113D01*
X125361808Y-88575113D01*
X125361803Y-88575113D01*
X125303326Y-88586744D01*
X125303325Y-88586745D01*
X125237003Y-88631060D01*
X125192688Y-88697382D01*
X125192687Y-88697383D01*
X125181056Y-88755860D01*
X125181056Y-89695365D01*
X125195048Y-89765709D01*
X125188821Y-89835301D01*
X125145957Y-89890478D01*
X125080067Y-89913722D01*
X125073431Y-89913900D01*
X115189681Y-89913900D01*
X115122642Y-89894215D01*
X115076887Y-89841411D01*
X115066943Y-89772253D01*
X115068064Y-89765709D01*
X115082055Y-89695365D01*
X115082056Y-89695363D01*
X115082056Y-89664700D01*
X115101741Y-89597661D01*
X115154545Y-89551906D01*
X115206056Y-89540700D01*
X116640960Y-89540700D01*
X116640962Y-89540700D01*
X116717389Y-89520221D01*
X116785911Y-89480660D01*
X116841860Y-89424711D01*
X117829752Y-88436819D01*
X117891075Y-88403334D01*
X117917433Y-88400500D01*
X124839560Y-88400500D01*
X124839562Y-88400500D01*
X124915989Y-88380021D01*
X124984511Y-88340460D01*
X125040460Y-88284511D01*
X125788152Y-87536819D01*
X125849475Y-87503334D01*
X125875833Y-87500500D01*
X128089560Y-87500500D01*
X128089562Y-87500500D01*
X128165989Y-87480021D01*
X128234511Y-87440460D01*
X128290460Y-87384511D01*
X129412539Y-86262432D01*
X129473862Y-86228947D01*
X129500220Y-86226113D01*
X129957056Y-86226113D01*
X130024095Y-86245798D01*
X130069850Y-86298602D01*
X130081056Y-86350113D01*
X130081056Y-86395365D01*
X130092687Y-86453842D01*
X130092688Y-86453843D01*
X130137003Y-86520165D01*
X130203325Y-86564480D01*
X130203326Y-86564481D01*
X130261803Y-86576112D01*
X130261806Y-86576113D01*
X130261808Y-86576113D01*
X131801306Y-86576113D01*
X131801307Y-86576112D01*
X131816124Y-86573165D01*
X131859785Y-86564481D01*
X131859785Y-86564480D01*
X131859787Y-86564480D01*
X131926108Y-86520165D01*
X131970423Y-86453844D01*
X131970423Y-86453842D01*
X131970424Y-86453842D01*
X131982055Y-86395365D01*
X131982056Y-86395363D01*
X131982056Y-85600113D01*
X132001741Y-85533074D01*
X132054545Y-85487319D01*
X132106056Y-85476113D01*
X137057056Y-85476113D01*
X137124095Y-85495798D01*
X137169850Y-85548602D01*
X137181056Y-85600113D01*
X137181056Y-86395365D01*
X137192687Y-86453842D01*
X137192688Y-86453843D01*
X137237003Y-86520165D01*
X137303325Y-86564480D01*
X137303326Y-86564481D01*
X137361803Y-86576112D01*
X137361806Y-86576113D01*
X137361808Y-86576113D01*
X138901306Y-86576113D01*
X138901307Y-86576112D01*
X138916124Y-86573165D01*
X138959785Y-86564481D01*
X138959785Y-86564480D01*
X138959787Y-86564480D01*
X139026108Y-86520165D01*
X139050401Y-86483809D01*
X139104014Y-86439004D01*
X139153503Y-86428700D01*
X139213162Y-86428700D01*
X139213162Y-86428699D01*
X139351253Y-86388153D01*
X139472328Y-86310343D01*
X139566577Y-86201573D01*
X139626365Y-86070657D01*
X139646847Y-85928200D01*
X139626365Y-85785743D01*
X139566577Y-85654827D01*
X139472328Y-85546057D01*
X139351253Y-85468247D01*
X139351251Y-85468246D01*
X139351249Y-85468245D01*
X139351250Y-85468245D01*
X139213163Y-85427700D01*
X139213161Y-85427700D01*
X139156960Y-85427700D01*
X139089921Y-85408015D01*
X139053858Y-85372591D01*
X139026108Y-85331060D01*
X138959786Y-85286745D01*
X138952898Y-85285375D01*
X138890987Y-85252989D01*
X138889410Y-85251439D01*
X138573125Y-84935154D01*
X138573117Y-84935148D01*
X138504608Y-84895595D01*
X138504603Y-84895592D01*
X138479126Y-84888765D01*
X138428175Y-84875113D01*
X127944549Y-84875113D01*
X127865425Y-84875113D01*
X127788997Y-84895591D01*
X127720476Y-84935153D01*
X127720473Y-84935155D01*
X127264247Y-85391381D01*
X127202924Y-85424866D01*
X127176566Y-85427700D01*
X127156960Y-85427700D01*
X127089921Y-85408015D01*
X127053858Y-85372591D01*
X127026108Y-85331060D01*
X126959786Y-85286745D01*
X126959785Y-85286744D01*
X126901308Y-85275113D01*
X126901304Y-85275113D01*
X125361808Y-85275113D01*
X125361803Y-85275113D01*
X125303326Y-85286744D01*
X125303325Y-85286745D01*
X125237003Y-85331060D01*
X125192688Y-85397382D01*
X125192687Y-85397383D01*
X125181056Y-85455860D01*
X125181056Y-86395365D01*
X125192687Y-86453842D01*
X125192688Y-86453843D01*
X125237003Y-86520165D01*
X125303325Y-86564480D01*
X125303326Y-86564481D01*
X125361803Y-86576112D01*
X125361806Y-86576113D01*
X125361808Y-86576113D01*
X126901306Y-86576113D01*
X126901307Y-86576112D01*
X126916124Y-86573165D01*
X126959785Y-86564481D01*
X126959785Y-86564480D01*
X126959787Y-86564480D01*
X127026108Y-86520165D01*
X127050401Y-86483809D01*
X127104014Y-86439004D01*
X127153503Y-86428700D01*
X127224362Y-86428700D01*
X127224362Y-86428699D01*
X127362453Y-86388153D01*
X127483528Y-86310343D01*
X127577777Y-86201573D01*
X127637565Y-86070657D01*
X127658047Y-85928200D01*
X127656739Y-85919105D01*
X127666679Y-85849949D01*
X127691790Y-85813779D01*
X127993140Y-85512429D01*
X128054462Y-85478947D01*
X128080820Y-85476113D01*
X129049554Y-85476113D01*
X129116593Y-85495798D01*
X129162348Y-85548602D01*
X129172292Y-85617760D01*
X129143267Y-85681316D01*
X129137235Y-85687794D01*
X127961848Y-86863181D01*
X127900525Y-86896666D01*
X127874167Y-86899500D01*
X125660438Y-86899500D01*
X125622980Y-86909537D01*
X125584009Y-86919979D01*
X125584004Y-86919982D01*
X125515495Y-86959535D01*
X125515487Y-86959541D01*
X124711848Y-87763181D01*
X124650525Y-87796666D01*
X124624167Y-87799500D01*
X117702038Y-87799500D01*
X117663824Y-87809739D01*
X117625609Y-87819979D01*
X117625604Y-87819982D01*
X117557095Y-87859535D01*
X117557087Y-87859541D01*
X116513248Y-88903381D01*
X116451925Y-88936866D01*
X116425567Y-88939700D01*
X115206056Y-88939700D01*
X115139017Y-88920015D01*
X115093262Y-88867211D01*
X115082056Y-88815700D01*
X115082056Y-88755862D01*
X115082055Y-88755860D01*
X115070424Y-88697383D01*
X115070423Y-88697382D01*
X115026108Y-88631060D01*
X114959786Y-88586745D01*
X114959785Y-88586744D01*
X114901308Y-88575113D01*
X114901304Y-88575113D01*
X113361808Y-88575113D01*
X113361803Y-88575113D01*
X113303326Y-88586744D01*
X113303325Y-88586745D01*
X113237003Y-88631060D01*
X113192688Y-88697382D01*
X113192687Y-88697383D01*
X113181056Y-88755860D01*
X113181056Y-89695365D01*
X113195048Y-89765709D01*
X113188821Y-89835301D01*
X113145957Y-89890478D01*
X113080067Y-89913722D01*
X113073431Y-89913900D01*
X103189681Y-89913900D01*
X103122642Y-89894215D01*
X103076887Y-89841411D01*
X103066943Y-89772253D01*
X103068064Y-89765709D01*
X103082055Y-89695365D01*
X103082056Y-89695363D01*
X103082056Y-88751445D01*
X103101741Y-88684406D01*
X103118375Y-88663764D01*
X104295321Y-87486819D01*
X104356644Y-87453334D01*
X104383002Y-87450500D01*
X117827760Y-87450500D01*
X117827762Y-87450500D01*
X117904189Y-87430021D01*
X117972711Y-87390460D01*
X118028660Y-87334511D01*
X118750739Y-86612432D01*
X118812062Y-86578947D01*
X118838420Y-86576113D01*
X119801306Y-86576113D01*
X119801307Y-86576112D01*
X119816124Y-86573165D01*
X119859785Y-86564481D01*
X119859785Y-86564480D01*
X119859787Y-86564480D01*
X119926108Y-86520165D01*
X119970423Y-86453844D01*
X119970423Y-86453842D01*
X119970424Y-86453842D01*
X119982055Y-86395365D01*
X119982056Y-86395363D01*
X119982056Y-85455862D01*
X119982055Y-85455860D01*
X119970424Y-85397383D01*
X119970423Y-85397382D01*
X119926108Y-85331060D01*
X119859786Y-85286745D01*
X119859785Y-85286744D01*
X119801308Y-85275113D01*
X119801304Y-85275113D01*
X118261808Y-85275113D01*
X118261803Y-85275113D01*
X118203326Y-85286744D01*
X118203325Y-85286745D01*
X118137003Y-85331060D01*
X118092688Y-85397382D01*
X118092687Y-85397383D01*
X118081056Y-85455860D01*
X118081056Y-86380810D01*
X118061371Y-86447849D01*
X118044737Y-86468491D01*
X117700048Y-86813181D01*
X117638725Y-86846666D01*
X117612367Y-86849500D01*
X104167607Y-86849500D01*
X104129393Y-86859739D01*
X104091178Y-86869979D01*
X104057092Y-86889659D01*
X104040048Y-86899500D01*
X104040046Y-86899500D01*
X104040046Y-86899501D01*
X104022661Y-86909537D01*
X104022656Y-86909541D01*
X102393404Y-88538794D01*
X102332081Y-88572279D01*
X102305723Y-88575113D01*
X101361808Y-88575113D01*
X101323890Y-88582655D01*
X101254298Y-88576426D01*
X101199122Y-88533563D01*
X101175878Y-88467673D01*
X101175700Y-88461037D01*
X101175700Y-86690188D01*
X101195385Y-86623149D01*
X101248189Y-86577394D01*
X101317347Y-86567450D01*
X101323884Y-86568569D01*
X101334510Y-86570683D01*
X101361807Y-86576113D01*
X101361808Y-86576113D01*
X102901306Y-86576113D01*
X102901307Y-86576112D01*
X102916124Y-86573165D01*
X102959785Y-86564481D01*
X102959785Y-86564480D01*
X102959787Y-86564480D01*
X103026108Y-86520165D01*
X103033429Y-86509209D01*
X103087041Y-86464404D01*
X103136531Y-86454100D01*
X103221362Y-86454100D01*
X103221362Y-86454099D01*
X103329847Y-86422246D01*
X103359450Y-86413554D01*
X103359450Y-86413553D01*
X103359453Y-86413553D01*
X103387754Y-86395365D01*
X106081056Y-86395365D01*
X106092687Y-86453842D01*
X106092688Y-86453843D01*
X106137003Y-86520165D01*
X106203325Y-86564480D01*
X106203326Y-86564481D01*
X106261803Y-86576112D01*
X106261806Y-86576113D01*
X106261808Y-86576113D01*
X107801306Y-86576113D01*
X107801307Y-86576112D01*
X107816124Y-86573165D01*
X107859785Y-86564481D01*
X107859785Y-86564480D01*
X107859787Y-86564480D01*
X107926108Y-86520165D01*
X107970423Y-86453844D01*
X107970423Y-86453842D01*
X107970424Y-86453842D01*
X107982055Y-86395365D01*
X113181056Y-86395365D01*
X113192687Y-86453842D01*
X113192688Y-86453843D01*
X113237003Y-86520165D01*
X113303325Y-86564480D01*
X113303326Y-86564481D01*
X113361803Y-86576112D01*
X113361806Y-86576113D01*
X113361808Y-86576113D01*
X114901306Y-86576113D01*
X114901307Y-86576112D01*
X114916124Y-86573165D01*
X114959785Y-86564481D01*
X114959785Y-86564480D01*
X114959787Y-86564480D01*
X115026108Y-86520165D01*
X115033429Y-86509209D01*
X115087041Y-86464404D01*
X115136531Y-86454100D01*
X115210162Y-86454100D01*
X115210162Y-86454099D01*
X115318647Y-86422246D01*
X115348250Y-86413554D01*
X115348250Y-86413553D01*
X115348253Y-86413553D01*
X115469328Y-86335743D01*
X115563577Y-86226973D01*
X115623365Y-86096057D01*
X115643847Y-85953600D01*
X115623365Y-85811143D01*
X115563577Y-85680227D01*
X115469328Y-85571457D01*
X115348253Y-85493647D01*
X115348251Y-85493646D01*
X115348249Y-85493645D01*
X115348250Y-85493645D01*
X115210163Y-85453100D01*
X115210161Y-85453100D01*
X115173932Y-85453100D01*
X115106893Y-85433415D01*
X115070830Y-85397991D01*
X115026108Y-85331060D01*
X114959786Y-85286745D01*
X114959785Y-85286744D01*
X114901308Y-85275113D01*
X114901304Y-85275113D01*
X113361808Y-85275113D01*
X113361803Y-85275113D01*
X113303326Y-85286744D01*
X113303325Y-85286745D01*
X113237003Y-85331060D01*
X113192688Y-85397382D01*
X113192687Y-85397383D01*
X113181056Y-85455860D01*
X113181056Y-86395365D01*
X107982055Y-86395365D01*
X107982056Y-86395363D01*
X107982056Y-85451445D01*
X108001741Y-85384406D01*
X108018375Y-85363764D01*
X108845321Y-84536819D01*
X108906644Y-84503334D01*
X108933002Y-84500500D01*
X164389560Y-84500500D01*
X164389562Y-84500500D01*
X164465989Y-84480021D01*
X164534511Y-84440460D01*
X164590460Y-84384511D01*
X171412539Y-77562432D01*
X171473862Y-77528947D01*
X171500220Y-77526113D01*
X173057056Y-77526113D01*
X173124095Y-77545798D01*
X173169850Y-77598602D01*
X173181056Y-77650113D01*
X173181056Y-77695365D01*
X173192687Y-77753842D01*
X173192688Y-77753843D01*
X173237003Y-77820165D01*
X173303325Y-77864480D01*
X173303326Y-77864481D01*
X173361803Y-77876112D01*
X173361806Y-77876113D01*
X173361808Y-77876113D01*
X174901306Y-77876113D01*
X174901307Y-77876112D01*
X174916124Y-77873165D01*
X174959785Y-77864481D01*
X174959785Y-77864480D01*
X174959787Y-77864480D01*
X175026108Y-77820165D01*
X175070423Y-77753844D01*
X175070423Y-77753842D01*
X175070424Y-77753842D01*
X175082055Y-77695365D01*
X175082056Y-77695363D01*
X175082056Y-76755862D01*
X175082055Y-76755860D01*
X175070424Y-76697383D01*
X175070423Y-76697382D01*
X175026108Y-76631060D01*
X174959786Y-76586745D01*
X174959785Y-76586744D01*
X174901308Y-76575113D01*
X174901304Y-76575113D01*
X173361808Y-76575113D01*
X173361803Y-76575113D01*
X173303326Y-76586744D01*
X173303325Y-76586745D01*
X173237003Y-76631060D01*
X173192688Y-76697382D01*
X173192687Y-76697383D01*
X173181056Y-76755860D01*
X173181056Y-76801113D01*
X173161371Y-76868152D01*
X173108567Y-76913907D01*
X173057056Y-76925113D01*
X171284825Y-76925113D01*
X171208397Y-76945591D01*
X171139876Y-76985153D01*
X171139873Y-76985155D01*
X164261848Y-83863181D01*
X164200525Y-83896666D01*
X164174167Y-83899500D01*
X108717607Y-83899500D01*
X108679393Y-83909739D01*
X108641178Y-83919979D01*
X108641173Y-83919982D01*
X108572664Y-83959535D01*
X108572656Y-83959541D01*
X107293404Y-85238794D01*
X107232081Y-85272279D01*
X107205723Y-85275113D01*
X106261803Y-85275113D01*
X106203326Y-85286744D01*
X106203325Y-85286745D01*
X106137003Y-85331060D01*
X106092688Y-85397382D01*
X106092687Y-85397383D01*
X106081056Y-85455860D01*
X106081056Y-86395365D01*
X103387754Y-86395365D01*
X103480528Y-86335743D01*
X103574777Y-86226973D01*
X103634565Y-86096057D01*
X103655047Y-85953600D01*
X103634565Y-85811143D01*
X103574777Y-85680227D01*
X103480528Y-85571457D01*
X103359453Y-85493647D01*
X103359451Y-85493646D01*
X103359449Y-85493645D01*
X103359450Y-85493645D01*
X103221363Y-85453100D01*
X103221361Y-85453100D01*
X103173932Y-85453100D01*
X103106893Y-85433415D01*
X103070830Y-85397991D01*
X103026108Y-85331060D01*
X102959786Y-85286745D01*
X102959785Y-85286744D01*
X102901308Y-85275113D01*
X102901304Y-85275113D01*
X101361808Y-85275113D01*
X101323890Y-85282655D01*
X101254298Y-85276426D01*
X101199122Y-85233563D01*
X101175878Y-85167673D01*
X101175700Y-85161037D01*
X101175700Y-77990188D01*
X101195385Y-77923149D01*
X101248189Y-77877394D01*
X101317347Y-77867450D01*
X101323884Y-77868569D01*
X101344321Y-77872634D01*
X101361807Y-77876113D01*
X101361808Y-77876113D01*
X102901306Y-77876113D01*
X102901307Y-77876112D01*
X102916124Y-77873165D01*
X102959785Y-77864481D01*
X102959785Y-77864480D01*
X102959787Y-77864480D01*
X103026108Y-77820165D01*
X103070423Y-77753844D01*
X103070423Y-77753842D01*
X103070424Y-77753842D01*
X103082055Y-77695365D01*
X103082056Y-77695363D01*
X103082056Y-76751445D01*
X103101741Y-76684406D01*
X103118375Y-76663764D01*
X104312121Y-75470019D01*
X104373444Y-75436534D01*
X104399802Y-75433700D01*
X117830360Y-75433700D01*
X117830362Y-75433700D01*
X117906789Y-75413221D01*
X117975311Y-75373660D01*
X118031260Y-75317711D01*
X118736539Y-74612432D01*
X118797862Y-74578947D01*
X118824220Y-74576113D01*
X119801306Y-74576113D01*
X119801307Y-74576112D01*
X119816124Y-74573165D01*
X119859785Y-74564481D01*
X119859785Y-74564480D01*
X119859787Y-74564480D01*
X119926108Y-74520165D01*
X119970423Y-74453844D01*
X119970423Y-74453842D01*
X119970424Y-74453842D01*
X119982055Y-74395365D01*
X119982056Y-74395363D01*
X119982056Y-73455862D01*
X119982055Y-73455860D01*
X119970424Y-73397383D01*
X119970423Y-73397382D01*
X119926108Y-73331060D01*
X119859786Y-73286745D01*
X119859785Y-73286744D01*
X119801308Y-73275113D01*
X119801304Y-73275113D01*
X118261808Y-73275113D01*
X118261803Y-73275113D01*
X118203326Y-73286744D01*
X118203325Y-73286745D01*
X118137003Y-73331060D01*
X118092688Y-73397382D01*
X118092687Y-73397383D01*
X118081056Y-73455860D01*
X118081056Y-74366610D01*
X118061371Y-74433649D01*
X118044737Y-74454291D01*
X117702648Y-74796381D01*
X117641325Y-74829866D01*
X117614967Y-74832700D01*
X104184407Y-74832700D01*
X104146193Y-74842939D01*
X104107978Y-74853179D01*
X104095282Y-74860510D01*
X104095281Y-74860510D01*
X104039464Y-74892735D01*
X104039456Y-74892741D01*
X102393404Y-76538794D01*
X102332081Y-76572279D01*
X102305723Y-76575113D01*
X101361808Y-76575113D01*
X101323890Y-76582655D01*
X101254298Y-76576426D01*
X101199122Y-76533563D01*
X101175878Y-76467673D01*
X101175700Y-76461037D01*
X101175700Y-74690188D01*
X101195385Y-74623149D01*
X101248189Y-74577394D01*
X101317347Y-74567450D01*
X101323884Y-74568569D01*
X101334510Y-74570683D01*
X101361807Y-74576113D01*
X101361808Y-74576113D01*
X102901306Y-74576113D01*
X102901307Y-74576112D01*
X102916124Y-74573165D01*
X102959785Y-74564481D01*
X102959785Y-74564480D01*
X102959787Y-74564480D01*
X103026108Y-74520165D01*
X103042917Y-74495009D01*
X103096529Y-74450204D01*
X103146019Y-74439900D01*
X103195962Y-74439900D01*
X103195962Y-74439899D01*
X103334053Y-74399353D01*
X103455128Y-74321543D01*
X103549377Y-74212773D01*
X103609165Y-74081857D01*
X103629647Y-73939400D01*
X103609165Y-73796943D01*
X103549377Y-73666027D01*
X103455128Y-73557257D01*
X103334053Y-73479447D01*
X103334051Y-73479446D01*
X103334049Y-73479445D01*
X103334050Y-73479445D01*
X103195963Y-73438900D01*
X103195961Y-73438900D01*
X103164443Y-73438900D01*
X103097404Y-73419215D01*
X103061342Y-73383792D01*
X103026108Y-73331061D01*
X102961500Y-73287890D01*
X102959786Y-73286745D01*
X102959785Y-73286744D01*
X102901308Y-73275113D01*
X102901304Y-73275113D01*
X101361808Y-73275113D01*
X101323890Y-73282655D01*
X101254298Y-73276426D01*
X101199122Y-73233563D01*
X101175878Y-73167673D01*
X101175700Y-73161037D01*
X101175700Y-65990188D01*
X101195385Y-65923149D01*
X101248189Y-65877394D01*
X101317347Y-65867450D01*
X101323884Y-65868569D01*
X101344321Y-65872634D01*
X101361807Y-65876113D01*
X101361808Y-65876113D01*
X102901306Y-65876113D01*
X102901307Y-65876112D01*
X102916124Y-65873165D01*
X102959785Y-65864481D01*
X102959785Y-65864480D01*
X102959787Y-65864480D01*
X103026108Y-65820165D01*
X103070423Y-65753844D01*
X103070423Y-65753842D01*
X103070424Y-65753842D01*
X103082055Y-65695365D01*
X103082056Y-65695363D01*
X103082056Y-65642651D01*
X103101741Y-65575612D01*
X103154545Y-65529857D01*
X103173953Y-65522879D01*
X103232389Y-65507221D01*
X103300911Y-65467660D01*
X103356860Y-65411711D01*
X105338152Y-63430419D01*
X105399475Y-63396934D01*
X105425833Y-63394100D01*
X115247524Y-63394100D01*
X115314563Y-63413785D01*
X115360318Y-63466589D01*
X115370262Y-63535747D01*
X115341237Y-63599303D01*
X115335205Y-63605781D01*
X114402192Y-64538794D01*
X114340869Y-64572279D01*
X114314511Y-64575113D01*
X113361803Y-64575113D01*
X113303326Y-64586744D01*
X113303325Y-64586745D01*
X113237003Y-64631060D01*
X113192688Y-64697382D01*
X113192687Y-64697383D01*
X113181056Y-64755860D01*
X113181056Y-65695365D01*
X113192687Y-65753842D01*
X113192688Y-65753843D01*
X113237003Y-65820165D01*
X113303325Y-65864480D01*
X113303326Y-65864481D01*
X113361803Y-65876112D01*
X113361806Y-65876113D01*
X113361808Y-65876113D01*
X114901306Y-65876113D01*
X114901307Y-65876112D01*
X114916124Y-65873165D01*
X114959785Y-65864481D01*
X114959785Y-65864480D01*
X114959787Y-65864480D01*
X115026108Y-65820165D01*
X115070423Y-65753844D01*
X115070423Y-65753842D01*
X115070424Y-65753842D01*
X115082055Y-65695365D01*
X115082056Y-65695363D01*
X115082056Y-64760233D01*
X115101741Y-64693194D01*
X115118375Y-64672552D01*
X115700109Y-64090819D01*
X115761432Y-64057334D01*
X115787790Y-64054500D01*
X119775160Y-64054500D01*
X119775162Y-64054500D01*
X119851589Y-64034021D01*
X119920111Y-63994460D01*
X119976060Y-63938511D01*
X120300615Y-63613956D01*
X120361938Y-63580471D01*
X120388296Y-63577637D01*
X127078187Y-63577637D01*
X127145226Y-63597322D01*
X127190981Y-63650126D01*
X127200925Y-63719284D01*
X127171900Y-63782840D01*
X127165868Y-63789318D01*
X126416392Y-64538794D01*
X126355069Y-64572279D01*
X126328711Y-64575113D01*
X125361803Y-64575113D01*
X125303326Y-64586744D01*
X125303325Y-64586745D01*
X125237003Y-64631060D01*
X125192688Y-64697382D01*
X125192687Y-64697383D01*
X125181056Y-64755860D01*
X125181056Y-65695365D01*
X125192687Y-65753842D01*
X125192688Y-65753843D01*
X125237003Y-65820165D01*
X125303325Y-65864480D01*
X125303326Y-65864481D01*
X125361803Y-65876112D01*
X125361806Y-65876113D01*
X125361808Y-65876113D01*
X126901306Y-65876113D01*
X126901307Y-65876112D01*
X126916124Y-65873165D01*
X126959785Y-65864481D01*
X126959785Y-65864480D01*
X126959787Y-65864480D01*
X127026108Y-65820165D01*
X127070423Y-65753844D01*
X127070423Y-65753842D01*
X127070424Y-65753842D01*
X127082055Y-65695365D01*
X127082056Y-65695363D01*
X127082056Y-64774433D01*
X127101741Y-64707394D01*
X127118375Y-64686752D01*
X127473240Y-64331888D01*
X127534563Y-64298403D01*
X127560921Y-64295569D01*
X130354491Y-64295569D01*
X130354493Y-64295569D01*
X130430920Y-64275090D01*
X130499442Y-64235529D01*
X130555391Y-64179580D01*
X131239428Y-63495543D01*
X131300751Y-63462058D01*
X131327109Y-63459224D01*
X139261600Y-63459224D01*
X139328639Y-63478909D01*
X139374394Y-63531713D01*
X139384338Y-63600871D01*
X139355313Y-63664427D01*
X139349281Y-63670905D01*
X138481392Y-64538794D01*
X138420069Y-64572279D01*
X138393711Y-64575113D01*
X137361803Y-64575113D01*
X137303326Y-64586744D01*
X137303325Y-64586745D01*
X137237003Y-64631060D01*
X137192688Y-64697382D01*
X137192687Y-64697383D01*
X137181056Y-64755860D01*
X137181056Y-65695365D01*
X137192687Y-65753842D01*
X137192688Y-65753843D01*
X137237003Y-65820165D01*
X137303325Y-65864480D01*
X137303326Y-65864481D01*
X137361803Y-65876112D01*
X137361806Y-65876113D01*
X137361808Y-65876113D01*
X138901306Y-65876113D01*
X138901307Y-65876112D01*
X138916124Y-65873165D01*
X138959785Y-65864481D01*
X138959785Y-65864480D01*
X138959787Y-65864480D01*
X139026108Y-65820165D01*
X139070423Y-65753844D01*
X139070423Y-65753842D01*
X139070424Y-65753842D01*
X139082055Y-65695365D01*
X139082056Y-65695363D01*
X139082056Y-65659000D01*
X146454443Y-65659000D01*
X146473026Y-65847681D01*
X146482511Y-65878947D01*
X146528063Y-66029115D01*
X146528064Y-66029118D01*
X146528065Y-66029119D01*
X146528066Y-66029122D01*
X146617434Y-66196318D01*
X146617438Y-66196325D01*
X146737716Y-66342883D01*
X146884274Y-66463161D01*
X146884281Y-66463165D01*
X147051477Y-66552533D01*
X147051478Y-66552533D01*
X147051485Y-66552537D01*
X147232917Y-66607573D01*
X147232916Y-66607573D01*
X147249833Y-66609239D01*
X147421600Y-66626157D01*
X147610283Y-66607573D01*
X147791715Y-66552537D01*
X147958924Y-66463162D01*
X148105483Y-66342883D01*
X148225762Y-66196324D01*
X148315137Y-66029115D01*
X148370173Y-65847683D01*
X148388757Y-65659000D01*
X148370173Y-65470317D01*
X148315137Y-65288885D01*
X148225762Y-65121676D01*
X148225761Y-65121674D01*
X148105483Y-64975116D01*
X147958925Y-64854838D01*
X147958918Y-64854834D01*
X147791722Y-64765466D01*
X147791719Y-64765465D01*
X147791718Y-64765464D01*
X147791715Y-64765463D01*
X147610283Y-64710427D01*
X147610281Y-64710426D01*
X147610283Y-64710426D01*
X147421600Y-64691843D01*
X147232918Y-64710426D01*
X147125794Y-64742921D01*
X147051485Y-64765463D01*
X147051482Y-64765464D01*
X147051480Y-64765465D01*
X147051477Y-64765466D01*
X146884281Y-64854834D01*
X146884274Y-64854838D01*
X146737716Y-64975116D01*
X146617438Y-65121674D01*
X146617434Y-65121681D01*
X146528066Y-65288877D01*
X146528065Y-65288880D01*
X146473026Y-65470318D01*
X146454443Y-65659000D01*
X139082056Y-65659000D01*
X139082056Y-64839434D01*
X139101741Y-64772395D01*
X139118375Y-64751753D01*
X139731296Y-64138832D01*
X139792619Y-64105347D01*
X139818977Y-64102513D01*
X143730593Y-64102513D01*
X143730595Y-64102513D01*
X143807022Y-64082034D01*
X143875544Y-64042473D01*
X143931493Y-63986524D01*
X144799017Y-63119000D01*
X146454443Y-63119000D01*
X146473026Y-63307681D01*
X146473027Y-63307683D01*
X146528063Y-63489115D01*
X146528064Y-63489118D01*
X146528065Y-63489119D01*
X146528066Y-63489122D01*
X146617434Y-63656318D01*
X146617438Y-63656325D01*
X146737716Y-63802883D01*
X146884274Y-63923161D01*
X146884281Y-63923165D01*
X147051477Y-64012533D01*
X147051478Y-64012533D01*
X147051485Y-64012537D01*
X147232917Y-64067573D01*
X147232916Y-64067573D01*
X147249833Y-64069239D01*
X147421600Y-64086157D01*
X147610283Y-64067573D01*
X147791715Y-64012537D01*
X147958924Y-63923162D01*
X148105483Y-63802883D01*
X148225762Y-63656324D01*
X148315137Y-63489115D01*
X148370173Y-63307683D01*
X148388757Y-63119000D01*
X148370173Y-62930317D01*
X148315137Y-62748885D01*
X148302360Y-62724981D01*
X148225765Y-62581681D01*
X148225761Y-62581674D01*
X148105483Y-62435116D01*
X148057047Y-62395365D01*
X149181056Y-62395365D01*
X149192687Y-62453842D01*
X149192688Y-62453843D01*
X149237003Y-62520165D01*
X149303325Y-62564480D01*
X149303326Y-62564481D01*
X149361803Y-62576112D01*
X149361806Y-62576113D01*
X149361808Y-62576113D01*
X150901306Y-62576113D01*
X150901307Y-62576112D01*
X150916124Y-62573165D01*
X150959785Y-62564481D01*
X150959785Y-62564480D01*
X150959787Y-62564480D01*
X151026108Y-62520165D01*
X151070423Y-62453844D01*
X151071545Y-62448201D01*
X151103926Y-62386291D01*
X151164640Y-62351713D01*
X151175520Y-62349650D01*
X151176562Y-62349500D01*
X151314650Y-62308954D01*
X151314650Y-62308953D01*
X151314653Y-62308953D01*
X151435728Y-62231143D01*
X151529977Y-62122373D01*
X151589765Y-61991457D01*
X151610247Y-61849000D01*
X151589765Y-61706543D01*
X151529977Y-61575627D01*
X151435728Y-61466857D01*
X151314653Y-61389047D01*
X151314651Y-61389046D01*
X151314649Y-61389045D01*
X151314650Y-61389045D01*
X151176563Y-61348500D01*
X151176561Y-61348500D01*
X151089822Y-61348500D01*
X151022783Y-61328815D01*
X151020930Y-61327601D01*
X150959787Y-61286745D01*
X150959785Y-61286744D01*
X150901308Y-61275113D01*
X150901304Y-61275113D01*
X149361808Y-61275113D01*
X149361803Y-61275113D01*
X149303326Y-61286744D01*
X149303325Y-61286745D01*
X149237003Y-61331060D01*
X149192688Y-61397382D01*
X149192687Y-61397383D01*
X149181056Y-61455860D01*
X149181056Y-62395365D01*
X148057047Y-62395365D01*
X147958925Y-62314838D01*
X147958918Y-62314834D01*
X147791722Y-62225466D01*
X147791719Y-62225465D01*
X147791718Y-62225464D01*
X147791715Y-62225463D01*
X147610283Y-62170427D01*
X147610281Y-62170426D01*
X147610283Y-62170426D01*
X147421600Y-62151843D01*
X147232918Y-62170426D01*
X147125794Y-62202921D01*
X147051485Y-62225463D01*
X147051482Y-62225464D01*
X147051480Y-62225465D01*
X147051477Y-62225466D01*
X146884281Y-62314834D01*
X146884274Y-62314838D01*
X146737716Y-62435116D01*
X146617438Y-62581674D01*
X146617434Y-62581681D01*
X146528066Y-62748877D01*
X146528065Y-62748880D01*
X146528064Y-62748882D01*
X146528063Y-62748885D01*
X146514651Y-62793100D01*
X146473026Y-62930318D01*
X146454443Y-63119000D01*
X144799017Y-63119000D01*
X145211183Y-62706834D01*
X145250744Y-62638312D01*
X145271223Y-62561885D01*
X145271223Y-61605509D01*
X145290908Y-61538470D01*
X145307537Y-61517832D01*
X146250402Y-60574967D01*
X146311723Y-60541484D01*
X146381414Y-60546468D01*
X146437348Y-60588340D01*
X146461484Y-60650495D01*
X146473026Y-60767681D01*
X146473027Y-60767683D01*
X146528063Y-60949115D01*
X146528064Y-60949118D01*
X146528065Y-60949119D01*
X146528066Y-60949122D01*
X146617434Y-61116318D01*
X146617438Y-61116325D01*
X146737716Y-61262883D01*
X146884274Y-61383161D01*
X146884281Y-61383165D01*
X147051477Y-61472533D01*
X147051478Y-61472533D01*
X147051485Y-61472537D01*
X147232917Y-61527573D01*
X147232916Y-61527573D01*
X147249833Y-61529239D01*
X147421600Y-61546157D01*
X147610283Y-61527573D01*
X147791715Y-61472537D01*
X147958924Y-61383162D01*
X148105483Y-61262883D01*
X148225762Y-61116324D01*
X148315137Y-60949115D01*
X148370173Y-60767683D01*
X148388757Y-60579000D01*
X148370173Y-60390317D01*
X148315137Y-60208885D01*
X148225762Y-60041676D01*
X148225761Y-60041674D01*
X148105483Y-59895116D01*
X148077679Y-59872298D01*
X148038345Y-59814552D01*
X148036474Y-59744707D01*
X148072662Y-59684939D01*
X148135418Y-59654223D01*
X148156344Y-59652445D01*
X152194469Y-59652445D01*
X152261508Y-59672130D01*
X152282150Y-59688764D01*
X154044737Y-61451351D01*
X154078222Y-61512674D01*
X154081056Y-61539032D01*
X154081056Y-62395365D01*
X154092687Y-62453842D01*
X154092688Y-62453843D01*
X154137003Y-62520165D01*
X154158005Y-62534198D01*
X154202810Y-62587811D01*
X154211517Y-62657136D01*
X154181362Y-62720163D01*
X154121919Y-62756882D01*
X154089114Y-62761300D01*
X152230995Y-62761300D01*
X152200424Y-62769491D01*
X152154565Y-62781779D01*
X152154562Y-62781781D01*
X152099492Y-62813577D01*
X152099489Y-62813579D01*
X152090733Y-62818633D01*
X152086042Y-62821342D01*
X152086041Y-62821343D01*
X150368592Y-64538794D01*
X150307269Y-64572279D01*
X150280911Y-64575113D01*
X149361803Y-64575113D01*
X149303326Y-64586744D01*
X149303325Y-64586745D01*
X149237003Y-64631060D01*
X149192688Y-64697382D01*
X149192687Y-64697383D01*
X149181056Y-64755860D01*
X149181056Y-65695365D01*
X149192687Y-65753842D01*
X149192688Y-65753843D01*
X149237003Y-65820165D01*
X149303325Y-65864480D01*
X149303326Y-65864481D01*
X149361803Y-65876112D01*
X149361806Y-65876113D01*
X149361808Y-65876113D01*
X150901306Y-65876113D01*
X150901307Y-65876112D01*
X150916124Y-65873165D01*
X150959785Y-65864481D01*
X150959785Y-65864480D01*
X150959787Y-65864480D01*
X151026108Y-65820165D01*
X151070423Y-65753844D01*
X151070423Y-65753842D01*
X151070424Y-65753842D01*
X151082055Y-65695365D01*
X151082056Y-65695363D01*
X151082056Y-64755865D01*
X151081616Y-64753654D01*
X151081721Y-64752469D01*
X151081459Y-64749800D01*
X151081965Y-64749750D01*
X151087839Y-64684063D01*
X151115549Y-64641778D01*
X152358709Y-63398619D01*
X152420032Y-63365134D01*
X152446390Y-63362300D01*
X165910117Y-63362300D01*
X165910119Y-63362300D01*
X165986546Y-63341821D01*
X166055068Y-63302260D01*
X166111017Y-63246311D01*
X166744896Y-62612432D01*
X166806219Y-62578947D01*
X166832577Y-62576113D01*
X167801306Y-62576113D01*
X167801307Y-62576112D01*
X167816124Y-62573165D01*
X167859785Y-62564481D01*
X167859785Y-62564480D01*
X167859787Y-62564480D01*
X167926108Y-62520165D01*
X167970423Y-62453844D01*
X167970423Y-62453842D01*
X167970424Y-62453842D01*
X167980844Y-62401452D01*
X167982056Y-62395361D01*
X167982056Y-61455865D01*
X167982056Y-61455862D01*
X167982055Y-61455860D01*
X167970424Y-61397383D01*
X167970423Y-61397382D01*
X167926108Y-61331060D01*
X167859786Y-61286745D01*
X167859785Y-61286744D01*
X167801308Y-61275113D01*
X167801304Y-61275113D01*
X166261808Y-61275113D01*
X166261803Y-61275113D01*
X166203326Y-61286744D01*
X166203325Y-61286745D01*
X166137003Y-61331060D01*
X166092688Y-61397382D01*
X166092687Y-61397383D01*
X166081056Y-61455860D01*
X166081056Y-62374967D01*
X166061371Y-62442006D01*
X166044737Y-62462648D01*
X165782405Y-62724981D01*
X165721082Y-62758466D01*
X165694724Y-62761300D01*
X163073998Y-62761300D01*
X163006959Y-62741615D01*
X162961204Y-62688811D01*
X162951260Y-62619653D01*
X162980285Y-62556097D01*
X163005107Y-62534198D01*
X163026108Y-62520165D01*
X163070423Y-62453844D01*
X163071929Y-62446272D01*
X163104311Y-62384360D01*
X163158613Y-62351481D01*
X163165360Y-62349500D01*
X163165361Y-62349500D01*
X163303453Y-62308953D01*
X163424528Y-62231143D01*
X163518777Y-62122373D01*
X163578565Y-61991457D01*
X163599047Y-61849000D01*
X163578565Y-61706543D01*
X163518777Y-61575627D01*
X163424528Y-61466857D01*
X163303453Y-61389047D01*
X163303451Y-61389046D01*
X163303449Y-61389045D01*
X163303450Y-61389045D01*
X163165363Y-61348500D01*
X163165361Y-61348500D01*
X163089822Y-61348500D01*
X163022783Y-61328815D01*
X163020930Y-61327601D01*
X162959787Y-61286745D01*
X162959785Y-61286744D01*
X162901308Y-61275113D01*
X162901304Y-61275113D01*
X161361808Y-61275113D01*
X161361803Y-61275113D01*
X161303326Y-61286744D01*
X161303325Y-61286745D01*
X161237003Y-61331060D01*
X161192688Y-61397382D01*
X161192687Y-61397383D01*
X161181056Y-61455860D01*
X161181056Y-62395365D01*
X161192687Y-62453842D01*
X161192688Y-62453843D01*
X161237003Y-62520165D01*
X161258005Y-62534198D01*
X161302810Y-62587811D01*
X161311517Y-62657136D01*
X161281362Y-62720163D01*
X161221919Y-62756882D01*
X161189114Y-62761300D01*
X155973998Y-62761300D01*
X155906959Y-62741615D01*
X155861204Y-62688811D01*
X155851260Y-62619653D01*
X155880285Y-62556097D01*
X155905107Y-62534198D01*
X155926108Y-62520165D01*
X155947961Y-62487460D01*
X155970423Y-62453844D01*
X155970423Y-62453842D01*
X155970424Y-62453842D01*
X155980844Y-62401452D01*
X155982056Y-62395361D01*
X155982056Y-61455865D01*
X155982056Y-61455862D01*
X155982055Y-61455860D01*
X155970424Y-61397383D01*
X155970423Y-61397382D01*
X155926108Y-61331060D01*
X155859786Y-61286745D01*
X155859785Y-61286744D01*
X155801308Y-61275113D01*
X155801304Y-61275113D01*
X154769803Y-61275113D01*
X154702764Y-61255428D01*
X154682122Y-61238794D01*
X154022328Y-60579000D01*
X169314443Y-60579000D01*
X169333026Y-60767681D01*
X169333027Y-60767683D01*
X169388063Y-60949115D01*
X169388064Y-60949118D01*
X169388065Y-60949119D01*
X169388066Y-60949122D01*
X169477434Y-61116318D01*
X169477438Y-61116325D01*
X169597716Y-61262883D01*
X169744274Y-61383161D01*
X169744281Y-61383165D01*
X169911477Y-61472533D01*
X169911478Y-61472533D01*
X169911485Y-61472537D01*
X170092917Y-61527573D01*
X170092916Y-61527573D01*
X170109833Y-61529239D01*
X170281600Y-61546157D01*
X170470283Y-61527573D01*
X170651715Y-61472537D01*
X170818924Y-61383162D01*
X170965483Y-61262883D01*
X171085762Y-61116324D01*
X171175137Y-60949115D01*
X171230173Y-60767683D01*
X171248757Y-60579000D01*
X171230173Y-60390317D01*
X171175137Y-60208885D01*
X171085762Y-60041676D01*
X171085761Y-60041674D01*
X170965483Y-59895116D01*
X170818925Y-59774838D01*
X170818918Y-59774834D01*
X170651722Y-59685466D01*
X170651719Y-59685465D01*
X170651718Y-59685464D01*
X170651715Y-59685463D01*
X170470283Y-59630427D01*
X170470281Y-59630426D01*
X170470283Y-59630426D01*
X170281600Y-59611843D01*
X170092918Y-59630426D01*
X169985794Y-59662921D01*
X169911485Y-59685463D01*
X169911482Y-59685464D01*
X169911480Y-59685465D01*
X169911477Y-59685466D01*
X169744281Y-59774834D01*
X169744274Y-59774838D01*
X169597716Y-59895116D01*
X169477438Y-60041674D01*
X169477434Y-60041681D01*
X169388066Y-60208877D01*
X169388065Y-60208880D01*
X169333026Y-60390318D01*
X169314443Y-60579000D01*
X154022328Y-60579000D01*
X152554814Y-59111486D01*
X152554806Y-59111480D01*
X152486297Y-59071927D01*
X152486292Y-59071924D01*
X152460815Y-59065097D01*
X152409864Y-59051445D01*
X148051687Y-59051445D01*
X147984648Y-59031760D01*
X147938893Y-58978956D01*
X147928949Y-58909798D01*
X147957974Y-58846242D01*
X147973022Y-58831592D01*
X148105483Y-58722883D01*
X148225761Y-58576325D01*
X148225765Y-58576318D01*
X148315133Y-58409122D01*
X148315137Y-58409115D01*
X148370173Y-58227683D01*
X148388757Y-58039000D01*
X148370173Y-57850317D01*
X148315137Y-57668885D01*
X148225762Y-57501676D01*
X148221745Y-57496782D01*
X148208108Y-57480164D01*
X148180796Y-57415854D01*
X148192587Y-57346987D01*
X148239740Y-57295427D01*
X148303962Y-57277500D01*
X169399238Y-57277500D01*
X169466277Y-57297185D01*
X169512032Y-57349989D01*
X169521976Y-57419147D01*
X169495092Y-57480164D01*
X169477438Y-57501675D01*
X169477434Y-57501681D01*
X169388066Y-57668877D01*
X169388065Y-57668880D01*
X169333026Y-57850318D01*
X169314443Y-58039000D01*
X169333026Y-58227681D01*
X169333027Y-58227683D01*
X169388063Y-58409115D01*
X169388064Y-58409118D01*
X169388065Y-58409119D01*
X169388066Y-58409122D01*
X169477434Y-58576318D01*
X169477438Y-58576325D01*
X169597716Y-58722883D01*
X169744274Y-58843161D01*
X169744281Y-58843165D01*
X169911477Y-58932533D01*
X169911478Y-58932533D01*
X169911485Y-58932537D01*
X170092917Y-58987573D01*
X170092916Y-58987573D01*
X170109833Y-58989239D01*
X170281600Y-59006157D01*
X170470283Y-58987573D01*
X170651715Y-58932537D01*
X170818924Y-58843162D01*
X170965483Y-58722883D01*
X171085762Y-58576324D01*
X171175137Y-58409115D01*
X171230173Y-58227683D01*
X171248757Y-58039000D01*
X171230173Y-57850317D01*
X171175137Y-57668885D01*
X171085762Y-57501676D01*
X171085761Y-57501674D01*
X170965483Y-57355116D01*
X170818925Y-57234838D01*
X170818921Y-57234836D01*
X170789366Y-57219038D01*
X170739522Y-57170075D01*
X170724062Y-57101937D01*
X170747894Y-57036257D01*
X170760132Y-57022006D01*
X173869708Y-53912432D01*
X173931031Y-53878947D01*
X173957389Y-53876113D01*
X174901306Y-53876113D01*
X174901307Y-53876112D01*
X174916124Y-53873165D01*
X174959785Y-53864481D01*
X174959785Y-53864480D01*
X174959787Y-53864480D01*
X175026108Y-53820165D01*
X175070423Y-53753844D01*
X175070423Y-53753842D01*
X175070424Y-53753842D01*
X175082055Y-53695365D01*
X175082056Y-53695363D01*
X175082056Y-52755862D01*
X175082055Y-52755860D01*
X175070424Y-52697383D01*
X175070423Y-52697382D01*
X175026108Y-52631060D01*
X174959786Y-52586745D01*
X174959785Y-52586744D01*
X174901308Y-52575113D01*
X174901304Y-52575113D01*
X173361808Y-52575113D01*
X173361803Y-52575113D01*
X173303326Y-52586744D01*
X173303325Y-52586745D01*
X173237003Y-52631060D01*
X173192688Y-52697382D01*
X173192687Y-52697383D01*
X173181056Y-52755860D01*
X173181056Y-53699779D01*
X173161371Y-53766818D01*
X173144737Y-53787460D01*
X171450680Y-55481516D01*
X171389357Y-55515001D01*
X171319665Y-55510017D01*
X171263732Y-55468145D01*
X171239596Y-55405989D01*
X171230173Y-55310318D01*
X171230173Y-55310317D01*
X171175137Y-55128885D01*
X171085762Y-54961676D01*
X171085761Y-54961674D01*
X170965483Y-54815116D01*
X170818925Y-54694838D01*
X170818918Y-54694834D01*
X170651722Y-54605466D01*
X170651719Y-54605465D01*
X170651718Y-54605464D01*
X170651715Y-54605463D01*
X170470283Y-54550427D01*
X170470281Y-54550426D01*
X170470283Y-54550426D01*
X170281600Y-54531843D01*
X170092918Y-54550426D01*
X169985794Y-54582921D01*
X169911485Y-54605463D01*
X169911482Y-54605464D01*
X169911480Y-54605465D01*
X169911477Y-54605466D01*
X169744281Y-54694834D01*
X169744274Y-54694838D01*
X169597716Y-54815116D01*
X169477438Y-54961674D01*
X169477434Y-54961681D01*
X169388066Y-55128877D01*
X169388065Y-55128880D01*
X169333026Y-55310318D01*
X169314443Y-55499000D01*
X169333026Y-55687681D01*
X169351372Y-55748160D01*
X169388063Y-55869115D01*
X169388064Y-55869118D01*
X169388065Y-55869119D01*
X169388066Y-55869122D01*
X169477434Y-56036318D01*
X169477438Y-56036325D01*
X169597716Y-56182883D01*
X169744274Y-56303161D01*
X169744281Y-56303165D01*
X169911477Y-56392533D01*
X169911478Y-56392533D01*
X169911485Y-56392537D01*
X170047644Y-56433839D01*
X170106082Y-56472137D01*
X170134538Y-56535949D01*
X170123978Y-56605016D01*
X170077754Y-56657409D01*
X170011648Y-56676500D01*
X147691552Y-56676500D01*
X147624513Y-56656815D01*
X147578758Y-56604011D01*
X147568814Y-56534853D01*
X147597839Y-56471297D01*
X147655555Y-56433839D01*
X147791715Y-56392537D01*
X147958924Y-56303162D01*
X148105483Y-56182883D01*
X148225762Y-56036324D01*
X148315137Y-55869115D01*
X148370173Y-55687683D01*
X148388757Y-55499000D01*
X148370173Y-55310317D01*
X148315137Y-55128885D01*
X148225762Y-54961676D01*
X148225761Y-54961674D01*
X148105483Y-54815116D01*
X147958925Y-54694838D01*
X147958918Y-54694834D01*
X147791722Y-54605466D01*
X147791719Y-54605465D01*
X147791718Y-54605464D01*
X147791715Y-54605463D01*
X147610283Y-54550427D01*
X147610281Y-54550426D01*
X147610283Y-54550426D01*
X147421600Y-54531843D01*
X147232918Y-54550426D01*
X147125794Y-54582921D01*
X147051485Y-54605463D01*
X147051482Y-54605464D01*
X147051480Y-54605465D01*
X147051477Y-54605466D01*
X146884281Y-54694834D01*
X146884274Y-54694838D01*
X146737716Y-54815116D01*
X146617438Y-54961674D01*
X146617434Y-54961681D01*
X146528066Y-55128877D01*
X146528065Y-55128880D01*
X146473026Y-55310318D01*
X146454443Y-55499000D01*
X146473026Y-55687681D01*
X146491372Y-55748160D01*
X146528063Y-55869115D01*
X146528064Y-55869118D01*
X146528065Y-55869119D01*
X146528066Y-55869122D01*
X146617434Y-56036318D01*
X146617438Y-56036325D01*
X146737716Y-56182883D01*
X146884274Y-56303161D01*
X146884281Y-56303165D01*
X147051477Y-56392533D01*
X147051478Y-56392533D01*
X147051485Y-56392537D01*
X147187644Y-56433839D01*
X147246082Y-56472137D01*
X147274538Y-56535949D01*
X147263978Y-56605016D01*
X147217754Y-56657409D01*
X147151648Y-56676500D01*
X146942143Y-56676500D01*
X146865715Y-56696978D01*
X146797194Y-56736540D01*
X146797191Y-56736542D01*
X142910553Y-60623181D01*
X142849230Y-60656666D01*
X142822872Y-60659500D01*
X107957607Y-60659500D01*
X107919393Y-60669739D01*
X107881178Y-60679979D01*
X107881173Y-60679982D01*
X107812664Y-60719535D01*
X107812656Y-60719541D01*
X107293404Y-61238794D01*
X107232081Y-61272279D01*
X107205723Y-61275113D01*
X106261803Y-61275113D01*
X106203326Y-61286744D01*
X106203325Y-61286745D01*
X106137003Y-61331060D01*
X106092688Y-61397382D01*
X106092687Y-61397383D01*
X106081056Y-61455860D01*
X106081056Y-62395365D01*
X106092687Y-62453842D01*
X106092688Y-62453843D01*
X106137002Y-62520164D01*
X106186830Y-62553458D01*
X106199438Y-62561883D01*
X106205597Y-62565998D01*
X106250401Y-62619611D01*
X106259108Y-62688936D01*
X106228953Y-62751963D01*
X106169510Y-62788682D01*
X106136705Y-62793100D01*
X105210438Y-62793100D01*
X105172224Y-62803339D01*
X105134009Y-62813579D01*
X105134004Y-62813582D01*
X105065495Y-62853135D01*
X105065487Y-62853141D01*
X103237674Y-64680954D01*
X103176351Y-64714439D01*
X103106659Y-64709455D01*
X103050726Y-64667583D01*
X103046891Y-64662164D01*
X103026108Y-64631060D01*
X102959786Y-64586745D01*
X102959785Y-64586744D01*
X102901308Y-64575113D01*
X102901304Y-64575113D01*
X101361808Y-64575113D01*
X101323890Y-64582655D01*
X101254298Y-64576426D01*
X101199122Y-64533563D01*
X101175878Y-64467673D01*
X101175700Y-64461037D01*
X101175700Y-62690188D01*
X101195385Y-62623149D01*
X101248189Y-62577394D01*
X101317347Y-62567450D01*
X101323884Y-62568569D01*
X101334510Y-62570683D01*
X101361807Y-62576113D01*
X101361808Y-62576113D01*
X102901306Y-62576113D01*
X102901307Y-62576112D01*
X102916124Y-62573165D01*
X102959785Y-62564481D01*
X102959785Y-62564480D01*
X102959787Y-62564480D01*
X103026108Y-62520165D01*
X103026109Y-62520164D01*
X103052405Y-62480810D01*
X103106017Y-62436004D01*
X103155507Y-62425700D01*
X103195962Y-62425700D01*
X103195962Y-62425699D01*
X103303121Y-62394235D01*
X103334050Y-62385154D01*
X103334050Y-62385153D01*
X103334053Y-62385153D01*
X103455128Y-62307343D01*
X103549377Y-62198573D01*
X103609165Y-62067657D01*
X103629647Y-61925200D01*
X103609165Y-61782743D01*
X103549377Y-61651827D01*
X103455128Y-61543057D01*
X103334053Y-61465247D01*
X103334051Y-61465246D01*
X103334049Y-61465245D01*
X103334050Y-61465245D01*
X103195963Y-61424700D01*
X103195961Y-61424700D01*
X103154956Y-61424700D01*
X103087917Y-61405015D01*
X103051854Y-61369592D01*
X103047960Y-61363764D01*
X103026108Y-61331061D01*
X103000098Y-61313681D01*
X102959786Y-61286745D01*
X102959785Y-61286744D01*
X102901308Y-61275113D01*
X102901304Y-61275113D01*
X101361808Y-61275113D01*
X101323890Y-61282655D01*
X101254298Y-61276426D01*
X101199122Y-61233563D01*
X101175878Y-61167673D01*
X101175700Y-61161037D01*
X101175700Y-53990188D01*
X101195385Y-53923149D01*
X101248189Y-53877394D01*
X101317347Y-53867450D01*
X101323884Y-53868569D01*
X101344321Y-53872634D01*
X101361807Y-53876113D01*
X101361808Y-53876113D01*
X102901306Y-53876113D01*
X102901307Y-53876112D01*
X102916124Y-53873165D01*
X102959785Y-53864481D01*
X102959785Y-53864480D01*
X102959787Y-53864480D01*
X103026108Y-53820165D01*
X103070423Y-53753844D01*
X103070423Y-53753842D01*
X103070424Y-53753842D01*
X103082055Y-53695365D01*
X103082056Y-53695363D01*
X103082056Y-52751445D01*
X103101741Y-52684406D01*
X103118375Y-52663764D01*
X103725778Y-52056362D01*
X104340521Y-51441619D01*
X104401844Y-51408134D01*
X104428202Y-51405300D01*
X115323724Y-51405300D01*
X115390763Y-51424985D01*
X115436518Y-51477789D01*
X115446462Y-51546947D01*
X115417437Y-51610503D01*
X115411405Y-51616981D01*
X114489592Y-52538794D01*
X114428269Y-52572279D01*
X114401911Y-52575113D01*
X113361803Y-52575113D01*
X113303326Y-52586744D01*
X113303325Y-52586745D01*
X113237003Y-52631060D01*
X113192688Y-52697382D01*
X113192687Y-52697383D01*
X113181056Y-52755860D01*
X113181056Y-53695365D01*
X113192687Y-53753842D01*
X113192688Y-53753843D01*
X113237003Y-53820165D01*
X113303325Y-53864480D01*
X113303326Y-53864481D01*
X113361803Y-53876112D01*
X113361806Y-53876113D01*
X113361808Y-53876113D01*
X114901306Y-53876113D01*
X114901307Y-53876112D01*
X114916124Y-53873165D01*
X114959785Y-53864481D01*
X114959785Y-53864480D01*
X114959787Y-53864480D01*
X115026108Y-53820165D01*
X115070423Y-53753844D01*
X115070423Y-53753842D01*
X115070424Y-53753842D01*
X115082055Y-53695365D01*
X115082056Y-53695363D01*
X115082056Y-52847634D01*
X115101741Y-52780595D01*
X115118375Y-52759953D01*
X115827109Y-52051219D01*
X115888432Y-52017734D01*
X115914790Y-52014900D01*
X129277167Y-52014900D01*
X129344206Y-52034585D01*
X129389961Y-52087389D01*
X129399905Y-52156547D01*
X129370880Y-52220103D01*
X129364848Y-52226581D01*
X128702635Y-52888794D01*
X128641312Y-52922279D01*
X128614954Y-52925113D01*
X127206056Y-52925113D01*
X127139017Y-52905428D01*
X127093262Y-52852624D01*
X127082056Y-52801113D01*
X127082056Y-52755862D01*
X127082055Y-52755860D01*
X127070424Y-52697383D01*
X127070423Y-52697382D01*
X127026108Y-52631060D01*
X126959786Y-52586745D01*
X126959785Y-52586744D01*
X126901308Y-52575113D01*
X126901304Y-52575113D01*
X125361808Y-52575113D01*
X125361803Y-52575113D01*
X125303326Y-52586744D01*
X125303325Y-52586745D01*
X125237003Y-52631060D01*
X125192688Y-52697382D01*
X125192687Y-52697383D01*
X125181056Y-52755860D01*
X125181056Y-53695365D01*
X125192687Y-53753842D01*
X125192688Y-53753843D01*
X125237003Y-53820165D01*
X125303325Y-53864480D01*
X125303326Y-53864481D01*
X125361803Y-53876112D01*
X125361806Y-53876113D01*
X125361808Y-53876113D01*
X126901306Y-53876113D01*
X126901307Y-53876112D01*
X126916124Y-53873165D01*
X126959785Y-53864481D01*
X126959785Y-53864480D01*
X126959787Y-53864480D01*
X127026108Y-53820165D01*
X127070423Y-53753844D01*
X127070423Y-53753842D01*
X127070424Y-53753842D01*
X127082055Y-53695365D01*
X127082056Y-53695363D01*
X127082056Y-53650113D01*
X127101741Y-53583074D01*
X127154545Y-53537319D01*
X127206056Y-53526113D01*
X128830347Y-53526113D01*
X128830349Y-53526113D01*
X128906776Y-53505634D01*
X128975298Y-53466073D01*
X129031247Y-53410124D01*
X130963020Y-51478351D01*
X131024343Y-51444866D01*
X131050701Y-51442032D01*
X139190804Y-51442032D01*
X139257843Y-51461717D01*
X139303598Y-51514521D01*
X139313542Y-51583679D01*
X139284517Y-51647235D01*
X139278485Y-51653713D01*
X138393404Y-52538794D01*
X138332081Y-52572279D01*
X138305723Y-52575113D01*
X137361803Y-52575113D01*
X137303326Y-52586744D01*
X137303325Y-52586745D01*
X137237003Y-52631060D01*
X137192688Y-52697382D01*
X137192687Y-52697383D01*
X137181056Y-52755860D01*
X137181056Y-53695365D01*
X137192687Y-53753842D01*
X137192688Y-53753843D01*
X137237003Y-53820165D01*
X137303325Y-53864480D01*
X137303326Y-53864481D01*
X137361803Y-53876112D01*
X137361806Y-53876113D01*
X137361808Y-53876113D01*
X138901306Y-53876113D01*
X138901307Y-53876112D01*
X138916124Y-53873165D01*
X138959785Y-53864481D01*
X138959785Y-53864480D01*
X138959787Y-53864480D01*
X139026108Y-53820165D01*
X139070423Y-53753844D01*
X139070423Y-53753842D01*
X139070424Y-53753842D01*
X139082055Y-53695365D01*
X139082056Y-53695363D01*
X139082056Y-52751445D01*
X139101741Y-52684406D01*
X139118375Y-52663764D01*
X139781721Y-52000419D01*
X139843044Y-51966934D01*
X139869402Y-51964100D01*
X146770134Y-51964100D01*
X146837173Y-51983785D01*
X146882928Y-52036589D01*
X146892872Y-52105747D01*
X146863847Y-52169303D01*
X146848799Y-52183953D01*
X146737716Y-52275116D01*
X146617438Y-52421674D01*
X146617434Y-52421681D01*
X146528066Y-52588877D01*
X146528065Y-52588880D01*
X146473026Y-52770318D01*
X146454443Y-52959000D01*
X146473026Y-53147681D01*
X146473027Y-53147683D01*
X146528063Y-53329115D01*
X146528064Y-53329118D01*
X146528065Y-53329119D01*
X146528066Y-53329122D01*
X146617434Y-53496318D01*
X146617438Y-53496325D01*
X146737716Y-53642883D01*
X146884274Y-53763161D01*
X146884281Y-53763165D01*
X147051477Y-53852533D01*
X147051478Y-53852533D01*
X147051485Y-53852537D01*
X147232917Y-53907573D01*
X147232916Y-53907573D01*
X147249833Y-53909239D01*
X147421600Y-53926157D01*
X147610283Y-53907573D01*
X147791715Y-53852537D01*
X147958924Y-53763162D01*
X148105483Y-53642883D01*
X148225762Y-53496324D01*
X148315137Y-53329115D01*
X148370173Y-53147683D01*
X148388757Y-52959000D01*
X148370173Y-52770317D01*
X148315137Y-52588885D01*
X148225762Y-52421676D01*
X148225761Y-52421674D01*
X148105483Y-52275116D01*
X147994401Y-52183953D01*
X147955067Y-52126207D01*
X147953196Y-52056362D01*
X147989384Y-51996594D01*
X148052140Y-51965878D01*
X148073066Y-51964100D01*
X150715537Y-51964100D01*
X150782576Y-51983785D01*
X150828331Y-52036589D01*
X150838275Y-52105747D01*
X150809250Y-52169303D01*
X150777536Y-52195487D01*
X150718366Y-52229648D01*
X150718366Y-52229649D01*
X150712157Y-52233233D01*
X150708829Y-52235155D01*
X150405192Y-52538794D01*
X150343869Y-52572279D01*
X150317511Y-52575113D01*
X149361803Y-52575113D01*
X149303326Y-52586744D01*
X149303325Y-52586745D01*
X149237003Y-52631060D01*
X149192688Y-52697382D01*
X149192687Y-52697383D01*
X149181056Y-52755860D01*
X149181056Y-53695365D01*
X149192687Y-53753842D01*
X149192688Y-53753843D01*
X149237003Y-53820165D01*
X149303325Y-53864480D01*
X149303326Y-53864481D01*
X149361803Y-53876112D01*
X149361806Y-53876113D01*
X149361808Y-53876113D01*
X150901306Y-53876113D01*
X150901307Y-53876112D01*
X150916124Y-53873165D01*
X150959785Y-53864481D01*
X150959785Y-53864480D01*
X150959787Y-53864480D01*
X151026108Y-53820165D01*
X151070423Y-53753844D01*
X151070423Y-53753842D01*
X151070424Y-53753842D01*
X151082055Y-53695365D01*
X151082056Y-53695363D01*
X151082056Y-52900113D01*
X151101741Y-52833074D01*
X151154545Y-52787319D01*
X151206056Y-52776113D01*
X161057056Y-52776113D01*
X161124095Y-52795798D01*
X161169850Y-52848602D01*
X161181056Y-52900113D01*
X161181056Y-53695365D01*
X161192687Y-53753842D01*
X161192688Y-53753843D01*
X161237003Y-53820165D01*
X161303325Y-53864480D01*
X161303326Y-53864481D01*
X161361803Y-53876112D01*
X161361806Y-53876113D01*
X161361808Y-53876113D01*
X162901306Y-53876113D01*
X162901307Y-53876112D01*
X162916124Y-53873165D01*
X162959785Y-53864481D01*
X162959785Y-53864480D01*
X162959787Y-53864480D01*
X163026108Y-53820165D01*
X163070423Y-53753844D01*
X163070423Y-53753842D01*
X163070424Y-53753842D01*
X163082055Y-53695365D01*
X163082056Y-53695363D01*
X163082056Y-52751445D01*
X163101741Y-52684406D01*
X163118375Y-52663764D01*
X163832521Y-51949619D01*
X163893844Y-51916134D01*
X163920202Y-51913300D01*
X169701125Y-51913300D01*
X169768164Y-51932985D01*
X169813919Y-51985789D01*
X169823863Y-52054947D01*
X169794838Y-52118503D01*
X169759578Y-52146658D01*
X169744281Y-52154834D01*
X169744274Y-52154838D01*
X169597716Y-52275116D01*
X169477438Y-52421674D01*
X169477434Y-52421681D01*
X169388066Y-52588877D01*
X169388065Y-52588880D01*
X169333026Y-52770318D01*
X169314443Y-52959000D01*
X169333026Y-53147681D01*
X169333027Y-53147683D01*
X169388063Y-53329115D01*
X169388064Y-53329118D01*
X169388065Y-53329119D01*
X169388066Y-53329122D01*
X169477434Y-53496318D01*
X169477438Y-53496325D01*
X169597716Y-53642883D01*
X169744274Y-53763161D01*
X169744281Y-53763165D01*
X169911477Y-53852533D01*
X169911478Y-53852533D01*
X169911485Y-53852537D01*
X170092917Y-53907573D01*
X170092916Y-53907573D01*
X170109833Y-53909239D01*
X170281600Y-53926157D01*
X170470283Y-53907573D01*
X170651715Y-53852537D01*
X170818924Y-53763162D01*
X170965483Y-53642883D01*
X171085762Y-53496324D01*
X171175137Y-53329115D01*
X171230173Y-53147683D01*
X171248757Y-52959000D01*
X171230173Y-52770317D01*
X171175137Y-52588885D01*
X171085762Y-52421676D01*
X171085761Y-52421674D01*
X170965483Y-52275116D01*
X170818925Y-52154838D01*
X170818918Y-52154834D01*
X170803622Y-52146658D01*
X170753778Y-52097696D01*
X170738317Y-52029558D01*
X170762149Y-51963879D01*
X170817706Y-51921510D01*
X170862075Y-51913300D01*
X177383929Y-51913300D01*
X177383931Y-51913300D01*
X177460358Y-51892821D01*
X177528880Y-51853260D01*
X177584829Y-51797311D01*
X178769708Y-50612432D01*
X178831031Y-50578947D01*
X178857389Y-50576113D01*
X179801306Y-50576113D01*
X179859908Y-50564456D01*
X179929500Y-50570683D01*
G37*
G04 #@! TD.AperFunction*
G04 #@! TA.AperFunction,Conductor*
G36*
X163149375Y-87570185D02*
G01*
X163195130Y-87622989D01*
X163205074Y-87692147D01*
X163176049Y-87755703D01*
X163170017Y-87762181D01*
X162393404Y-88538794D01*
X162332081Y-88572279D01*
X162305723Y-88575113D01*
X161361803Y-88575113D01*
X161303326Y-88586744D01*
X161303325Y-88586745D01*
X161237003Y-88631060D01*
X161192688Y-88697382D01*
X161192687Y-88697383D01*
X161181056Y-88755860D01*
X161181056Y-89695365D01*
X161195048Y-89765709D01*
X161188821Y-89835301D01*
X161145957Y-89890478D01*
X161080067Y-89913722D01*
X161073431Y-89913900D01*
X151189681Y-89913900D01*
X151122642Y-89894215D01*
X151076887Y-89841411D01*
X151066943Y-89772253D01*
X151068064Y-89765709D01*
X151082055Y-89695365D01*
X151082056Y-89695363D01*
X151082056Y-89690100D01*
X151101741Y-89623061D01*
X151154545Y-89577306D01*
X151206056Y-89566100D01*
X153323960Y-89566100D01*
X153323962Y-89566100D01*
X153400389Y-89545621D01*
X153468911Y-89506060D01*
X153524860Y-89450111D01*
X155388152Y-87586819D01*
X155449475Y-87553334D01*
X155475833Y-87550500D01*
X163082336Y-87550500D01*
X163149375Y-87570185D01*
G37*
G04 #@! TD.AperFunction*
G04 #@! TA.AperFunction,Conductor*
G36*
X179929500Y-86570683D02*
G01*
X179984677Y-86613546D01*
X180007922Y-86679435D01*
X180008100Y-86686073D01*
X180008100Y-89789900D01*
X179988415Y-89856939D01*
X179935611Y-89902694D01*
X179884100Y-89913900D01*
X175189681Y-89913900D01*
X175122642Y-89894215D01*
X175076887Y-89841411D01*
X175066943Y-89772253D01*
X175068064Y-89765709D01*
X175082055Y-89695365D01*
X175082056Y-89695363D01*
X175082056Y-88755862D01*
X175082055Y-88755860D01*
X175070424Y-88697383D01*
X175070423Y-88697382D01*
X175026108Y-88631060D01*
X174959786Y-88586745D01*
X174959785Y-88586744D01*
X174901308Y-88575113D01*
X174901304Y-88575113D01*
X173361808Y-88575113D01*
X173361803Y-88575113D01*
X173303326Y-88586744D01*
X173303325Y-88586745D01*
X173237003Y-88631060D01*
X173192688Y-88697382D01*
X173192687Y-88697383D01*
X173181056Y-88755860D01*
X173181056Y-89695365D01*
X173195048Y-89765709D01*
X173188821Y-89835301D01*
X173145957Y-89890478D01*
X173080067Y-89913722D01*
X173073431Y-89913900D01*
X163189681Y-89913900D01*
X163122642Y-89894215D01*
X163076887Y-89841411D01*
X163066943Y-89772253D01*
X163068064Y-89765709D01*
X163082055Y-89695365D01*
X163082056Y-89695363D01*
X163082056Y-88751445D01*
X163101741Y-88684406D01*
X163118375Y-88663764D01*
X163545321Y-88236819D01*
X163606644Y-88203334D01*
X163633002Y-88200500D01*
X172839560Y-88200500D01*
X172839562Y-88200500D01*
X172915989Y-88180021D01*
X172984511Y-88140460D01*
X173040460Y-88084511D01*
X174112539Y-87012432D01*
X174173862Y-86978947D01*
X174200220Y-86976113D01*
X178237304Y-86976113D01*
X178237306Y-86976113D01*
X178313733Y-86955634D01*
X178382255Y-86916073D01*
X178438204Y-86860124D01*
X178685896Y-86612432D01*
X178747219Y-86578947D01*
X178773577Y-86576113D01*
X179801306Y-86576113D01*
X179859908Y-86564456D01*
X179929500Y-86570683D01*
G37*
G04 #@! TD.AperFunction*
G04 #@! TA.AperFunction,Conductor*
G36*
X179929500Y-26570683D02*
G01*
X179984677Y-26613546D01*
X180007922Y-26679435D01*
X180008100Y-26686073D01*
X180008100Y-37165152D01*
X179988415Y-37232191D01*
X179935611Y-37277946D01*
X179866453Y-37287890D01*
X179859910Y-37286770D01*
X179801304Y-37275113D01*
X178261808Y-37275113D01*
X178261803Y-37275113D01*
X178203326Y-37286744D01*
X178203325Y-37286745D01*
X178137003Y-37331060D01*
X178092688Y-37397382D01*
X178092687Y-37397383D01*
X178081056Y-37455860D01*
X178081056Y-38259168D01*
X178061371Y-38326207D01*
X178044737Y-38346849D01*
X177618805Y-38772781D01*
X177557482Y-38806266D01*
X177531124Y-38809100D01*
X174988994Y-38809100D01*
X174921955Y-38789415D01*
X174876200Y-38736611D01*
X174866256Y-38667453D01*
X174895281Y-38603897D01*
X174948678Y-38569580D01*
X174948502Y-38569155D01*
X174950862Y-38568177D01*
X174954059Y-38566123D01*
X174958391Y-38565058D01*
X174959785Y-38564480D01*
X174959787Y-38564480D01*
X175026108Y-38520165D01*
X175037438Y-38503209D01*
X175091050Y-38458404D01*
X175140540Y-38448100D01*
X175204962Y-38448100D01*
X175204962Y-38448099D01*
X175312121Y-38416635D01*
X175343050Y-38407554D01*
X175343050Y-38407553D01*
X175343053Y-38407553D01*
X175464128Y-38329743D01*
X175558377Y-38220973D01*
X175618165Y-38090057D01*
X175638647Y-37947600D01*
X175618165Y-37805143D01*
X175558377Y-37674227D01*
X175464128Y-37565457D01*
X175343053Y-37487647D01*
X175343051Y-37487646D01*
X175343049Y-37487645D01*
X175343050Y-37487645D01*
X175204963Y-37447100D01*
X175204961Y-37447100D01*
X175169923Y-37447100D01*
X175102884Y-37427415D01*
X175066821Y-37391991D01*
X175026108Y-37331060D01*
X174959786Y-37286745D01*
X174959785Y-37286744D01*
X174901308Y-37275113D01*
X174901304Y-37275113D01*
X173361808Y-37275113D01*
X173361803Y-37275113D01*
X173303326Y-37286744D01*
X173303325Y-37286745D01*
X173237003Y-37331060D01*
X173192688Y-37397382D01*
X173192687Y-37397383D01*
X173181056Y-37455860D01*
X173181056Y-38395365D01*
X173192687Y-38453842D01*
X173192688Y-38453843D01*
X173237003Y-38520165D01*
X173303325Y-38564480D01*
X173314610Y-38569155D01*
X173313638Y-38571501D01*
X173360220Y-38595867D01*
X173394794Y-38656583D01*
X173391055Y-38726352D01*
X173350189Y-38783025D01*
X173285171Y-38808606D01*
X173274118Y-38809100D01*
X170779008Y-38809100D01*
X170711969Y-38789415D01*
X170666214Y-38736611D01*
X170656270Y-38667453D01*
X170685295Y-38603897D01*
X170720555Y-38575742D01*
X170818918Y-38523165D01*
X170818924Y-38523162D01*
X170965483Y-38402883D01*
X171085762Y-38256324D01*
X171175137Y-38089115D01*
X171230173Y-37907683D01*
X171248757Y-37719000D01*
X171230173Y-37530317D01*
X171175137Y-37348885D01*
X171175133Y-37348877D01*
X171085765Y-37181681D01*
X171085761Y-37181674D01*
X170965483Y-37035116D01*
X170818925Y-36914838D01*
X170818918Y-36914834D01*
X170651722Y-36825466D01*
X170651719Y-36825465D01*
X170651718Y-36825464D01*
X170651715Y-36825463D01*
X170470283Y-36770427D01*
X170470281Y-36770426D01*
X170470283Y-36770426D01*
X170281600Y-36751843D01*
X170092918Y-36770426D01*
X169985794Y-36802921D01*
X169911485Y-36825463D01*
X169911482Y-36825464D01*
X169911480Y-36825465D01*
X169911477Y-36825466D01*
X169744281Y-36914834D01*
X169744274Y-36914838D01*
X169597716Y-37035116D01*
X169477438Y-37181674D01*
X169477434Y-37181681D01*
X169388066Y-37348877D01*
X169388065Y-37348880D01*
X169388064Y-37348882D01*
X169388063Y-37348885D01*
X169369725Y-37409338D01*
X169333026Y-37530318D01*
X169314443Y-37719000D01*
X169333026Y-37907681D01*
X169345709Y-37949492D01*
X169388063Y-38089115D01*
X169388064Y-38089118D01*
X169388065Y-38089119D01*
X169388066Y-38089122D01*
X169477434Y-38256318D01*
X169477438Y-38256325D01*
X169597716Y-38402883D01*
X169744274Y-38523161D01*
X169744281Y-38523165D01*
X169842645Y-38575742D01*
X169892489Y-38624704D01*
X169907950Y-38692842D01*
X169884119Y-38758521D01*
X169828561Y-38800890D01*
X169784192Y-38809100D01*
X167888994Y-38809100D01*
X167821955Y-38789415D01*
X167776200Y-38736611D01*
X167766256Y-38667453D01*
X167795281Y-38603897D01*
X167848678Y-38569580D01*
X167848502Y-38569155D01*
X167850862Y-38568177D01*
X167854059Y-38566123D01*
X167858391Y-38565058D01*
X167859785Y-38564480D01*
X167859787Y-38564480D01*
X167926108Y-38520165D01*
X167970423Y-38453844D01*
X167970423Y-38453842D01*
X167970424Y-38453842D01*
X167980817Y-38401590D01*
X167982056Y-38395361D01*
X167982056Y-37455865D01*
X167982056Y-37455862D01*
X167982055Y-37455860D01*
X167970424Y-37397383D01*
X167970423Y-37397382D01*
X167926108Y-37331060D01*
X167859786Y-37286745D01*
X167859785Y-37286744D01*
X167801308Y-37275113D01*
X167801304Y-37275113D01*
X166261808Y-37275113D01*
X166261803Y-37275113D01*
X166203326Y-37286744D01*
X166203325Y-37286745D01*
X166137003Y-37331060D01*
X166092688Y-37397382D01*
X166092687Y-37397383D01*
X166081056Y-37455860D01*
X166081056Y-37861811D01*
X166061371Y-37928850D01*
X166044737Y-37949492D01*
X165646848Y-38347381D01*
X165585525Y-38380866D01*
X165559167Y-38383700D01*
X163583268Y-38383700D01*
X163516229Y-38364015D01*
X163470474Y-38311211D01*
X163460530Y-38242053D01*
X163489555Y-38178498D01*
X163518774Y-38144776D01*
X163518777Y-38144773D01*
X163578565Y-38013857D01*
X163599047Y-37871400D01*
X163578565Y-37728943D01*
X163518777Y-37598027D01*
X163424528Y-37489257D01*
X163303453Y-37411447D01*
X163303451Y-37411446D01*
X163303449Y-37411445D01*
X163303450Y-37411445D01*
X163165363Y-37370900D01*
X163165361Y-37370900D01*
X163117310Y-37370900D01*
X163050271Y-37351215D01*
X163029629Y-37334581D01*
X163026109Y-37331061D01*
X162959786Y-37286745D01*
X162959785Y-37286744D01*
X162901308Y-37275113D01*
X162901304Y-37275113D01*
X161361808Y-37275113D01*
X161361803Y-37275113D01*
X161303326Y-37286744D01*
X161303325Y-37286745D01*
X161237003Y-37331060D01*
X161192688Y-37397382D01*
X161192687Y-37397383D01*
X161181056Y-37455860D01*
X161181056Y-38259700D01*
X161161371Y-38326739D01*
X161108567Y-38372494D01*
X161057056Y-38383700D01*
X156106056Y-38383700D01*
X156039017Y-38364015D01*
X155993262Y-38311211D01*
X155982056Y-38259700D01*
X155982056Y-37455862D01*
X155982055Y-37455860D01*
X155970424Y-37397383D01*
X155970423Y-37397382D01*
X155926108Y-37331060D01*
X155859786Y-37286745D01*
X155859785Y-37286744D01*
X155801308Y-37275113D01*
X155801304Y-37275113D01*
X154261808Y-37275113D01*
X154261803Y-37275113D01*
X154203326Y-37286744D01*
X154203325Y-37286745D01*
X154137003Y-37331060D01*
X154092688Y-37397382D01*
X154092687Y-37397383D01*
X154081056Y-37455860D01*
X154081056Y-37455865D01*
X154081056Y-38395361D01*
X154081056Y-38395363D01*
X154081055Y-38395363D01*
X154089678Y-38438708D01*
X154083451Y-38508300D01*
X154040588Y-38563477D01*
X153974699Y-38586722D01*
X153968061Y-38586900D01*
X151306779Y-38586900D01*
X151239740Y-38567215D01*
X151193985Y-38514411D01*
X151184041Y-38445253D01*
X151213066Y-38381697D01*
X151271844Y-38343923D01*
X151271845Y-38343923D01*
X151314650Y-38331354D01*
X151314650Y-38331353D01*
X151314653Y-38331353D01*
X151435728Y-38253543D01*
X151529977Y-38144773D01*
X151589765Y-38013857D01*
X151610247Y-37871400D01*
X151589765Y-37728943D01*
X151529977Y-37598027D01*
X151435728Y-37489257D01*
X151314653Y-37411447D01*
X151314651Y-37411446D01*
X151314649Y-37411445D01*
X151314650Y-37411445D01*
X151176563Y-37370900D01*
X151176561Y-37370900D01*
X151117310Y-37370900D01*
X151050271Y-37351215D01*
X151029629Y-37334581D01*
X151026109Y-37331061D01*
X150959786Y-37286745D01*
X150959785Y-37286744D01*
X150901308Y-37275113D01*
X150901304Y-37275113D01*
X149361808Y-37275113D01*
X149361803Y-37275113D01*
X149303326Y-37286744D01*
X149303325Y-37286745D01*
X149237003Y-37331060D01*
X149192688Y-37397382D01*
X149192687Y-37397383D01*
X149181056Y-37455860D01*
X149181056Y-37455865D01*
X149181056Y-38395361D01*
X149181056Y-38395363D01*
X149181055Y-38395363D01*
X149189678Y-38438708D01*
X149183451Y-38508300D01*
X149140588Y-38563477D01*
X149074699Y-38586722D01*
X149068061Y-38586900D01*
X148216641Y-38586900D01*
X148149602Y-38567215D01*
X148103847Y-38514411D01*
X148093903Y-38445253D01*
X148120788Y-38384235D01*
X148225761Y-38256325D01*
X148225765Y-38256318D01*
X148244657Y-38220973D01*
X148315137Y-38089115D01*
X148370173Y-37907683D01*
X148388757Y-37719000D01*
X148370173Y-37530317D01*
X148315137Y-37348885D01*
X148315133Y-37348877D01*
X148225765Y-37181681D01*
X148225761Y-37181674D01*
X148105483Y-37035116D01*
X147958925Y-36914838D01*
X147958918Y-36914834D01*
X147791722Y-36825466D01*
X147791719Y-36825465D01*
X147791718Y-36825464D01*
X147791715Y-36825463D01*
X147610283Y-36770427D01*
X147610281Y-36770426D01*
X147610283Y-36770426D01*
X147421600Y-36751843D01*
X147232918Y-36770426D01*
X147125794Y-36802921D01*
X147051485Y-36825463D01*
X147051482Y-36825464D01*
X147051480Y-36825465D01*
X147051477Y-36825466D01*
X146884281Y-36914834D01*
X146884274Y-36914838D01*
X146737716Y-37035116D01*
X146617438Y-37181674D01*
X146617434Y-37181681D01*
X146528066Y-37348877D01*
X146528065Y-37348880D01*
X146528064Y-37348882D01*
X146528063Y-37348885D01*
X146509725Y-37409338D01*
X146473026Y-37530318D01*
X146454443Y-37719000D01*
X146473026Y-37907681D01*
X146485709Y-37949492D01*
X146528063Y-38089115D01*
X146528064Y-38089118D01*
X146528065Y-38089119D01*
X146528066Y-38089122D01*
X146617434Y-38256318D01*
X146617438Y-38256325D01*
X146722412Y-38384235D01*
X146749725Y-38448545D01*
X146737934Y-38517412D01*
X146690782Y-38568973D01*
X146626559Y-38586900D01*
X144095051Y-38586900D01*
X144028012Y-38567215D01*
X143982257Y-38514411D01*
X143972313Y-38445253D01*
X143973434Y-38438708D01*
X143982056Y-38395363D01*
X143982056Y-37455862D01*
X143982055Y-37455860D01*
X143970424Y-37397383D01*
X143970423Y-37397382D01*
X143926108Y-37331060D01*
X143859786Y-37286745D01*
X143859785Y-37286744D01*
X143801308Y-37275113D01*
X143801304Y-37275113D01*
X142261808Y-37275113D01*
X142261803Y-37275113D01*
X142203326Y-37286744D01*
X142203325Y-37286745D01*
X142137003Y-37331060D01*
X142092688Y-37397382D01*
X142092687Y-37397383D01*
X142081056Y-37455860D01*
X142081056Y-38395363D01*
X142081653Y-38401426D01*
X142079980Y-38401590D01*
X142074461Y-38463162D01*
X142046759Y-38505425D01*
X141671405Y-38880781D01*
X141610082Y-38914266D01*
X141583724Y-38917100D01*
X130872038Y-38917100D01*
X130833824Y-38927339D01*
X130795609Y-38937579D01*
X130795604Y-38937582D01*
X130780699Y-38946187D01*
X130712798Y-38962657D01*
X130646772Y-38939803D01*
X130603584Y-38884880D01*
X130596945Y-38815326D01*
X130628963Y-38753225D01*
X130630939Y-38751200D01*
X130769710Y-38612429D01*
X130831031Y-38578947D01*
X130857389Y-38576113D01*
X131801306Y-38576113D01*
X131801307Y-38576112D01*
X131819352Y-38572523D01*
X131859785Y-38564481D01*
X131859785Y-38564480D01*
X131859787Y-38564480D01*
X131926108Y-38520165D01*
X131970423Y-38453844D01*
X131970423Y-38453842D01*
X131970424Y-38453842D01*
X131980817Y-38401590D01*
X131982055Y-38395365D01*
X137181056Y-38395365D01*
X137192687Y-38453842D01*
X137192688Y-38453843D01*
X137237003Y-38520165D01*
X137303325Y-38564480D01*
X137303326Y-38564481D01*
X137361803Y-38576112D01*
X137361806Y-38576113D01*
X137361808Y-38576113D01*
X138901306Y-38576113D01*
X138901307Y-38576112D01*
X138919352Y-38572523D01*
X138959785Y-38564481D01*
X138959785Y-38564480D01*
X138959787Y-38564480D01*
X139026108Y-38520165D01*
X139037438Y-38503209D01*
X139091050Y-38458404D01*
X139140540Y-38448100D01*
X139187762Y-38448100D01*
X139187762Y-38448099D01*
X139294921Y-38416635D01*
X139325850Y-38407554D01*
X139325850Y-38407553D01*
X139325853Y-38407553D01*
X139446928Y-38329743D01*
X139541177Y-38220973D01*
X139600965Y-38090057D01*
X139621447Y-37947600D01*
X139600965Y-37805143D01*
X139541177Y-37674227D01*
X139446928Y-37565457D01*
X139325853Y-37487647D01*
X139325851Y-37487646D01*
X139325849Y-37487645D01*
X139325850Y-37487645D01*
X139187763Y-37447100D01*
X139187761Y-37447100D01*
X139169923Y-37447100D01*
X139102884Y-37427415D01*
X139066821Y-37391991D01*
X139026108Y-37331060D01*
X138959786Y-37286745D01*
X138959785Y-37286744D01*
X138901308Y-37275113D01*
X138901304Y-37275113D01*
X137361808Y-37275113D01*
X137361803Y-37275113D01*
X137303326Y-37286744D01*
X137303325Y-37286745D01*
X137237003Y-37331060D01*
X137192688Y-37397382D01*
X137192687Y-37397383D01*
X137181056Y-37455860D01*
X137181056Y-38395365D01*
X131982055Y-38395365D01*
X131982056Y-38395361D01*
X131982056Y-37455865D01*
X131982056Y-37455862D01*
X131982055Y-37455860D01*
X131970424Y-37397383D01*
X131970423Y-37397382D01*
X131926108Y-37331060D01*
X131859786Y-37286745D01*
X131859785Y-37286744D01*
X131801308Y-37275113D01*
X131801304Y-37275113D01*
X130261808Y-37275113D01*
X130261803Y-37275113D01*
X130203326Y-37286744D01*
X130203325Y-37286745D01*
X130137003Y-37331060D01*
X130092688Y-37397382D01*
X130092687Y-37397383D01*
X130081056Y-37455860D01*
X130081056Y-38399779D01*
X130061371Y-38466818D01*
X130044737Y-38487460D01*
X129753017Y-38779181D01*
X129691694Y-38812666D01*
X129665336Y-38815500D01*
X127468438Y-38815500D01*
X127392011Y-38835979D01*
X127392009Y-38835980D01*
X127371470Y-38847838D01*
X127371469Y-38847837D01*
X127323495Y-38875535D01*
X127323487Y-38875541D01*
X126962648Y-39236381D01*
X126901325Y-39269866D01*
X126874967Y-39272700D01*
X118903881Y-39272700D01*
X118865667Y-39282939D01*
X118827452Y-39293179D01*
X118827447Y-39293182D01*
X118758938Y-39332735D01*
X118758930Y-39332741D01*
X118423491Y-39668181D01*
X118362168Y-39701666D01*
X118335810Y-39704500D01*
X115312607Y-39704500D01*
X115274393Y-39714739D01*
X115236178Y-39724979D01*
X115236177Y-39724980D01*
X115179486Y-39757710D01*
X115179486Y-39757711D01*
X115167658Y-39764540D01*
X115167655Y-39764542D01*
X114393404Y-40538794D01*
X114332081Y-40572279D01*
X114305723Y-40575113D01*
X113361803Y-40575113D01*
X113303326Y-40586744D01*
X113303325Y-40586745D01*
X113237003Y-40631060D01*
X113192688Y-40697382D01*
X113192687Y-40697383D01*
X113181056Y-40755860D01*
X113181056Y-41695365D01*
X113192687Y-41753842D01*
X113192688Y-41753843D01*
X113237003Y-41820165D01*
X113303325Y-41864480D01*
X113303326Y-41864481D01*
X113361803Y-41876112D01*
X113361806Y-41876113D01*
X113361808Y-41876113D01*
X114901306Y-41876113D01*
X114901307Y-41876112D01*
X114916124Y-41873165D01*
X114959785Y-41864481D01*
X114959785Y-41864480D01*
X114959787Y-41864480D01*
X115026108Y-41820165D01*
X115070423Y-41753844D01*
X115070423Y-41753842D01*
X115070424Y-41753842D01*
X115082055Y-41695365D01*
X115082056Y-41695363D01*
X115082056Y-40751445D01*
X115101741Y-40684406D01*
X115118375Y-40663764D01*
X115440321Y-40341819D01*
X115501644Y-40308334D01*
X115528002Y-40305500D01*
X118551203Y-40305500D01*
X118551205Y-40305500D01*
X118627632Y-40285021D01*
X118696154Y-40245460D01*
X118752103Y-40189511D01*
X119031595Y-39910019D01*
X119092918Y-39876534D01*
X119119276Y-39873700D01*
X126779124Y-39873700D01*
X126846163Y-39893385D01*
X126891918Y-39946189D01*
X126901862Y-40015347D01*
X126872837Y-40078903D01*
X126866805Y-40085381D01*
X126413392Y-40538794D01*
X126352069Y-40572279D01*
X126325711Y-40575113D01*
X125361803Y-40575113D01*
X125303326Y-40586744D01*
X125303325Y-40586745D01*
X125237003Y-40631060D01*
X125192688Y-40697382D01*
X125192687Y-40697383D01*
X125181056Y-40755860D01*
X125181056Y-41695365D01*
X125192687Y-41753842D01*
X125192688Y-41753843D01*
X125237003Y-41820165D01*
X125303325Y-41864480D01*
X125303326Y-41864481D01*
X125361803Y-41876112D01*
X125361806Y-41876113D01*
X125361808Y-41876113D01*
X126901306Y-41876113D01*
X126901307Y-41876112D01*
X126916124Y-41873165D01*
X126959785Y-41864481D01*
X126959785Y-41864480D01*
X126959787Y-41864480D01*
X127026108Y-41820165D01*
X127070423Y-41753844D01*
X127070423Y-41753842D01*
X127070424Y-41753842D01*
X127082055Y-41695365D01*
X127082056Y-41695363D01*
X127082056Y-40771433D01*
X127101741Y-40704394D01*
X127118370Y-40683757D01*
X127257110Y-40545016D01*
X127318432Y-40511534D01*
X127344790Y-40508700D01*
X129960560Y-40508700D01*
X129960562Y-40508700D01*
X130036989Y-40488221D01*
X130105511Y-40448660D01*
X130161460Y-40392711D01*
X130999752Y-39554419D01*
X131061075Y-39520934D01*
X131087433Y-39518100D01*
X139225124Y-39518100D01*
X139292163Y-39537785D01*
X139337918Y-39590589D01*
X139347862Y-39659747D01*
X139318837Y-39723303D01*
X139312805Y-39729781D01*
X138503792Y-40538794D01*
X138442469Y-40572279D01*
X138416111Y-40575113D01*
X137361803Y-40575113D01*
X137303326Y-40586744D01*
X137303325Y-40586745D01*
X137237003Y-40631060D01*
X137192688Y-40697382D01*
X137192687Y-40697383D01*
X137181056Y-40755860D01*
X137181056Y-41695365D01*
X137192687Y-41753842D01*
X137192688Y-41753843D01*
X137237003Y-41820165D01*
X137303325Y-41864480D01*
X137303326Y-41864481D01*
X137361803Y-41876112D01*
X137361806Y-41876113D01*
X137361808Y-41876113D01*
X138901306Y-41876113D01*
X138901307Y-41876112D01*
X138916124Y-41873165D01*
X138959785Y-41864481D01*
X138959785Y-41864480D01*
X138959787Y-41864480D01*
X139026108Y-41820165D01*
X139070423Y-41753844D01*
X139070423Y-41753842D01*
X139070424Y-41753842D01*
X139082055Y-41695365D01*
X139082056Y-41695363D01*
X139082056Y-40861834D01*
X139101741Y-40794795D01*
X139118375Y-40774153D01*
X139728509Y-40164019D01*
X139789832Y-40130534D01*
X139816190Y-40127700D01*
X142889160Y-40127700D01*
X142889162Y-40127700D01*
X142965589Y-40107221D01*
X143034111Y-40067660D01*
X143090060Y-40011711D01*
X143877552Y-39224219D01*
X143938875Y-39190734D01*
X143965233Y-39187900D01*
X146888645Y-39187900D01*
X146955684Y-39207585D01*
X147001439Y-39260389D01*
X147011383Y-39329547D01*
X146982358Y-39393103D01*
X146947098Y-39421258D01*
X146884281Y-39454834D01*
X146884274Y-39454838D01*
X146737716Y-39575116D01*
X146617438Y-39721674D01*
X146617434Y-39721681D01*
X146528066Y-39888877D01*
X146528065Y-39888880D01*
X146528064Y-39888882D01*
X146528063Y-39888885D01*
X146511591Y-39943188D01*
X146473026Y-40070318D01*
X146454443Y-40259000D01*
X146473026Y-40447681D01*
X146485324Y-40488221D01*
X146528063Y-40629115D01*
X146528064Y-40629118D01*
X146528065Y-40629119D01*
X146528066Y-40629122D01*
X146617434Y-40796318D01*
X146617438Y-40796325D01*
X146737716Y-40942883D01*
X146884274Y-41063161D01*
X146884281Y-41063165D01*
X147051477Y-41152533D01*
X147051478Y-41152533D01*
X147051485Y-41152537D01*
X147232917Y-41207573D01*
X147232916Y-41207573D01*
X147249833Y-41209239D01*
X147421600Y-41226157D01*
X147610283Y-41207573D01*
X147791715Y-41152537D01*
X147958924Y-41063162D01*
X148105483Y-40942883D01*
X148225762Y-40796324D01*
X148315137Y-40629115D01*
X148370173Y-40447683D01*
X148388757Y-40259000D01*
X148370173Y-40070317D01*
X148315137Y-39888885D01*
X148314672Y-39888015D01*
X148225765Y-39721681D01*
X148225761Y-39721674D01*
X148105483Y-39575116D01*
X147958925Y-39454838D01*
X147958918Y-39454834D01*
X147896102Y-39421258D01*
X147846258Y-39372296D01*
X147830797Y-39304158D01*
X147854629Y-39238478D01*
X147910186Y-39196110D01*
X147954555Y-39187900D01*
X154219717Y-39187900D01*
X154219719Y-39187900D01*
X154296146Y-39167421D01*
X154364668Y-39127860D01*
X154420617Y-39071911D01*
X154880096Y-38612432D01*
X154941419Y-38578947D01*
X154967777Y-38576113D01*
X155156723Y-38576113D01*
X155223762Y-38595798D01*
X155269517Y-38648602D01*
X155279461Y-38717760D01*
X155250436Y-38781316D01*
X155244404Y-38787794D01*
X153143404Y-40888794D01*
X153082081Y-40922279D01*
X153055723Y-40925113D01*
X151206056Y-40925113D01*
X151139017Y-40905428D01*
X151093262Y-40852624D01*
X151082056Y-40801113D01*
X151082056Y-40755862D01*
X151082055Y-40755860D01*
X151070424Y-40697383D01*
X151070423Y-40697382D01*
X151026108Y-40631060D01*
X150959786Y-40586745D01*
X150959785Y-40586744D01*
X150901308Y-40575113D01*
X150901304Y-40575113D01*
X149361808Y-40575113D01*
X149361803Y-40575113D01*
X149303326Y-40586744D01*
X149303325Y-40586745D01*
X149237003Y-40631060D01*
X149192688Y-40697382D01*
X149192687Y-40697383D01*
X149181056Y-40755860D01*
X149181056Y-41695365D01*
X149192687Y-41753842D01*
X149192688Y-41753843D01*
X149237003Y-41820165D01*
X149303325Y-41864480D01*
X149303326Y-41864481D01*
X149361803Y-41876112D01*
X149361806Y-41876113D01*
X149361808Y-41876113D01*
X150901306Y-41876113D01*
X150901307Y-41876112D01*
X150916124Y-41873165D01*
X150959785Y-41864481D01*
X150959785Y-41864480D01*
X150959787Y-41864480D01*
X151026108Y-41820165D01*
X151070423Y-41753844D01*
X151070423Y-41753842D01*
X151070424Y-41753842D01*
X151082055Y-41695365D01*
X151082056Y-41695363D01*
X151082056Y-41650113D01*
X151101741Y-41583074D01*
X151154545Y-41537319D01*
X151206056Y-41526113D01*
X153271116Y-41526113D01*
X153271118Y-41526113D01*
X153347545Y-41505634D01*
X153416067Y-41466073D01*
X153472016Y-41410124D01*
X155861121Y-39021019D01*
X155922444Y-38987534D01*
X155948802Y-38984700D01*
X163507524Y-38984700D01*
X163574563Y-39004385D01*
X163620318Y-39057189D01*
X163630262Y-39126347D01*
X163601237Y-39189903D01*
X163595205Y-39196381D01*
X162252792Y-40538794D01*
X162191469Y-40572279D01*
X162165111Y-40575113D01*
X161361803Y-40575113D01*
X161303326Y-40586744D01*
X161303325Y-40586745D01*
X161237003Y-40631060D01*
X161192688Y-40697382D01*
X161192687Y-40697383D01*
X161181056Y-40755860D01*
X161181056Y-41695365D01*
X161192687Y-41753842D01*
X161192688Y-41753843D01*
X161237003Y-41820165D01*
X161303325Y-41864480D01*
X161303326Y-41864481D01*
X161361803Y-41876112D01*
X161361806Y-41876113D01*
X161361808Y-41876113D01*
X162901306Y-41876113D01*
X162901307Y-41876112D01*
X162916124Y-41873165D01*
X162959785Y-41864481D01*
X162959785Y-41864480D01*
X162959787Y-41864480D01*
X163026108Y-41820165D01*
X163070423Y-41753844D01*
X163070423Y-41753842D01*
X163070424Y-41753842D01*
X163082055Y-41695365D01*
X163082056Y-41695363D01*
X163082056Y-40755862D01*
X163082055Y-40755860D01*
X163070424Y-40697383D01*
X163065750Y-40686100D01*
X163069562Y-40684520D01*
X163055502Y-40639628D01*
X163073982Y-40572247D01*
X163091796Y-40549730D01*
X164195109Y-39446419D01*
X164256432Y-39412934D01*
X164282790Y-39410100D01*
X169470966Y-39410100D01*
X169538005Y-39429785D01*
X169583760Y-39482589D01*
X169593704Y-39551747D01*
X169566819Y-39612765D01*
X169477438Y-39721674D01*
X169477434Y-39721681D01*
X169388066Y-39888877D01*
X169388065Y-39888880D01*
X169388064Y-39888882D01*
X169388063Y-39888885D01*
X169371591Y-39943188D01*
X169333026Y-40070318D01*
X169314443Y-40259000D01*
X169333026Y-40447681D01*
X169345324Y-40488221D01*
X169388063Y-40629115D01*
X169388064Y-40629118D01*
X169388065Y-40629119D01*
X169388066Y-40629122D01*
X169477434Y-40796318D01*
X169477438Y-40796325D01*
X169597716Y-40942883D01*
X169744274Y-41063161D01*
X169744281Y-41063165D01*
X169911477Y-41152533D01*
X169911478Y-41152533D01*
X169911485Y-41152537D01*
X170092917Y-41207573D01*
X170092916Y-41207573D01*
X170109833Y-41209239D01*
X170281600Y-41226157D01*
X170470283Y-41207573D01*
X170651715Y-41152537D01*
X170818924Y-41063162D01*
X170965483Y-40942883D01*
X171085762Y-40796324D01*
X171175137Y-40629115D01*
X171230173Y-40447683D01*
X171248757Y-40259000D01*
X171230173Y-40070317D01*
X171175137Y-39888885D01*
X171174672Y-39888015D01*
X171085765Y-39721681D01*
X171085761Y-39721674D01*
X170996381Y-39612765D01*
X170969068Y-39548455D01*
X170980859Y-39479588D01*
X171028011Y-39428027D01*
X171092234Y-39410100D01*
X177746517Y-39410100D01*
X177746519Y-39410100D01*
X177822946Y-39389621D01*
X177891468Y-39350060D01*
X177947417Y-39294111D01*
X178629096Y-38612432D01*
X178690419Y-38578947D01*
X178716777Y-38576113D01*
X179801306Y-38576113D01*
X179859908Y-38564456D01*
X179929500Y-38570683D01*
X179984677Y-38613546D01*
X180007922Y-38679435D01*
X180008100Y-38686073D01*
X180008100Y-49165152D01*
X179988415Y-49232191D01*
X179935611Y-49277946D01*
X179866453Y-49287890D01*
X179859910Y-49286770D01*
X179801304Y-49275113D01*
X178261808Y-49275113D01*
X178261803Y-49275113D01*
X178203326Y-49286744D01*
X178203325Y-49286745D01*
X178137003Y-49331060D01*
X178092688Y-49397382D01*
X178092687Y-49397383D01*
X178081056Y-49455860D01*
X178081056Y-50399779D01*
X178061371Y-50466818D01*
X178044737Y-50487460D01*
X177256217Y-51275981D01*
X177194894Y-51309466D01*
X177168536Y-51312300D01*
X171055429Y-51312300D01*
X170988390Y-51292615D01*
X170942635Y-51239811D01*
X170932691Y-51170653D01*
X170961716Y-51107097D01*
X170964322Y-51104297D01*
X170965481Y-51102884D01*
X170965483Y-51102883D01*
X171085762Y-50956324D01*
X171175137Y-50789115D01*
X171230173Y-50607683D01*
X171248757Y-50419000D01*
X171230173Y-50230317D01*
X171175137Y-50048885D01*
X171101436Y-49911000D01*
X171085765Y-49881681D01*
X171085761Y-49881674D01*
X170965483Y-49735116D01*
X170818925Y-49614838D01*
X170818918Y-49614834D01*
X170760966Y-49583858D01*
X170711122Y-49534896D01*
X170695661Y-49466758D01*
X170719493Y-49401079D01*
X170775050Y-49358710D01*
X170819419Y-49350500D01*
X173057056Y-49350500D01*
X173124095Y-49370185D01*
X173169850Y-49422989D01*
X173181056Y-49474500D01*
X173181056Y-50395365D01*
X173192687Y-50453842D01*
X173192688Y-50453843D01*
X173237003Y-50520165D01*
X173303325Y-50564480D01*
X173303326Y-50564481D01*
X173361803Y-50576112D01*
X173361806Y-50576113D01*
X173361808Y-50576113D01*
X174901306Y-50576113D01*
X174901307Y-50576112D01*
X174925677Y-50571265D01*
X174959785Y-50564481D01*
X174959785Y-50564480D01*
X174959787Y-50564480D01*
X175026108Y-50520165D01*
X175070423Y-50453844D01*
X175070423Y-50453842D01*
X175070424Y-50453842D01*
X175081858Y-50396354D01*
X175082056Y-50395361D01*
X175082056Y-49890361D01*
X175101741Y-49823322D01*
X175154545Y-49777567D01*
X175171116Y-49771385D01*
X175210053Y-49759953D01*
X175331128Y-49682143D01*
X175425377Y-49573373D01*
X175485165Y-49442457D01*
X175505647Y-49300000D01*
X175485165Y-49157543D01*
X175425377Y-49026627D01*
X175331128Y-48917857D01*
X175210053Y-48840047D01*
X175210051Y-48840046D01*
X175210049Y-48840045D01*
X175210050Y-48840045D01*
X175071963Y-48799500D01*
X175071961Y-48799500D01*
X174950347Y-48799500D01*
X174888346Y-48782887D01*
X174865990Y-48769979D01*
X174840513Y-48763152D01*
X174789562Y-48749500D01*
X174789560Y-48749500D01*
X171074507Y-48749500D01*
X171007468Y-48729815D01*
X170961713Y-48677011D01*
X170951769Y-48607853D01*
X170978654Y-48546835D01*
X171085761Y-48416325D01*
X171085765Y-48416318D01*
X171175133Y-48249122D01*
X171175137Y-48249115D01*
X171230173Y-48067683D01*
X171248757Y-47879000D01*
X171230173Y-47690317D01*
X171175137Y-47508885D01*
X171085762Y-47341676D01*
X171085761Y-47341674D01*
X170965483Y-47195116D01*
X170818925Y-47074838D01*
X170818918Y-47074834D01*
X170651722Y-46985466D01*
X170651719Y-46985465D01*
X170651718Y-46985464D01*
X170651715Y-46985463D01*
X170470283Y-46930427D01*
X170470281Y-46930426D01*
X170470283Y-46930426D01*
X170281600Y-46911843D01*
X170092918Y-46930426D01*
X169985794Y-46962921D01*
X169911485Y-46985463D01*
X169911482Y-46985464D01*
X169911480Y-46985465D01*
X169911477Y-46985466D01*
X169744281Y-47074834D01*
X169744274Y-47074838D01*
X169597716Y-47195116D01*
X169477438Y-47341674D01*
X169477434Y-47341681D01*
X169388066Y-47508877D01*
X169388065Y-47508880D01*
X169333026Y-47690318D01*
X169314443Y-47879000D01*
X169333026Y-48067681D01*
X169333027Y-48067683D01*
X169388063Y-48249115D01*
X169388064Y-48249118D01*
X169388065Y-48249119D01*
X169388066Y-48249122D01*
X169477434Y-48416318D01*
X169477438Y-48416325D01*
X169584546Y-48546835D01*
X169611859Y-48611145D01*
X169600068Y-48680012D01*
X169552916Y-48731573D01*
X169488693Y-48749500D01*
X163991038Y-48749500D01*
X163952824Y-48759739D01*
X163914609Y-48769979D01*
X163880523Y-48789659D01*
X163863479Y-48799500D01*
X163863477Y-48799500D01*
X163863477Y-48799501D01*
X163846092Y-48809537D01*
X163846087Y-48809541D01*
X163256047Y-49399581D01*
X163194724Y-49433066D01*
X163168366Y-49435900D01*
X163162439Y-49435900D01*
X163095400Y-49416215D01*
X163059337Y-49380791D01*
X163026108Y-49331060D01*
X162959786Y-49286745D01*
X162959785Y-49286744D01*
X162901308Y-49275113D01*
X162901304Y-49275113D01*
X161361808Y-49275113D01*
X161361803Y-49275113D01*
X161303326Y-49286744D01*
X161303325Y-49286745D01*
X161237003Y-49331060D01*
X161192688Y-49397382D01*
X161192687Y-49397383D01*
X161181056Y-49455860D01*
X161181056Y-50395365D01*
X161192687Y-50453842D01*
X161192688Y-50453843D01*
X161237003Y-50520165D01*
X161303325Y-50564480D01*
X161303326Y-50564481D01*
X161361803Y-50576112D01*
X161361806Y-50576113D01*
X161361808Y-50576113D01*
X162901306Y-50576113D01*
X162901307Y-50576112D01*
X162925677Y-50571265D01*
X162959785Y-50564481D01*
X162959785Y-50564480D01*
X162959787Y-50564480D01*
X163026108Y-50520165D01*
X163044922Y-50492009D01*
X163098535Y-50447204D01*
X163148024Y-50436900D01*
X163216162Y-50436900D01*
X163216162Y-50436899D01*
X163354253Y-50396353D01*
X163475328Y-50318543D01*
X163569577Y-50209773D01*
X163629365Y-50078857D01*
X163649847Y-49936400D01*
X163648539Y-49927305D01*
X163658479Y-49858149D01*
X163683592Y-49821977D01*
X164118752Y-49386819D01*
X164180075Y-49353334D01*
X164206433Y-49350500D01*
X165957056Y-49350500D01*
X166024095Y-49370185D01*
X166069850Y-49422989D01*
X166081056Y-49474500D01*
X166081056Y-49523900D01*
X166061371Y-49590939D01*
X166008567Y-49636694D01*
X165957056Y-49647900D01*
X164803522Y-49647900D01*
X164772951Y-49656091D01*
X164727092Y-49668379D01*
X164727091Y-49668380D01*
X164683102Y-49693778D01*
X164683101Y-49693778D01*
X164658579Y-49707935D01*
X164658571Y-49707941D01*
X162227719Y-52138794D01*
X162166396Y-52172279D01*
X162140038Y-52175113D01*
X153443564Y-52175113D01*
X153376525Y-52155428D01*
X153330770Y-52102624D01*
X153320826Y-52033466D01*
X153349851Y-51969910D01*
X153381565Y-51943725D01*
X153381744Y-51943621D01*
X153381746Y-51943621D01*
X153450268Y-51904060D01*
X153506217Y-51848111D01*
X154741896Y-50612432D01*
X154803219Y-50578947D01*
X154829577Y-50576113D01*
X155801306Y-50576113D01*
X155801307Y-50576112D01*
X155825677Y-50571265D01*
X155859785Y-50564481D01*
X155859785Y-50564480D01*
X155859787Y-50564480D01*
X155926108Y-50520165D01*
X155970423Y-50453844D01*
X155970423Y-50453842D01*
X155970424Y-50453842D01*
X155981858Y-50396354D01*
X155982056Y-50395361D01*
X155982056Y-49455865D01*
X155982056Y-49455862D01*
X155982055Y-49455860D01*
X155970424Y-49397383D01*
X155970423Y-49397382D01*
X155926108Y-49331060D01*
X155859786Y-49286745D01*
X155859785Y-49286744D01*
X155801308Y-49275113D01*
X155801304Y-49275113D01*
X154261808Y-49275113D01*
X154261803Y-49275113D01*
X154203326Y-49286744D01*
X154203325Y-49286745D01*
X154137003Y-49331060D01*
X154092688Y-49397382D01*
X154092687Y-49397383D01*
X154081056Y-49455860D01*
X154081056Y-50371967D01*
X154061371Y-50439006D01*
X154044737Y-50459648D01*
X153177605Y-51326781D01*
X153116282Y-51360266D01*
X153089924Y-51363100D01*
X148134965Y-51363100D01*
X148067926Y-51343415D01*
X148022171Y-51290611D01*
X148012227Y-51221453D01*
X148041252Y-51157897D01*
X148056300Y-51143247D01*
X148105483Y-51102883D01*
X148225761Y-50956325D01*
X148225765Y-50956318D01*
X148287387Y-50841032D01*
X148315137Y-50789115D01*
X148370173Y-50607683D01*
X148388757Y-50419000D01*
X148386429Y-50395365D01*
X149181056Y-50395365D01*
X149192687Y-50453842D01*
X149192688Y-50453843D01*
X149237003Y-50520165D01*
X149303325Y-50564480D01*
X149303326Y-50564481D01*
X149361803Y-50576112D01*
X149361806Y-50576113D01*
X149361808Y-50576113D01*
X150901306Y-50576113D01*
X150901307Y-50576112D01*
X150925677Y-50571265D01*
X150959785Y-50564481D01*
X150959785Y-50564480D01*
X150959787Y-50564480D01*
X151026108Y-50520165D01*
X151061894Y-50466609D01*
X151115507Y-50421804D01*
X151164996Y-50411500D01*
X151201962Y-50411500D01*
X151201962Y-50411499D01*
X151340053Y-50370953D01*
X151461128Y-50293143D01*
X151555377Y-50184373D01*
X151615165Y-50053457D01*
X151635647Y-49911000D01*
X151615165Y-49768543D01*
X151555377Y-49637627D01*
X151461128Y-49528857D01*
X151340053Y-49451047D01*
X151340051Y-49451046D01*
X151340049Y-49451045D01*
X151340050Y-49451045D01*
X151201963Y-49410500D01*
X151201961Y-49410500D01*
X151145467Y-49410500D01*
X151078428Y-49390815D01*
X151042365Y-49355390D01*
X151026109Y-49331061D01*
X150959786Y-49286745D01*
X150959785Y-49286744D01*
X150901308Y-49275113D01*
X150901304Y-49275113D01*
X149361808Y-49275113D01*
X149361803Y-49275113D01*
X149303326Y-49286744D01*
X149303325Y-49286745D01*
X149237003Y-49331060D01*
X149192688Y-49397382D01*
X149192687Y-49397383D01*
X149181056Y-49455860D01*
X149181056Y-50395365D01*
X148386429Y-50395365D01*
X148370173Y-50230317D01*
X148315137Y-50048885D01*
X148241436Y-49911000D01*
X148225765Y-49881681D01*
X148225761Y-49881674D01*
X148105483Y-49735116D01*
X147958925Y-49614838D01*
X147958918Y-49614834D01*
X147791722Y-49525466D01*
X147791719Y-49525465D01*
X147791718Y-49525464D01*
X147791715Y-49525463D01*
X147610283Y-49470427D01*
X147610281Y-49470426D01*
X147610283Y-49470426D01*
X147421600Y-49451843D01*
X147232918Y-49470426D01*
X147125794Y-49502921D01*
X147051485Y-49525463D01*
X147051482Y-49525464D01*
X147051480Y-49525465D01*
X147051477Y-49525466D01*
X146884281Y-49614834D01*
X146884274Y-49614838D01*
X146737716Y-49735116D01*
X146617438Y-49881674D01*
X146617434Y-49881681D01*
X146528066Y-50048877D01*
X146528065Y-50048880D01*
X146528064Y-50048882D01*
X146528063Y-50048885D01*
X146505521Y-50123194D01*
X146473026Y-50230318D01*
X146454443Y-50419000D01*
X146473026Y-50607681D01*
X146474805Y-50613546D01*
X146528063Y-50789115D01*
X146528064Y-50789118D01*
X146528065Y-50789119D01*
X146528066Y-50789122D01*
X146617434Y-50956318D01*
X146617438Y-50956325D01*
X146737716Y-51102883D01*
X146786900Y-51143247D01*
X146826234Y-51200992D01*
X146828105Y-51270837D01*
X146791918Y-51330605D01*
X146729162Y-51361321D01*
X146708235Y-51363100D01*
X142276390Y-51363100D01*
X142209351Y-51343415D01*
X142163596Y-51290611D01*
X142153652Y-51221453D01*
X142182677Y-51157897D01*
X142188709Y-51151419D01*
X142727696Y-50612432D01*
X142789019Y-50578947D01*
X142815377Y-50576113D01*
X143801306Y-50576113D01*
X143801307Y-50576112D01*
X143825677Y-50571265D01*
X143859785Y-50564481D01*
X143859785Y-50564480D01*
X143859787Y-50564480D01*
X143926108Y-50520165D01*
X143970423Y-50453844D01*
X143970423Y-50453842D01*
X143970424Y-50453842D01*
X143981858Y-50396354D01*
X143982056Y-50395361D01*
X143982056Y-49455865D01*
X143982056Y-49455862D01*
X143982055Y-49455860D01*
X143970424Y-49397383D01*
X143970423Y-49397382D01*
X143926108Y-49331060D01*
X143859786Y-49286745D01*
X143859785Y-49286744D01*
X143801308Y-49275113D01*
X143801304Y-49275113D01*
X142261808Y-49275113D01*
X142261803Y-49275113D01*
X142203326Y-49286744D01*
X142203325Y-49286745D01*
X142137003Y-49331060D01*
X142092688Y-49397382D01*
X142092687Y-49397383D01*
X142081056Y-49455860D01*
X142081056Y-50357767D01*
X142061371Y-50424806D01*
X142044737Y-50445448D01*
X141685473Y-50804713D01*
X141624150Y-50838198D01*
X141597792Y-50841032D01*
X130936658Y-50841032D01*
X130869619Y-50821347D01*
X130823864Y-50768543D01*
X130813920Y-50699385D01*
X130842945Y-50635829D01*
X130848977Y-50629351D01*
X130865896Y-50612432D01*
X130927219Y-50578947D01*
X130953577Y-50576113D01*
X131801306Y-50576113D01*
X131801307Y-50576112D01*
X131825677Y-50571265D01*
X131859785Y-50564481D01*
X131859785Y-50564480D01*
X131859787Y-50564480D01*
X131926108Y-50520165D01*
X131970423Y-50453844D01*
X131970423Y-50453842D01*
X131970424Y-50453842D01*
X131981858Y-50396354D01*
X131982055Y-50395365D01*
X137181056Y-50395365D01*
X137192687Y-50453842D01*
X137192688Y-50453843D01*
X137237003Y-50520165D01*
X137303325Y-50564480D01*
X137303326Y-50564481D01*
X137361803Y-50576112D01*
X137361806Y-50576113D01*
X137361808Y-50576113D01*
X138901306Y-50576113D01*
X138901307Y-50576112D01*
X138925677Y-50571265D01*
X138959785Y-50564481D01*
X138959785Y-50564480D01*
X138959787Y-50564480D01*
X139026108Y-50520165D01*
X139061894Y-50466609D01*
X139115507Y-50421804D01*
X139164996Y-50411500D01*
X139187762Y-50411500D01*
X139187762Y-50411499D01*
X139325853Y-50370953D01*
X139446928Y-50293143D01*
X139541177Y-50184373D01*
X139600965Y-50053457D01*
X139621447Y-49911000D01*
X139600965Y-49768543D01*
X139541177Y-49637627D01*
X139446928Y-49528857D01*
X139325853Y-49451047D01*
X139325851Y-49451046D01*
X139325849Y-49451045D01*
X139325850Y-49451045D01*
X139187763Y-49410500D01*
X139187761Y-49410500D01*
X139145467Y-49410500D01*
X139078428Y-49390815D01*
X139042365Y-49355390D01*
X139026109Y-49331061D01*
X138959786Y-49286745D01*
X138959785Y-49286744D01*
X138901308Y-49275113D01*
X138901304Y-49275113D01*
X137361808Y-49275113D01*
X137361803Y-49275113D01*
X137303326Y-49286744D01*
X137303325Y-49286745D01*
X137237003Y-49331060D01*
X137192688Y-49397382D01*
X137192687Y-49397383D01*
X137181056Y-49455860D01*
X137181056Y-50395365D01*
X131982055Y-50395365D01*
X131982056Y-50395361D01*
X131982056Y-49600113D01*
X132001741Y-49533074D01*
X132054545Y-49487319D01*
X132106056Y-49476113D01*
X132727947Y-49476113D01*
X132727949Y-49476113D01*
X132804376Y-49455634D01*
X132872898Y-49416073D01*
X132928847Y-49360124D01*
X135352152Y-46936819D01*
X135413475Y-46903334D01*
X135439833Y-46900500D01*
X146750151Y-46900500D01*
X146817190Y-46920185D01*
X146862945Y-46972989D01*
X146872889Y-47042147D01*
X146843864Y-47105703D01*
X146828816Y-47120353D01*
X146737716Y-47195116D01*
X146617438Y-47341674D01*
X146617434Y-47341681D01*
X146528066Y-47508877D01*
X146528065Y-47508880D01*
X146473026Y-47690318D01*
X146454443Y-47879000D01*
X146473026Y-48067681D01*
X146473027Y-48067683D01*
X146528063Y-48249115D01*
X146528064Y-48249118D01*
X146528065Y-48249119D01*
X146528066Y-48249122D01*
X146617434Y-48416318D01*
X146617438Y-48416325D01*
X146737716Y-48562883D01*
X146884274Y-48683161D01*
X146884281Y-48683165D01*
X147051477Y-48772533D01*
X147051478Y-48772533D01*
X147051485Y-48772537D01*
X147232917Y-48827573D01*
X147232916Y-48827573D01*
X147249833Y-48829239D01*
X147421600Y-48846157D01*
X147610283Y-48827573D01*
X147791715Y-48772537D01*
X147958924Y-48683162D01*
X148105483Y-48562883D01*
X148225762Y-48416324D01*
X148315137Y-48249115D01*
X148370173Y-48067683D01*
X148388757Y-47879000D01*
X148370173Y-47690317D01*
X148315137Y-47508885D01*
X148225762Y-47341676D01*
X148225761Y-47341674D01*
X148105483Y-47195116D01*
X148014384Y-47120353D01*
X147975050Y-47062607D01*
X147973179Y-46992763D01*
X148009367Y-46932994D01*
X148072123Y-46902279D01*
X148093049Y-46900500D01*
X150539560Y-46900500D01*
X150539562Y-46900500D01*
X150615989Y-46880021D01*
X150684511Y-46840460D01*
X150740460Y-46784511D01*
X153327152Y-44197819D01*
X153388475Y-44164334D01*
X153414833Y-44161500D01*
X170011648Y-44161500D01*
X170078687Y-44181185D01*
X170124442Y-44233989D01*
X170134386Y-44303147D01*
X170105361Y-44366703D01*
X170047644Y-44404160D01*
X169911485Y-44445463D01*
X169911482Y-44445464D01*
X169911480Y-44445465D01*
X169911477Y-44445466D01*
X169744281Y-44534834D01*
X169744274Y-44534838D01*
X169597716Y-44655116D01*
X169477438Y-44801674D01*
X169477434Y-44801681D01*
X169388066Y-44968877D01*
X169388065Y-44968880D01*
X169333026Y-45150318D01*
X169314443Y-45339000D01*
X169333026Y-45527681D01*
X169333027Y-45527683D01*
X169388063Y-45709115D01*
X169388064Y-45709118D01*
X169388065Y-45709119D01*
X169388066Y-45709122D01*
X169477434Y-45876318D01*
X169477438Y-45876325D01*
X169597716Y-46022883D01*
X169744274Y-46143161D01*
X169744281Y-46143165D01*
X169911477Y-46232533D01*
X169911478Y-46232533D01*
X169911485Y-46232537D01*
X170092917Y-46287573D01*
X170092916Y-46287573D01*
X170109833Y-46289239D01*
X170281600Y-46306157D01*
X170470283Y-46287573D01*
X170651715Y-46232537D01*
X170818924Y-46143162D01*
X170965483Y-46022883D01*
X171085762Y-45876324D01*
X171175137Y-45709115D01*
X171230173Y-45527683D01*
X171248757Y-45339000D01*
X171230173Y-45150317D01*
X171175137Y-44968885D01*
X171175133Y-44968877D01*
X171085765Y-44801681D01*
X171085761Y-44801674D01*
X170965483Y-44655116D01*
X170818925Y-44534838D01*
X170818918Y-44534834D01*
X170651722Y-44445466D01*
X170651719Y-44445465D01*
X170651718Y-44445464D01*
X170651715Y-44445463D01*
X170515555Y-44404160D01*
X170457118Y-44365863D01*
X170428662Y-44302051D01*
X170439222Y-44232984D01*
X170485446Y-44180591D01*
X170551552Y-44161500D01*
X171535729Y-44161500D01*
X171535731Y-44161500D01*
X171612158Y-44141021D01*
X171680680Y-44101460D01*
X171736629Y-44045511D01*
X173869708Y-41912432D01*
X173931031Y-41878947D01*
X173957389Y-41876113D01*
X174901306Y-41876113D01*
X174901307Y-41876112D01*
X174916124Y-41873165D01*
X174959785Y-41864481D01*
X174959785Y-41864480D01*
X174959787Y-41864480D01*
X175026108Y-41820165D01*
X175070423Y-41753844D01*
X175070423Y-41753842D01*
X175070424Y-41753842D01*
X175082055Y-41695365D01*
X175082056Y-41695363D01*
X175082056Y-40755862D01*
X175082055Y-40755860D01*
X175070424Y-40697383D01*
X175070423Y-40697382D01*
X175026108Y-40631060D01*
X174959786Y-40586745D01*
X174959785Y-40586744D01*
X174901308Y-40575113D01*
X174901304Y-40575113D01*
X173361808Y-40575113D01*
X173361803Y-40575113D01*
X173303326Y-40586744D01*
X173303325Y-40586745D01*
X173237003Y-40631060D01*
X173192688Y-40697382D01*
X173192687Y-40697383D01*
X173181056Y-40755860D01*
X173181056Y-41699779D01*
X173161371Y-41766818D01*
X173144737Y-41787460D01*
X171408017Y-43524181D01*
X171346694Y-43557666D01*
X171320336Y-43560500D01*
X171163962Y-43560500D01*
X171096923Y-43540815D01*
X171051168Y-43488011D01*
X171041224Y-43418853D01*
X171068108Y-43357836D01*
X171078864Y-43344729D01*
X171085762Y-43336324D01*
X171175137Y-43169115D01*
X171230173Y-42987683D01*
X171248757Y-42799000D01*
X171230173Y-42610317D01*
X171175137Y-42428885D01*
X171085762Y-42261676D01*
X171085761Y-42261674D01*
X170965483Y-42115116D01*
X170818925Y-41994838D01*
X170818918Y-41994834D01*
X170651722Y-41905466D01*
X170651719Y-41905465D01*
X170651718Y-41905464D01*
X170651715Y-41905463D01*
X170470283Y-41850427D01*
X170470281Y-41850426D01*
X170470283Y-41850426D01*
X170281600Y-41831843D01*
X170092918Y-41850426D01*
X170008240Y-41876113D01*
X169911485Y-41905463D01*
X169911482Y-41905464D01*
X169911480Y-41905465D01*
X169911477Y-41905466D01*
X169744281Y-41994834D01*
X169744274Y-41994838D01*
X169597716Y-42115116D01*
X169477438Y-42261674D01*
X169477434Y-42261681D01*
X169388066Y-42428877D01*
X169388065Y-42428880D01*
X169333026Y-42610318D01*
X169314443Y-42799000D01*
X169333026Y-42987681D01*
X169333027Y-42987683D01*
X169388063Y-43169115D01*
X169388064Y-43169118D01*
X169388065Y-43169119D01*
X169388066Y-43169122D01*
X169477434Y-43336318D01*
X169477438Y-43336324D01*
X169495092Y-43357836D01*
X169522404Y-43422146D01*
X169510613Y-43491013D01*
X169463460Y-43542573D01*
X169399238Y-43560500D01*
X153199438Y-43560500D01*
X153168867Y-43568691D01*
X153123008Y-43580979D01*
X153123007Y-43580980D01*
X153084590Y-43603161D01*
X153054492Y-43620537D01*
X153054487Y-43620541D01*
X150411848Y-46263181D01*
X150350525Y-46296666D01*
X150324167Y-46299500D01*
X148114982Y-46299500D01*
X148047943Y-46279815D01*
X148002188Y-46227011D01*
X147992244Y-46157853D01*
X148021269Y-46094297D01*
X148036317Y-46079647D01*
X148105483Y-46022883D01*
X148225761Y-45876325D01*
X148225765Y-45876318D01*
X148315133Y-45709122D01*
X148315137Y-45709115D01*
X148370173Y-45527683D01*
X148388757Y-45339000D01*
X148370173Y-45150317D01*
X148315137Y-44968885D01*
X148315133Y-44968877D01*
X148225765Y-44801681D01*
X148225761Y-44801674D01*
X148105483Y-44655116D01*
X147958925Y-44534838D01*
X147958918Y-44534834D01*
X147791722Y-44445466D01*
X147791719Y-44445465D01*
X147791718Y-44445464D01*
X147791715Y-44445463D01*
X147610283Y-44390427D01*
X147610281Y-44390426D01*
X147610283Y-44390426D01*
X147421600Y-44371843D01*
X147232918Y-44390426D01*
X147125794Y-44422921D01*
X147051485Y-44445463D01*
X147051482Y-44445464D01*
X147051480Y-44445465D01*
X147051477Y-44445466D01*
X146884281Y-44534834D01*
X146884274Y-44534838D01*
X146737716Y-44655116D01*
X146617438Y-44801674D01*
X146617434Y-44801681D01*
X146528066Y-44968877D01*
X146528065Y-44968880D01*
X146473026Y-45150318D01*
X146454443Y-45339000D01*
X146473026Y-45527681D01*
X146473027Y-45527683D01*
X146528063Y-45709115D01*
X146528064Y-45709118D01*
X146528065Y-45709119D01*
X146528066Y-45709122D01*
X146617434Y-45876318D01*
X146617438Y-45876325D01*
X146737716Y-46022883D01*
X146806883Y-46079647D01*
X146846217Y-46137393D01*
X146848088Y-46207237D01*
X146811900Y-46267006D01*
X146749144Y-46297721D01*
X146728218Y-46299500D01*
X135563524Y-46299500D01*
X135501525Y-46282888D01*
X135447988Y-46251979D01*
X135371562Y-46231500D01*
X135292438Y-46231500D01*
X135216012Y-46251979D01*
X135216011Y-46251979D01*
X135147489Y-46291539D01*
X135147487Y-46291541D01*
X132600235Y-48838794D01*
X132538912Y-48872279D01*
X132512554Y-48875113D01*
X107741994Y-48875113D01*
X107711423Y-48883304D01*
X107665564Y-48895592D01*
X107665563Y-48895593D01*
X107627004Y-48917856D01*
X107597048Y-48935150D01*
X107597043Y-48935154D01*
X107293404Y-49238794D01*
X107232081Y-49272279D01*
X107205723Y-49275113D01*
X106261803Y-49275113D01*
X106203326Y-49286744D01*
X106203325Y-49286745D01*
X106137003Y-49331060D01*
X106092688Y-49397382D01*
X106092687Y-49397383D01*
X106081056Y-49455860D01*
X106081056Y-50395365D01*
X106092687Y-50453842D01*
X106092688Y-50453843D01*
X106137003Y-50520165D01*
X106181118Y-50549641D01*
X106203325Y-50564480D01*
X106203327Y-50564481D01*
X106206365Y-50565740D01*
X106211969Y-50570256D01*
X106213479Y-50571265D01*
X106213388Y-50571400D01*
X106260768Y-50609581D01*
X106282832Y-50675876D01*
X106265552Y-50743575D01*
X106214414Y-50791185D01*
X106158911Y-50804300D01*
X104212807Y-50804300D01*
X104136379Y-50824778D01*
X104067858Y-50864340D01*
X104067855Y-50864342D01*
X102393404Y-52538794D01*
X102332081Y-52572279D01*
X102305723Y-52575113D01*
X101361808Y-52575113D01*
X101323890Y-52582655D01*
X101254298Y-52576426D01*
X101199122Y-52533563D01*
X101175878Y-52467673D01*
X101175700Y-52461037D01*
X101175700Y-50690188D01*
X101195385Y-50623149D01*
X101248189Y-50577394D01*
X101317347Y-50567450D01*
X101323884Y-50568569D01*
X101344321Y-50572634D01*
X101361807Y-50576113D01*
X101361808Y-50576113D01*
X102901306Y-50576113D01*
X102901307Y-50576112D01*
X102925677Y-50571265D01*
X102959785Y-50564481D01*
X102959785Y-50564480D01*
X102959787Y-50564480D01*
X103026108Y-50520165D01*
X103044922Y-50492009D01*
X103098535Y-50447204D01*
X103148024Y-50436900D01*
X103170562Y-50436900D01*
X103170562Y-50436899D01*
X103308653Y-50396353D01*
X103429728Y-50318543D01*
X103523977Y-50209773D01*
X103583765Y-50078857D01*
X103604247Y-49936400D01*
X103583765Y-49793943D01*
X103523977Y-49663027D01*
X103429728Y-49554257D01*
X103308653Y-49476447D01*
X103308651Y-49476446D01*
X103308649Y-49476445D01*
X103308650Y-49476445D01*
X103170563Y-49435900D01*
X103170561Y-49435900D01*
X103162439Y-49435900D01*
X103095400Y-49416215D01*
X103059337Y-49380791D01*
X103026108Y-49331060D01*
X102959786Y-49286745D01*
X102959785Y-49286744D01*
X102901308Y-49275113D01*
X102901304Y-49275113D01*
X101361808Y-49275113D01*
X101323890Y-49282655D01*
X101254298Y-49276426D01*
X101199122Y-49233563D01*
X101175878Y-49167673D01*
X101175700Y-49161037D01*
X101175700Y-44580006D01*
X123134460Y-44580006D01*
X123154582Y-44822858D01*
X123154584Y-44822866D01*
X123214408Y-45059106D01*
X123312301Y-45282280D01*
X123445590Y-45486292D01*
X123445592Y-45486295D01*
X123610644Y-45665590D01*
X123610647Y-45665592D01*
X123610650Y-45665595D01*
X123802952Y-45815270D01*
X123802956Y-45815273D01*
X123802958Y-45815274D01*
X123802961Y-45815276D01*
X123915758Y-45876318D01*
X124017282Y-45931260D01*
X124247776Y-46010389D01*
X124488151Y-46050500D01*
X124731849Y-46050500D01*
X124972224Y-46010389D01*
X125202718Y-45931260D01*
X125417044Y-45815273D01*
X125609356Y-45665590D01*
X125774408Y-45486295D01*
X125907699Y-45282279D01*
X126005591Y-45059107D01*
X126065416Y-44822866D01*
X126065417Y-44822858D01*
X126085540Y-44580006D01*
X140914460Y-44580006D01*
X140934582Y-44822858D01*
X140934584Y-44822866D01*
X140994408Y-45059106D01*
X141092301Y-45282280D01*
X141225590Y-45486292D01*
X141225592Y-45486295D01*
X141390644Y-45665590D01*
X141390647Y-45665592D01*
X141390650Y-45665595D01*
X141582952Y-45815270D01*
X141582956Y-45815273D01*
X141582958Y-45815274D01*
X141582961Y-45815276D01*
X141695758Y-45876318D01*
X141797282Y-45931260D01*
X142027776Y-46010389D01*
X142268151Y-46050500D01*
X142511849Y-46050500D01*
X142752224Y-46010389D01*
X142982718Y-45931260D01*
X143197044Y-45815273D01*
X143389356Y-45665590D01*
X143554408Y-45486295D01*
X143687699Y-45282279D01*
X143785591Y-45059107D01*
X143845416Y-44822866D01*
X143845417Y-44822858D01*
X143865540Y-44580006D01*
X143865540Y-44579993D01*
X143845417Y-44337141D01*
X143845416Y-44337138D01*
X143845416Y-44337134D01*
X143785591Y-44100893D01*
X143687699Y-43877721D01*
X143554408Y-43673705D01*
X143389356Y-43494410D01*
X143389351Y-43494406D01*
X143389349Y-43494404D01*
X143197047Y-43344729D01*
X143197038Y-43344723D01*
X142982724Y-43228743D01*
X142982721Y-43228742D01*
X142982718Y-43228740D01*
X142982712Y-43228738D01*
X142982710Y-43228737D01*
X142752226Y-43149611D01*
X142511849Y-43109500D01*
X142268151Y-43109500D01*
X142027773Y-43149611D01*
X141797289Y-43228737D01*
X141797275Y-43228743D01*
X141582961Y-43344723D01*
X141582952Y-43344729D01*
X141390650Y-43494404D01*
X141390647Y-43494407D01*
X141225593Y-43673703D01*
X141225590Y-43673707D01*
X141092301Y-43877719D01*
X140994408Y-44100893D01*
X140934584Y-44337133D01*
X140934582Y-44337141D01*
X140914460Y-44579993D01*
X140914460Y-44580006D01*
X126085540Y-44580006D01*
X126085540Y-44579993D01*
X126065417Y-44337141D01*
X126065416Y-44337138D01*
X126065416Y-44337134D01*
X126005591Y-44100893D01*
X125907699Y-43877721D01*
X125774408Y-43673705D01*
X125609356Y-43494410D01*
X125609351Y-43494406D01*
X125609349Y-43494404D01*
X125417047Y-43344729D01*
X125417038Y-43344723D01*
X125202724Y-43228743D01*
X125202721Y-43228742D01*
X125202718Y-43228740D01*
X125202712Y-43228738D01*
X125202710Y-43228737D01*
X124972226Y-43149611D01*
X124731849Y-43109500D01*
X124488151Y-43109500D01*
X124247773Y-43149611D01*
X124017289Y-43228737D01*
X124017275Y-43228743D01*
X123802961Y-43344723D01*
X123802952Y-43344729D01*
X123610650Y-43494404D01*
X123610647Y-43494407D01*
X123445593Y-43673703D01*
X123445590Y-43673707D01*
X123312301Y-43877719D01*
X123214408Y-44100893D01*
X123154584Y-44337133D01*
X123154582Y-44337141D01*
X123134460Y-44579993D01*
X123134460Y-44580006D01*
X101175700Y-44580006D01*
X101175700Y-42799000D01*
X146454443Y-42799000D01*
X146473026Y-42987681D01*
X146473027Y-42987683D01*
X146528063Y-43169115D01*
X146528064Y-43169118D01*
X146528065Y-43169119D01*
X146528066Y-43169122D01*
X146617434Y-43336318D01*
X146617438Y-43336325D01*
X146737716Y-43482883D01*
X146884274Y-43603161D01*
X146884281Y-43603165D01*
X147051477Y-43692533D01*
X147051478Y-43692533D01*
X147051485Y-43692537D01*
X147232917Y-43747573D01*
X147232916Y-43747573D01*
X147249833Y-43749239D01*
X147421600Y-43766157D01*
X147610283Y-43747573D01*
X147791715Y-43692537D01*
X147958924Y-43603162D01*
X148105483Y-43482883D01*
X148225762Y-43336324D01*
X148315137Y-43169115D01*
X148370173Y-42987683D01*
X148388757Y-42799000D01*
X148370173Y-42610317D01*
X148315137Y-42428885D01*
X148225762Y-42261676D01*
X148225761Y-42261674D01*
X148105483Y-42115116D01*
X147958925Y-41994838D01*
X147958918Y-41994834D01*
X147791722Y-41905466D01*
X147791719Y-41905465D01*
X147791718Y-41905464D01*
X147791715Y-41905463D01*
X147610283Y-41850427D01*
X147610281Y-41850426D01*
X147610283Y-41850426D01*
X147421600Y-41831843D01*
X147232918Y-41850426D01*
X147148240Y-41876113D01*
X147051485Y-41905463D01*
X147051482Y-41905464D01*
X147051480Y-41905465D01*
X147051477Y-41905466D01*
X146884281Y-41994834D01*
X146884274Y-41994838D01*
X146737716Y-42115116D01*
X146617438Y-42261674D01*
X146617434Y-42261681D01*
X146528066Y-42428877D01*
X146528065Y-42428880D01*
X146473026Y-42610318D01*
X146454443Y-42799000D01*
X101175700Y-42799000D01*
X101175700Y-41990188D01*
X101195385Y-41923149D01*
X101248189Y-41877394D01*
X101317347Y-41867450D01*
X101323884Y-41868569D01*
X101344321Y-41872634D01*
X101361807Y-41876113D01*
X101361808Y-41876113D01*
X102901306Y-41876113D01*
X102901307Y-41876112D01*
X102916124Y-41873165D01*
X102959785Y-41864481D01*
X102959785Y-41864480D01*
X102959787Y-41864480D01*
X103026108Y-41820165D01*
X103070423Y-41753844D01*
X103070423Y-41753842D01*
X103070424Y-41753842D01*
X103082055Y-41695365D01*
X103082056Y-41695363D01*
X103082056Y-40755862D01*
X103082055Y-40755860D01*
X103076247Y-40726658D01*
X103082474Y-40657067D01*
X103110181Y-40614789D01*
X104272152Y-39452819D01*
X104333475Y-39419334D01*
X104359833Y-39416500D01*
X117823560Y-39416500D01*
X117823562Y-39416500D01*
X117899989Y-39396021D01*
X117968511Y-39356460D01*
X118024460Y-39300511D01*
X118712539Y-38612432D01*
X118773862Y-38578947D01*
X118800220Y-38576113D01*
X119801306Y-38576113D01*
X119801307Y-38576112D01*
X119819352Y-38572523D01*
X119859785Y-38564481D01*
X119859785Y-38564480D01*
X119859787Y-38564480D01*
X119926108Y-38520165D01*
X119970423Y-38453844D01*
X119970423Y-38453842D01*
X119970424Y-38453842D01*
X119980817Y-38401590D01*
X119982055Y-38395365D01*
X125181056Y-38395365D01*
X125192687Y-38453842D01*
X125192688Y-38453843D01*
X125237003Y-38520165D01*
X125303325Y-38564480D01*
X125303326Y-38564481D01*
X125361803Y-38576112D01*
X125361806Y-38576113D01*
X125361808Y-38576113D01*
X126901306Y-38576113D01*
X126901307Y-38576112D01*
X126919352Y-38572523D01*
X126959785Y-38564481D01*
X126959785Y-38564480D01*
X126959787Y-38564480D01*
X127026108Y-38520165D01*
X127037438Y-38503209D01*
X127091050Y-38458404D01*
X127140540Y-38448100D01*
X127173562Y-38448100D01*
X127173562Y-38448099D01*
X127280721Y-38416635D01*
X127311650Y-38407554D01*
X127311650Y-38407553D01*
X127311653Y-38407553D01*
X127432728Y-38329743D01*
X127526977Y-38220973D01*
X127586765Y-38090057D01*
X127607247Y-37947600D01*
X127586765Y-37805143D01*
X127526977Y-37674227D01*
X127432728Y-37565457D01*
X127311653Y-37487647D01*
X127311651Y-37487646D01*
X127311649Y-37487645D01*
X127311650Y-37487645D01*
X127173563Y-37447100D01*
X127173561Y-37447100D01*
X127169923Y-37447100D01*
X127166432Y-37446074D01*
X127164784Y-37445838D01*
X127164818Y-37445601D01*
X127102884Y-37427415D01*
X127066821Y-37391991D01*
X127026108Y-37331060D01*
X126959786Y-37286745D01*
X126959785Y-37286744D01*
X126901308Y-37275113D01*
X126901304Y-37275113D01*
X125361808Y-37275113D01*
X125361803Y-37275113D01*
X125303326Y-37286744D01*
X125303325Y-37286745D01*
X125237003Y-37331060D01*
X125192688Y-37397382D01*
X125192687Y-37397383D01*
X125181056Y-37455860D01*
X125181056Y-38395365D01*
X119982055Y-38395365D01*
X119982056Y-38395361D01*
X119982056Y-37455865D01*
X119982056Y-37455862D01*
X119982055Y-37455860D01*
X119970424Y-37397383D01*
X119970423Y-37397382D01*
X119926108Y-37331060D01*
X119859786Y-37286745D01*
X119859785Y-37286744D01*
X119801308Y-37275113D01*
X119801304Y-37275113D01*
X118261808Y-37275113D01*
X118261803Y-37275113D01*
X118203326Y-37286744D01*
X118203325Y-37286745D01*
X118137003Y-37331060D01*
X118092688Y-37397382D01*
X118092687Y-37397383D01*
X118081056Y-37455860D01*
X118081056Y-38342611D01*
X118061371Y-38409650D01*
X118044737Y-38430292D01*
X117695848Y-38779181D01*
X117634525Y-38812666D01*
X117608167Y-38815500D01*
X114956819Y-38815500D01*
X114889780Y-38795815D01*
X114844025Y-38743011D01*
X114834081Y-38673853D01*
X114863106Y-38610297D01*
X114921884Y-38572523D01*
X114932628Y-38569883D01*
X114959785Y-38564481D01*
X114959785Y-38564480D01*
X114959787Y-38564480D01*
X115026108Y-38520165D01*
X115037438Y-38503209D01*
X115091050Y-38458404D01*
X115140540Y-38448100D01*
X115184762Y-38448100D01*
X115184762Y-38448099D01*
X115291921Y-38416635D01*
X115322850Y-38407554D01*
X115322850Y-38407553D01*
X115322853Y-38407553D01*
X115443928Y-38329743D01*
X115538177Y-38220973D01*
X115597965Y-38090057D01*
X115618447Y-37947600D01*
X115597965Y-37805143D01*
X115538177Y-37674227D01*
X115443928Y-37565457D01*
X115322853Y-37487647D01*
X115322851Y-37487646D01*
X115322849Y-37487645D01*
X115322850Y-37487645D01*
X115184763Y-37447100D01*
X115184761Y-37447100D01*
X115169923Y-37447100D01*
X115102884Y-37427415D01*
X115066821Y-37391991D01*
X115026108Y-37331060D01*
X114959786Y-37286745D01*
X114959785Y-37286744D01*
X114901308Y-37275113D01*
X114901304Y-37275113D01*
X113361808Y-37275113D01*
X113361803Y-37275113D01*
X113303326Y-37286744D01*
X113303325Y-37286745D01*
X113237003Y-37331060D01*
X113192688Y-37397382D01*
X113192687Y-37397383D01*
X113181056Y-37455860D01*
X113181056Y-38395365D01*
X113192687Y-38453842D01*
X113192688Y-38453843D01*
X113237003Y-38520165D01*
X113303325Y-38564480D01*
X113303326Y-38564481D01*
X113330484Y-38569883D01*
X113392395Y-38602268D01*
X113426969Y-38662983D01*
X113423230Y-38732753D01*
X113382363Y-38789425D01*
X113317345Y-38815006D01*
X113306293Y-38815500D01*
X107856819Y-38815500D01*
X107789780Y-38795815D01*
X107744025Y-38743011D01*
X107734081Y-38673853D01*
X107763106Y-38610297D01*
X107821884Y-38572523D01*
X107832628Y-38569883D01*
X107859785Y-38564481D01*
X107859785Y-38564480D01*
X107859787Y-38564480D01*
X107926108Y-38520165D01*
X107970423Y-38453844D01*
X107970423Y-38453842D01*
X107970424Y-38453842D01*
X107980817Y-38401590D01*
X107982056Y-38395361D01*
X107982056Y-37455865D01*
X107982056Y-37451445D01*
X108001741Y-37384406D01*
X108018375Y-37363764D01*
X110962133Y-34420006D01*
X123134460Y-34420006D01*
X123154582Y-34662858D01*
X123154584Y-34662866D01*
X123214408Y-34899106D01*
X123312301Y-35122280D01*
X123445590Y-35326292D01*
X123445592Y-35326295D01*
X123610644Y-35505590D01*
X123610647Y-35505592D01*
X123610650Y-35505595D01*
X123802952Y-35655270D01*
X123802956Y-35655273D01*
X123802958Y-35655274D01*
X123802961Y-35655276D01*
X123903617Y-35709748D01*
X124017282Y-35771260D01*
X124247776Y-35850389D01*
X124488151Y-35890500D01*
X124731849Y-35890500D01*
X124972224Y-35850389D01*
X125202718Y-35771260D01*
X125316375Y-35709752D01*
X140919500Y-35709752D01*
X140931131Y-35768229D01*
X140931132Y-35768230D01*
X140975447Y-35834552D01*
X141041769Y-35878867D01*
X141041770Y-35878868D01*
X141100247Y-35890499D01*
X141100250Y-35890500D01*
X141100252Y-35890500D01*
X143679750Y-35890500D01*
X143679751Y-35890499D01*
X143694568Y-35887552D01*
X143738229Y-35878868D01*
X143738229Y-35878867D01*
X143738231Y-35878867D01*
X143804552Y-35834552D01*
X143848867Y-35768231D01*
X143848867Y-35768229D01*
X143848868Y-35768229D01*
X143860499Y-35709752D01*
X143860500Y-35709750D01*
X143860500Y-35179000D01*
X146454443Y-35179000D01*
X146473026Y-35367681D01*
X146473027Y-35367683D01*
X146528063Y-35549115D01*
X146528064Y-35549118D01*
X146528065Y-35549119D01*
X146528066Y-35549122D01*
X146617434Y-35716318D01*
X146617438Y-35716325D01*
X146737716Y-35862883D01*
X146884274Y-35983161D01*
X146884281Y-35983165D01*
X147051477Y-36072533D01*
X147051478Y-36072533D01*
X147051485Y-36072537D01*
X147232917Y-36127573D01*
X147232916Y-36127573D01*
X147249833Y-36129239D01*
X147421600Y-36146157D01*
X147610283Y-36127573D01*
X147791715Y-36072537D01*
X147958924Y-35983162D01*
X148105483Y-35862883D01*
X148225762Y-35716324D01*
X148315137Y-35549115D01*
X148370173Y-35367683D01*
X148388757Y-35179000D01*
X169314443Y-35179000D01*
X169333026Y-35367681D01*
X169333027Y-35367683D01*
X169388063Y-35549115D01*
X169388064Y-35549118D01*
X169388065Y-35549119D01*
X169388066Y-35549122D01*
X169477434Y-35716318D01*
X169477438Y-35716325D01*
X169597716Y-35862883D01*
X169744274Y-35983161D01*
X169744281Y-35983165D01*
X169911477Y-36072533D01*
X169911478Y-36072533D01*
X169911485Y-36072537D01*
X170092917Y-36127573D01*
X170092916Y-36127573D01*
X170109833Y-36129239D01*
X170281600Y-36146157D01*
X170470283Y-36127573D01*
X170651715Y-36072537D01*
X170818924Y-35983162D01*
X170965483Y-35862883D01*
X171085762Y-35716324D01*
X171175137Y-35549115D01*
X171230173Y-35367683D01*
X171248757Y-35179000D01*
X171230173Y-34990317D01*
X171175137Y-34808885D01*
X171175133Y-34808877D01*
X171085765Y-34641681D01*
X171085761Y-34641674D01*
X170965483Y-34495116D01*
X170818925Y-34374838D01*
X170818918Y-34374834D01*
X170651722Y-34285466D01*
X170651719Y-34285465D01*
X170651718Y-34285464D01*
X170651715Y-34285463D01*
X170470283Y-34230427D01*
X170470281Y-34230426D01*
X170470283Y-34230426D01*
X170281600Y-34211843D01*
X170092918Y-34230426D01*
X169985794Y-34262921D01*
X169911485Y-34285463D01*
X169911482Y-34285464D01*
X169911480Y-34285465D01*
X169911477Y-34285466D01*
X169744281Y-34374834D01*
X169744274Y-34374838D01*
X169597716Y-34495116D01*
X169477438Y-34641674D01*
X169477434Y-34641681D01*
X169388066Y-34808877D01*
X169388065Y-34808880D01*
X169333026Y-34990318D01*
X169314443Y-35179000D01*
X148388757Y-35179000D01*
X148370173Y-34990317D01*
X148315137Y-34808885D01*
X148315133Y-34808877D01*
X148225765Y-34641681D01*
X148225761Y-34641674D01*
X148105483Y-34495116D01*
X147958925Y-34374838D01*
X147958918Y-34374834D01*
X147791722Y-34285466D01*
X147791719Y-34285465D01*
X147791718Y-34285464D01*
X147791715Y-34285463D01*
X147610283Y-34230427D01*
X147610281Y-34230426D01*
X147610283Y-34230426D01*
X147421600Y-34211843D01*
X147232918Y-34230426D01*
X147125794Y-34262921D01*
X147051485Y-34285463D01*
X147051482Y-34285464D01*
X147051480Y-34285465D01*
X147051477Y-34285466D01*
X146884281Y-34374834D01*
X146884274Y-34374838D01*
X146737716Y-34495116D01*
X146617438Y-34641674D01*
X146617434Y-34641681D01*
X146528066Y-34808877D01*
X146528065Y-34808880D01*
X146473026Y-34990318D01*
X146454443Y-35179000D01*
X143860500Y-35179000D01*
X143860500Y-33130249D01*
X143860499Y-33130247D01*
X143848868Y-33071770D01*
X143848867Y-33071769D01*
X143804552Y-33005447D01*
X143738230Y-32961132D01*
X143738229Y-32961131D01*
X143679752Y-32949500D01*
X143679748Y-32949500D01*
X141100252Y-32949500D01*
X141100247Y-32949500D01*
X141041770Y-32961131D01*
X141041769Y-32961132D01*
X140975447Y-33005447D01*
X140931132Y-33071769D01*
X140931131Y-33071770D01*
X140919500Y-33130247D01*
X140919500Y-35709752D01*
X125316375Y-35709752D01*
X125417044Y-35655273D01*
X125609356Y-35505590D01*
X125774408Y-35326295D01*
X125907699Y-35122279D01*
X126005591Y-34899107D01*
X126065416Y-34662866D01*
X126065417Y-34662858D01*
X126085540Y-34420006D01*
X126085540Y-34419993D01*
X126065417Y-34177141D01*
X126065416Y-34177138D01*
X126065416Y-34177134D01*
X126005591Y-33940893D01*
X125907699Y-33717721D01*
X125774408Y-33513705D01*
X125609356Y-33334410D01*
X125609351Y-33334406D01*
X125609349Y-33334404D01*
X125417047Y-33184729D01*
X125417038Y-33184723D01*
X125202724Y-33068743D01*
X125202721Y-33068742D01*
X125202718Y-33068740D01*
X125202712Y-33068738D01*
X125202710Y-33068737D01*
X124972226Y-32989611D01*
X124731849Y-32949500D01*
X124488151Y-32949500D01*
X124247773Y-32989611D01*
X124017289Y-33068737D01*
X124017275Y-33068743D01*
X123802961Y-33184723D01*
X123802952Y-33184729D01*
X123610650Y-33334404D01*
X123610647Y-33334407D01*
X123445593Y-33513703D01*
X123445590Y-33513707D01*
X123312301Y-33717719D01*
X123214408Y-33940893D01*
X123154584Y-34177133D01*
X123154582Y-34177141D01*
X123134460Y-34419993D01*
X123134460Y-34420006D01*
X110962133Y-34420006D01*
X112743140Y-32639000D01*
X146454443Y-32639000D01*
X146473026Y-32827681D01*
X146473027Y-32827683D01*
X146528063Y-33009115D01*
X146528064Y-33009118D01*
X146528065Y-33009119D01*
X146528066Y-33009122D01*
X146617434Y-33176318D01*
X146617438Y-33176325D01*
X146737716Y-33322883D01*
X146884274Y-33443161D01*
X146884281Y-33443165D01*
X147051477Y-33532533D01*
X147051478Y-33532533D01*
X147051485Y-33532537D01*
X147232917Y-33587573D01*
X147232916Y-33587573D01*
X147249833Y-33589239D01*
X147421600Y-33606157D01*
X147610283Y-33587573D01*
X147791715Y-33532537D01*
X147958924Y-33443162D01*
X147986230Y-33420752D01*
X169319100Y-33420752D01*
X169330731Y-33479229D01*
X169330732Y-33479230D01*
X169375047Y-33545552D01*
X169441369Y-33589867D01*
X169441370Y-33589868D01*
X169499847Y-33601499D01*
X169499850Y-33601500D01*
X169499852Y-33601500D01*
X171063350Y-33601500D01*
X171063351Y-33601499D01*
X171078168Y-33598552D01*
X171121829Y-33589868D01*
X171121829Y-33589867D01*
X171121831Y-33589867D01*
X171188152Y-33545552D01*
X171232467Y-33479231D01*
X171232467Y-33479229D01*
X171232468Y-33479229D01*
X171244099Y-33420752D01*
X171244100Y-33420750D01*
X171244100Y-31857249D01*
X171244099Y-31857247D01*
X171232468Y-31798770D01*
X171232467Y-31798769D01*
X171188152Y-31732447D01*
X171121830Y-31688132D01*
X171121829Y-31688131D01*
X171063352Y-31676500D01*
X171063348Y-31676500D01*
X169499852Y-31676500D01*
X169499847Y-31676500D01*
X169441370Y-31688131D01*
X169441369Y-31688132D01*
X169375047Y-31732447D01*
X169330732Y-31798769D01*
X169330731Y-31798770D01*
X169319100Y-31857247D01*
X169319100Y-33420752D01*
X147986230Y-33420752D01*
X148105483Y-33322883D01*
X148225762Y-33176324D01*
X148315137Y-33009115D01*
X148370173Y-32827683D01*
X148388757Y-32639000D01*
X148370173Y-32450317D01*
X148315137Y-32268885D01*
X148225762Y-32101676D01*
X148225761Y-32101674D01*
X148105483Y-31955116D01*
X147958925Y-31834838D01*
X147958918Y-31834834D01*
X147791722Y-31745466D01*
X147791719Y-31745465D01*
X147791718Y-31745464D01*
X147791715Y-31745463D01*
X147610283Y-31690427D01*
X147610281Y-31690426D01*
X147610283Y-31690426D01*
X147421600Y-31671843D01*
X147232918Y-31690426D01*
X147125794Y-31722921D01*
X147051485Y-31745463D01*
X147051482Y-31745464D01*
X147051480Y-31745465D01*
X147051477Y-31745466D01*
X146884281Y-31834834D01*
X146884274Y-31834838D01*
X146737716Y-31955116D01*
X146617438Y-32101674D01*
X146617434Y-32101681D01*
X146528066Y-32268877D01*
X146528065Y-32268880D01*
X146473026Y-32450318D01*
X146454443Y-32639000D01*
X112743140Y-32639000D01*
X114057321Y-31324819D01*
X114118644Y-31291334D01*
X114145002Y-31288500D01*
X172408729Y-31288500D01*
X172408731Y-31288500D01*
X172485158Y-31268021D01*
X172553680Y-31228460D01*
X172609629Y-31172511D01*
X173869708Y-29912432D01*
X173931031Y-29878947D01*
X173957389Y-29876113D01*
X174901306Y-29876113D01*
X174901307Y-29876112D01*
X174916124Y-29873165D01*
X174959785Y-29864481D01*
X174959785Y-29864480D01*
X174959787Y-29864480D01*
X175026108Y-29820165D01*
X175070423Y-29753844D01*
X175070423Y-29753842D01*
X175070424Y-29753842D01*
X175082055Y-29695365D01*
X175082056Y-29695363D01*
X175082056Y-28755862D01*
X175082055Y-28755860D01*
X175070424Y-28697383D01*
X175070423Y-28697382D01*
X175026108Y-28631060D01*
X174959786Y-28586745D01*
X174959785Y-28586744D01*
X174901308Y-28575113D01*
X174901304Y-28575113D01*
X173361808Y-28575113D01*
X173361803Y-28575113D01*
X173303326Y-28586744D01*
X173303325Y-28586745D01*
X173237003Y-28631060D01*
X173192688Y-28697382D01*
X173192687Y-28697383D01*
X173181056Y-28755860D01*
X173181056Y-29699779D01*
X173161371Y-29766818D01*
X173144737Y-29787460D01*
X172281017Y-30651181D01*
X172219694Y-30684666D01*
X172193336Y-30687500D01*
X113929607Y-30687500D01*
X113891393Y-30697739D01*
X113853178Y-30707979D01*
X113853173Y-30707982D01*
X113784664Y-30747535D01*
X113784656Y-30747541D01*
X107293404Y-37238794D01*
X107232081Y-37272279D01*
X107205723Y-37275113D01*
X106261803Y-37275113D01*
X106203326Y-37286744D01*
X106203325Y-37286745D01*
X106137003Y-37331060D01*
X106092688Y-37397382D01*
X106092687Y-37397383D01*
X106081056Y-37455860D01*
X106081056Y-38395365D01*
X106092687Y-38453842D01*
X106092688Y-38453843D01*
X106137003Y-38520165D01*
X106203325Y-38564480D01*
X106203326Y-38564481D01*
X106230484Y-38569883D01*
X106292395Y-38602268D01*
X106326969Y-38662983D01*
X106323230Y-38732753D01*
X106282363Y-38789425D01*
X106217345Y-38815006D01*
X106206293Y-38815500D01*
X105195562Y-38815500D01*
X104144438Y-38815500D01*
X104068011Y-38835979D01*
X104068009Y-38835980D01*
X104047470Y-38847838D01*
X104047469Y-38847837D01*
X103999495Y-38875535D01*
X103999487Y-38875541D01*
X102336235Y-40538794D01*
X102274912Y-40572279D01*
X102248554Y-40575113D01*
X101361808Y-40575113D01*
X101323890Y-40582655D01*
X101254298Y-40576426D01*
X101199122Y-40533563D01*
X101175878Y-40467673D01*
X101175700Y-40461037D01*
X101175700Y-38690188D01*
X101195385Y-38623149D01*
X101248189Y-38577394D01*
X101317347Y-38567450D01*
X101323884Y-38568569D01*
X101330488Y-38569883D01*
X101361807Y-38576113D01*
X101361808Y-38576113D01*
X102901306Y-38576113D01*
X102901307Y-38576112D01*
X102919352Y-38572523D01*
X102959785Y-38564481D01*
X102959785Y-38564480D01*
X102959787Y-38564480D01*
X103026108Y-38520165D01*
X103054410Y-38477809D01*
X103108022Y-38433004D01*
X103157512Y-38422700D01*
X103221362Y-38422700D01*
X103221362Y-38422699D01*
X103328521Y-38391235D01*
X103359450Y-38382154D01*
X103359450Y-38382153D01*
X103359453Y-38382153D01*
X103480528Y-38304343D01*
X103574777Y-38195573D01*
X103634565Y-38064657D01*
X103655047Y-37922200D01*
X103634565Y-37779743D01*
X103574777Y-37648827D01*
X103480528Y-37540057D01*
X103359453Y-37462247D01*
X103359451Y-37462246D01*
X103359449Y-37462245D01*
X103359450Y-37462245D01*
X103221363Y-37421700D01*
X103221361Y-37421700D01*
X103152951Y-37421700D01*
X103085912Y-37402015D01*
X103049849Y-37366591D01*
X103026108Y-37331060D01*
X102959786Y-37286745D01*
X102959785Y-37286744D01*
X102901308Y-37275113D01*
X102901304Y-37275113D01*
X101361808Y-37275113D01*
X101323890Y-37282655D01*
X101254298Y-37276426D01*
X101199122Y-37233563D01*
X101175878Y-37167673D01*
X101175700Y-37161037D01*
X101175700Y-29990188D01*
X101195385Y-29923149D01*
X101248189Y-29877394D01*
X101317347Y-29867450D01*
X101323884Y-29868569D01*
X101344321Y-29872634D01*
X101361807Y-29876113D01*
X101361808Y-29876113D01*
X102901306Y-29876113D01*
X102901307Y-29876112D01*
X102916124Y-29873165D01*
X102959785Y-29864481D01*
X102959785Y-29864480D01*
X102959787Y-29864480D01*
X103026108Y-29820165D01*
X103070423Y-29753844D01*
X103070423Y-29753842D01*
X103070424Y-29753842D01*
X103082055Y-29695365D01*
X103082056Y-29695363D01*
X103082056Y-28751445D01*
X103101741Y-28684406D01*
X103118375Y-28663764D01*
X104769708Y-27012432D01*
X104831031Y-26978947D01*
X104857389Y-26976113D01*
X108115503Y-26976113D01*
X108115505Y-26976113D01*
X108120689Y-26974723D01*
X108152778Y-26970500D01*
X113004721Y-26970500D01*
X113036809Y-26974723D01*
X113041994Y-26976113D01*
X115656723Y-26976113D01*
X115723762Y-26995798D01*
X115769517Y-27048602D01*
X115779461Y-27117760D01*
X115750436Y-27181316D01*
X115744404Y-27187794D01*
X114393404Y-28538794D01*
X114332081Y-28572279D01*
X114305723Y-28575113D01*
X113361803Y-28575113D01*
X113303326Y-28586744D01*
X113303325Y-28586745D01*
X113237003Y-28631060D01*
X113192688Y-28697382D01*
X113192687Y-28697383D01*
X113181056Y-28755860D01*
X113181056Y-29695365D01*
X113192687Y-29753842D01*
X113192688Y-29753843D01*
X113237003Y-29820165D01*
X113303325Y-29864480D01*
X113303326Y-29864481D01*
X113361803Y-29876112D01*
X113361806Y-29876113D01*
X113361808Y-29876113D01*
X114901306Y-29876113D01*
X114901307Y-29876112D01*
X114916124Y-29873165D01*
X114959785Y-29864481D01*
X114959785Y-29864480D01*
X114959787Y-29864480D01*
X115026108Y-29820165D01*
X115070423Y-29753844D01*
X115070423Y-29753842D01*
X115070424Y-29753842D01*
X115082055Y-29695365D01*
X115082056Y-29695363D01*
X115082056Y-28751445D01*
X115101741Y-28684406D01*
X115118375Y-28663764D01*
X116369708Y-27412432D01*
X116431031Y-27378947D01*
X116457389Y-27376113D01*
X118486802Y-27376113D01*
X118486804Y-27376113D01*
X118563231Y-27355634D01*
X118631753Y-27316073D01*
X118687702Y-27260124D01*
X118935394Y-27012432D01*
X118996717Y-26978947D01*
X119023075Y-26976113D01*
X127656723Y-26976113D01*
X127723762Y-26995798D01*
X127769517Y-27048602D01*
X127779461Y-27117760D01*
X127750436Y-27181316D01*
X127744404Y-27187794D01*
X126393404Y-28538794D01*
X126332081Y-28572279D01*
X126305723Y-28575113D01*
X125361803Y-28575113D01*
X125303326Y-28586744D01*
X125303325Y-28586745D01*
X125237003Y-28631060D01*
X125192688Y-28697382D01*
X125192687Y-28697383D01*
X125181056Y-28755860D01*
X125181056Y-29695365D01*
X125192687Y-29753842D01*
X125192688Y-29753843D01*
X125237003Y-29820165D01*
X125303325Y-29864480D01*
X125303326Y-29864481D01*
X125361803Y-29876112D01*
X125361806Y-29876113D01*
X125361808Y-29876113D01*
X126901306Y-29876113D01*
X126901307Y-29876112D01*
X126916124Y-29873165D01*
X126959785Y-29864481D01*
X126959785Y-29864480D01*
X126959787Y-29864480D01*
X127026108Y-29820165D01*
X127070423Y-29753844D01*
X127070423Y-29753842D01*
X127070424Y-29753842D01*
X127082055Y-29695365D01*
X127082056Y-29695363D01*
X127082056Y-28751445D01*
X127101741Y-28684406D01*
X127118375Y-28663764D01*
X128369708Y-27412432D01*
X128431031Y-27378947D01*
X128457389Y-27376113D01*
X130486802Y-27376113D01*
X130486804Y-27376113D01*
X130563231Y-27355634D01*
X130631753Y-27316073D01*
X130687702Y-27260124D01*
X130935394Y-27012432D01*
X130996717Y-26978947D01*
X131023075Y-26976113D01*
X139656723Y-26976113D01*
X139723762Y-26995798D01*
X139769517Y-27048602D01*
X139779461Y-27117760D01*
X139750436Y-27181316D01*
X139744404Y-27187794D01*
X138393404Y-28538794D01*
X138332081Y-28572279D01*
X138305723Y-28575113D01*
X137361803Y-28575113D01*
X137303326Y-28586744D01*
X137303325Y-28586745D01*
X137237003Y-28631060D01*
X137192688Y-28697382D01*
X137192687Y-28697383D01*
X137181056Y-28755860D01*
X137181056Y-29695365D01*
X137192687Y-29753842D01*
X137192688Y-29753843D01*
X137237003Y-29820165D01*
X137303325Y-29864480D01*
X137303326Y-29864481D01*
X137361803Y-29876112D01*
X137361806Y-29876113D01*
X137361808Y-29876113D01*
X138901306Y-29876113D01*
X138901307Y-29876112D01*
X138916124Y-29873165D01*
X138959785Y-29864481D01*
X138959785Y-29864480D01*
X138959787Y-29864480D01*
X139026108Y-29820165D01*
X139070423Y-29753844D01*
X139070423Y-29753842D01*
X139070424Y-29753842D01*
X139082055Y-29695365D01*
X139082056Y-29695363D01*
X139082056Y-28751445D01*
X139101741Y-28684406D01*
X139118375Y-28663764D01*
X140369708Y-27412432D01*
X140431031Y-27378947D01*
X140457389Y-27376113D01*
X142486802Y-27376113D01*
X142486804Y-27376113D01*
X142563231Y-27355634D01*
X142631753Y-27316073D01*
X142687702Y-27260124D01*
X142935394Y-27012432D01*
X142996717Y-26978947D01*
X143023075Y-26976113D01*
X151656723Y-26976113D01*
X151723762Y-26995798D01*
X151769517Y-27048602D01*
X151779461Y-27117760D01*
X151750436Y-27181316D01*
X151744404Y-27187794D01*
X150393404Y-28538794D01*
X150332081Y-28572279D01*
X150305723Y-28575113D01*
X149361803Y-28575113D01*
X149303326Y-28586744D01*
X149303325Y-28586745D01*
X149237003Y-28631060D01*
X149192688Y-28697382D01*
X149192687Y-28697383D01*
X149181056Y-28755860D01*
X149181056Y-29695365D01*
X149192687Y-29753842D01*
X149192688Y-29753843D01*
X149237003Y-29820165D01*
X149303325Y-29864480D01*
X149303326Y-29864481D01*
X149361803Y-29876112D01*
X149361806Y-29876113D01*
X149361808Y-29876113D01*
X150901306Y-29876113D01*
X150901307Y-29876112D01*
X150916124Y-29873165D01*
X150959785Y-29864481D01*
X150959785Y-29864480D01*
X150959787Y-29864480D01*
X151026108Y-29820165D01*
X151070423Y-29753844D01*
X151070423Y-29753842D01*
X151070424Y-29753842D01*
X151082055Y-29695365D01*
X151082056Y-29695363D01*
X151082056Y-28751445D01*
X151101741Y-28684406D01*
X151118375Y-28663764D01*
X152369708Y-27412432D01*
X152431031Y-27378947D01*
X152457389Y-27376113D01*
X154486802Y-27376113D01*
X154486804Y-27376113D01*
X154563231Y-27355634D01*
X154631753Y-27316073D01*
X154687702Y-27260124D01*
X154935394Y-27012432D01*
X154996717Y-26978947D01*
X155023075Y-26976113D01*
X163656723Y-26976113D01*
X163723762Y-26995798D01*
X163769517Y-27048602D01*
X163779461Y-27117760D01*
X163750436Y-27181316D01*
X163744404Y-27187794D01*
X162393404Y-28538794D01*
X162332081Y-28572279D01*
X162305723Y-28575113D01*
X161361803Y-28575113D01*
X161303326Y-28586744D01*
X161303325Y-28586745D01*
X161237003Y-28631060D01*
X161192688Y-28697382D01*
X161192687Y-28697383D01*
X161181056Y-28755860D01*
X161181056Y-29695365D01*
X161192687Y-29753842D01*
X161192688Y-29753843D01*
X161237003Y-29820165D01*
X161303325Y-29864480D01*
X161303326Y-29864481D01*
X161361803Y-29876112D01*
X161361806Y-29876113D01*
X161361808Y-29876113D01*
X162901306Y-29876113D01*
X162901307Y-29876112D01*
X162916124Y-29873165D01*
X162959785Y-29864481D01*
X162959785Y-29864480D01*
X162959787Y-29864480D01*
X163026108Y-29820165D01*
X163070423Y-29753844D01*
X163070423Y-29753842D01*
X163070424Y-29753842D01*
X163082055Y-29695365D01*
X163082056Y-29695363D01*
X163082056Y-28751445D01*
X163101741Y-28684406D01*
X163118375Y-28663764D01*
X164369708Y-27412432D01*
X164431031Y-27378947D01*
X164457389Y-27376113D01*
X166486802Y-27376113D01*
X166486804Y-27376113D01*
X166563231Y-27355634D01*
X166631753Y-27316073D01*
X166687702Y-27260124D01*
X166935394Y-27012432D01*
X166996717Y-26978947D01*
X167023075Y-26976113D01*
X178321116Y-26976113D01*
X178321118Y-26976113D01*
X178397545Y-26955634D01*
X178466067Y-26916073D01*
X178522016Y-26860124D01*
X178769708Y-26612432D01*
X178831031Y-26578947D01*
X178857389Y-26576113D01*
X179801306Y-26576113D01*
X179859908Y-26564456D01*
X179929500Y-26570683D01*
G37*
G04 #@! TD.AperFunction*
M02*
