G04 #@! TF.GenerationSoftware,KiCad,Pcbnew,8.0.1*
G04 #@! TF.CreationDate,2024-03-31T12:21:25+03:00*
G04 #@! TF.ProjectId,EVER,45564552-2e6b-4696-9361-645f70636258,rev?*
G04 #@! TF.SameCoordinates,Original*
G04 #@! TF.FileFunction,Paste,Top*
G04 #@! TF.FilePolarity,Positive*
%FSLAX46Y46*%
G04 Gerber Fmt 4.6, Leading zero omitted, Abs format (unit mm)*
G04 Created by KiCad (PCBNEW 8.0.1) date 2024-03-31 12:21:25*
%MOMM*%
%LPD*%
G01*
G04 APERTURE LIST*
%ADD10R,1.500000X0.900000*%
G04 APERTURE END LIST*
D10*
X150131556Y-61925613D03*
X150131556Y-65225613D03*
X155031556Y-65225613D03*
X155031556Y-61925613D03*
X138131556Y-73925613D03*
X138131556Y-77225613D03*
X143031556Y-77225613D03*
X143031556Y-73925613D03*
X102131556Y-61925613D03*
X102131556Y-65225613D03*
X107031556Y-65225613D03*
X107031556Y-61925613D03*
X174131556Y-73925613D03*
X174131556Y-77225613D03*
X179031556Y-77225613D03*
X179031556Y-73925613D03*
X174131556Y-49925613D03*
X174131556Y-53225613D03*
X179031556Y-53225613D03*
X179031556Y-49925613D03*
X174131556Y-37925613D03*
X174131556Y-41225613D03*
X179031556Y-41225613D03*
X179031556Y-37925613D03*
X126131556Y-85925613D03*
X126131556Y-89225613D03*
X131031556Y-89225613D03*
X131031556Y-85925613D03*
X102131556Y-85925613D03*
X102131556Y-89225613D03*
X107031556Y-89225613D03*
X107031556Y-85925613D03*
X150131556Y-85925613D03*
X150131556Y-89225613D03*
X155031556Y-89225613D03*
X155031556Y-85925613D03*
X126131556Y-25925613D03*
X126131556Y-29225613D03*
X131031556Y-29225613D03*
X131031556Y-25925613D03*
X102131556Y-37925613D03*
X102131556Y-41225613D03*
X107031556Y-41225613D03*
X107031556Y-37925613D03*
X162131556Y-61925613D03*
X162131556Y-65225613D03*
X167031556Y-65225613D03*
X167031556Y-61925613D03*
X114131556Y-61925613D03*
X114131556Y-65225613D03*
X119031556Y-65225613D03*
X119031556Y-61925613D03*
X138131556Y-49925613D03*
X138131556Y-53225613D03*
X143031556Y-53225613D03*
X143031556Y-49925613D03*
X126131556Y-49925613D03*
X126131556Y-53225613D03*
X131031556Y-53225613D03*
X131031556Y-49925613D03*
X174131556Y-85925613D03*
X174131556Y-89225613D03*
X179031556Y-89225613D03*
X179031556Y-85925613D03*
X162131556Y-37925613D03*
X162131556Y-41225613D03*
X167031556Y-41225613D03*
X167031556Y-37925613D03*
X150131556Y-25925613D03*
X150131556Y-29225613D03*
X155031556Y-29225613D03*
X155031556Y-25925613D03*
X102131556Y-25925613D03*
X102131556Y-29225613D03*
X107031556Y-29225613D03*
X107031556Y-25925613D03*
X126131556Y-73925613D03*
X126131556Y-77225613D03*
X131031556Y-77225613D03*
X131031556Y-73925613D03*
X138131556Y-37925613D03*
X138131556Y-41225613D03*
X143031556Y-41225613D03*
X143031556Y-37925613D03*
X126131556Y-61925613D03*
X126131556Y-65225613D03*
X131031556Y-65225613D03*
X131031556Y-61925613D03*
X150131556Y-37925613D03*
X150131556Y-41225613D03*
X155031556Y-41225613D03*
X155031556Y-37925613D03*
X174131556Y-61925613D03*
X174131556Y-65225613D03*
X179031556Y-65225613D03*
X179031556Y-61925613D03*
X114131556Y-49925613D03*
X114131556Y-53225613D03*
X119031556Y-53225613D03*
X119031556Y-49925613D03*
X126131556Y-37925613D03*
X126131556Y-41225613D03*
X131031556Y-41225613D03*
X131031556Y-37925613D03*
X102131556Y-73925613D03*
X102131556Y-77225613D03*
X107031556Y-77225613D03*
X107031556Y-73925613D03*
X114131556Y-85925613D03*
X114131556Y-89225613D03*
X119031556Y-89225613D03*
X119031556Y-85925613D03*
X162131556Y-25925613D03*
X162131556Y-29225613D03*
X167031556Y-29225613D03*
X167031556Y-25925613D03*
X150131556Y-49925613D03*
X150131556Y-53225613D03*
X155031556Y-53225613D03*
X155031556Y-49925613D03*
X114131556Y-25925613D03*
X114131556Y-29225613D03*
X119031556Y-29225613D03*
X119031556Y-25925613D03*
X162131556Y-73925613D03*
X162131556Y-77225613D03*
X167031556Y-77225613D03*
X167031556Y-73925613D03*
X150131556Y-73925613D03*
X150131556Y-77225613D03*
X155031556Y-77225613D03*
X155031556Y-73925613D03*
X138131556Y-85925613D03*
X138131556Y-89225613D03*
X143031556Y-89225613D03*
X143031556Y-85925613D03*
X162131556Y-49925613D03*
X162131556Y-53225613D03*
X167031556Y-53225613D03*
X167031556Y-49925613D03*
X102131556Y-49925613D03*
X102131556Y-53225613D03*
X107031556Y-53225613D03*
X107031556Y-49925613D03*
X114131556Y-37925613D03*
X114131556Y-41225613D03*
X119031556Y-41225613D03*
X119031556Y-37925613D03*
X114131556Y-73925613D03*
X114131556Y-77225613D03*
X119031556Y-77225613D03*
X119031556Y-73925613D03*
X174131556Y-25925613D03*
X174131556Y-29225613D03*
X179031556Y-29225613D03*
X179031556Y-25925613D03*
X138131556Y-61925613D03*
X138131556Y-65225613D03*
X143031556Y-65225613D03*
X143031556Y-61925613D03*
X162131556Y-85925613D03*
X162131556Y-89225613D03*
X167031556Y-89225613D03*
X167031556Y-85925613D03*
X138131556Y-25925613D03*
X138131556Y-29225613D03*
X143031556Y-29225613D03*
X143031556Y-25925613D03*
M02*
