G04 #@! TF.GenerationSoftware,KiCad,Pcbnew,8.0.1*
G04 #@! TF.CreationDate,2024-03-31T12:21:25+03:00*
G04 #@! TF.ProjectId,EVER,45564552-2e6b-4696-9361-645f70636258,rev?*
G04 #@! TF.SameCoordinates,Original*
G04 #@! TF.FileFunction,Soldermask,Top*
G04 #@! TF.FilePolarity,Negative*
%FSLAX46Y46*%
G04 Gerber Fmt 4.6, Leading zero omitted, Abs format (unit mm)*
G04 Created by KiCad (PCBNEW 8.0.1) date 2024-03-31 12:21:25*
%MOMM*%
%LPD*%
G01*
G04 APERTURE LIST*
G04 Aperture macros list*
%AMRoundRect*
0 Rectangle with rounded corners*
0 $1 Rounding radius*
0 $2 $3 $4 $5 $6 $7 $8 $9 X,Y pos of 4 corners*
0 Add a 4 corners polygon primitive as box body*
4,1,4,$2,$3,$4,$5,$6,$7,$8,$9,$2,$3,0*
0 Add four circle primitives for the rounded corners*
1,1,$1+$1,$2,$3*
1,1,$1+$1,$4,$5*
1,1,$1+$1,$6,$7*
1,1,$1+$1,$8,$9*
0 Add four rect primitives between the rounded corners*
20,1,$1+$1,$2,$3,$4,$5,0*
20,1,$1+$1,$4,$5,$6,$7,0*
20,1,$1+$1,$6,$7,$8,$9,0*
20,1,$1+$1,$8,$9,$2,$3,0*%
G04 Aperture macros list end*
%ADD10R,1.500000X0.900000*%
%ADD11RoundRect,0.102000X0.762000X0.762000X-0.762000X0.762000X-0.762000X-0.762000X0.762000X-0.762000X0*%
%ADD12C,1.728000*%
%ADD13R,2.540000X2.540000*%
%ADD14C,2.540000*%
%ADD15C,0.600000*%
G04 APERTURE END LIST*
D10*
X150131556Y-61925613D03*
X150131556Y-65225613D03*
X155031556Y-65225613D03*
X155031556Y-61925613D03*
X138131556Y-73925613D03*
X138131556Y-77225613D03*
X143031556Y-77225613D03*
X143031556Y-73925613D03*
X102131556Y-61925613D03*
X102131556Y-65225613D03*
X107031556Y-65225613D03*
X107031556Y-61925613D03*
X174131556Y-73925613D03*
X174131556Y-77225613D03*
X179031556Y-77225613D03*
X179031556Y-73925613D03*
X174131556Y-49925613D03*
X174131556Y-53225613D03*
X179031556Y-53225613D03*
X179031556Y-49925613D03*
X174131556Y-37925613D03*
X174131556Y-41225613D03*
X179031556Y-41225613D03*
X179031556Y-37925613D03*
X126131556Y-85925613D03*
X126131556Y-89225613D03*
X131031556Y-89225613D03*
X131031556Y-85925613D03*
X102131556Y-85925613D03*
X102131556Y-89225613D03*
X107031556Y-89225613D03*
X107031556Y-85925613D03*
X150131556Y-85925613D03*
X150131556Y-89225613D03*
X155031556Y-89225613D03*
X155031556Y-85925613D03*
X126131556Y-25925613D03*
X126131556Y-29225613D03*
X131031556Y-29225613D03*
X131031556Y-25925613D03*
X102131556Y-37925613D03*
X102131556Y-41225613D03*
X107031556Y-41225613D03*
X107031556Y-37925613D03*
X162131556Y-61925613D03*
X162131556Y-65225613D03*
X167031556Y-65225613D03*
X167031556Y-61925613D03*
X114131556Y-61925613D03*
X114131556Y-65225613D03*
X119031556Y-65225613D03*
X119031556Y-61925613D03*
X138131556Y-49925613D03*
X138131556Y-53225613D03*
X143031556Y-53225613D03*
X143031556Y-49925613D03*
X126131556Y-49925613D03*
X126131556Y-53225613D03*
X131031556Y-53225613D03*
X131031556Y-49925613D03*
X174131556Y-85925613D03*
X174131556Y-89225613D03*
X179031556Y-89225613D03*
X179031556Y-85925613D03*
X162131556Y-37925613D03*
X162131556Y-41225613D03*
X167031556Y-41225613D03*
X167031556Y-37925613D03*
X150131556Y-25925613D03*
X150131556Y-29225613D03*
X155031556Y-29225613D03*
X155031556Y-25925613D03*
X102131556Y-25925613D03*
X102131556Y-29225613D03*
X107031556Y-29225613D03*
X107031556Y-25925613D03*
X126131556Y-73925613D03*
X126131556Y-77225613D03*
X131031556Y-77225613D03*
X131031556Y-73925613D03*
X138131556Y-37925613D03*
X138131556Y-41225613D03*
X143031556Y-41225613D03*
X143031556Y-37925613D03*
X126131556Y-61925613D03*
X126131556Y-65225613D03*
X131031556Y-65225613D03*
X131031556Y-61925613D03*
X150131556Y-37925613D03*
X150131556Y-41225613D03*
X155031556Y-41225613D03*
X155031556Y-37925613D03*
X174131556Y-61925613D03*
X174131556Y-65225613D03*
X179031556Y-65225613D03*
X179031556Y-61925613D03*
X114131556Y-49925613D03*
X114131556Y-53225613D03*
X119031556Y-53225613D03*
X119031556Y-49925613D03*
X126131556Y-37925613D03*
X126131556Y-41225613D03*
X131031556Y-41225613D03*
X131031556Y-37925613D03*
X102131556Y-73925613D03*
X102131556Y-77225613D03*
X107031556Y-77225613D03*
X107031556Y-73925613D03*
X114131556Y-85925613D03*
X114131556Y-89225613D03*
X119031556Y-89225613D03*
X119031556Y-85925613D03*
X162131556Y-25925613D03*
X162131556Y-29225613D03*
X167031556Y-29225613D03*
X167031556Y-25925613D03*
X150131556Y-49925613D03*
X150131556Y-53225613D03*
X155031556Y-53225613D03*
X155031556Y-49925613D03*
X114131556Y-25925613D03*
X114131556Y-29225613D03*
X119031556Y-29225613D03*
X119031556Y-25925613D03*
X162131556Y-73925613D03*
X162131556Y-77225613D03*
X167031556Y-77225613D03*
X167031556Y-73925613D03*
X150131556Y-73925613D03*
X150131556Y-77225613D03*
X155031556Y-77225613D03*
X155031556Y-73925613D03*
X138131556Y-85925613D03*
X138131556Y-89225613D03*
X143031556Y-89225613D03*
X143031556Y-85925613D03*
X162131556Y-49925613D03*
X162131556Y-53225613D03*
X167031556Y-53225613D03*
X167031556Y-49925613D03*
X102131556Y-49925613D03*
X102131556Y-53225613D03*
X107031556Y-53225613D03*
X107031556Y-49925613D03*
X114131556Y-37925613D03*
X114131556Y-41225613D03*
X119031556Y-41225613D03*
X119031556Y-37925613D03*
X114131556Y-73925613D03*
X114131556Y-77225613D03*
X119031556Y-77225613D03*
X119031556Y-73925613D03*
X174131556Y-25925613D03*
X174131556Y-29225613D03*
X179031556Y-29225613D03*
X179031556Y-25925613D03*
X138131556Y-61925613D03*
X138131556Y-65225613D03*
X143031556Y-65225613D03*
X143031556Y-61925613D03*
X162131556Y-85925613D03*
X162131556Y-89225613D03*
X167031556Y-89225613D03*
X167031556Y-85925613D03*
X138131556Y-25925613D03*
X138131556Y-29225613D03*
X143031556Y-29225613D03*
X143031556Y-25925613D03*
D11*
X170281600Y-32639000D03*
D12*
X170281600Y-35179000D03*
X170281600Y-37719000D03*
X170281600Y-40259000D03*
X170281600Y-42799000D03*
X170281600Y-45339000D03*
X170281600Y-47879000D03*
X170281600Y-50419000D03*
X170281600Y-52959000D03*
X170281600Y-55499000D03*
X170281600Y-58039000D03*
X170281600Y-60579000D03*
X170281600Y-63119000D03*
X170281600Y-65659000D03*
X170281600Y-68199000D03*
X147421600Y-32639000D03*
X147421600Y-35179000D03*
X147421600Y-37719000D03*
X147421600Y-40259000D03*
X147421600Y-42799000D03*
X147421600Y-45339000D03*
X147421600Y-47879000D03*
X147421600Y-50419000D03*
X147421600Y-52959000D03*
X147421600Y-55499000D03*
X147421600Y-58039000D03*
X147421600Y-60579000D03*
X147421600Y-63119000D03*
X147421600Y-65659000D03*
X147421600Y-68199000D03*
D13*
X142390000Y-34420000D03*
D14*
X142390000Y-44580000D03*
X124610000Y-44580000D03*
X124610000Y-34420000D03*
D15*
X168000000Y-88750000D03*
X178100000Y-64650000D03*
X155950000Y-88750000D03*
X178250000Y-41900000D03*
X178100000Y-53850000D03*
X131950000Y-88650000D03*
X108000000Y-88700000D03*
X120050000Y-88750000D03*
X108000800Y-25933400D03*
X175133000Y-37947600D03*
X127152400Y-61925200D03*
X175000000Y-49300000D03*
X103124000Y-73939400D03*
X163093400Y-73939400D03*
X139141200Y-25908000D03*
X151104600Y-61849000D03*
X115138200Y-25933400D03*
X139115800Y-49911000D03*
X151130000Y-49911000D03*
X163093400Y-61849000D03*
X163093400Y-37871400D03*
X175133000Y-73914000D03*
X127152400Y-85928200D03*
X127152400Y-25933400D03*
X103098600Y-49936400D03*
X127127000Y-49911000D03*
X163144200Y-49936400D03*
X175133000Y-25933400D03*
X163118800Y-25908000D03*
X127127000Y-73914000D03*
X163093400Y-85902800D03*
X103149400Y-85953600D03*
X115138200Y-85953600D03*
X115112800Y-73939400D03*
X139115800Y-37947600D03*
X103149400Y-25933400D03*
X115112800Y-37947600D03*
X103149400Y-37922200D03*
X151104600Y-73939400D03*
X175158400Y-85902800D03*
X115087400Y-49936400D03*
X151104600Y-37871400D03*
X151104600Y-85902800D03*
X115112800Y-61925200D03*
X175050000Y-61300000D03*
X103124000Y-61925200D03*
X139141200Y-85928200D03*
X139141200Y-61925200D03*
X139115800Y-73914000D03*
X127101600Y-37947600D03*
X151104600Y-25933400D03*
M02*
